<?xml version="1.0" standalone="no"?>
<!DOCTYPE svg PUBLIC "-//W3C//DTD SVG 1.1//EN" "http://www.w3.org/Graphics/SVG/1.1/DTD/svg11.dtd" >
<svg xmlns="http://www.w3.org/2000/svg" xmlns:xlink="http://www.w3.org/1999/xlink" version="1.1">
<metadata>
Created by FontForge 20201107 at Thu Dec 28 19:47:33 2023
 By 
Copyright (c) 2013, Natanael Gama (www.ndiscovered.com . info(at)ndiscovered.com), with Reserved Font Name Exo. This Font Software is licensed under the SIL Open Font License, Version 1.1.
</metadata>
<defs>
<font id="Exo2.0-Black" horiz-adv-x="1208" >
  <font-face 
    font-family="Exo 2.0 Black"
    font-weight="900"
    font-stretch="normal"
    units-per-em="2048"
    panose-1="0 0 10 0 0 0 0 0 0 0"
    ascent="1638"
    descent="-410"
    x-height="1024"
    cap-height="1413"
    bbox="-356 -633 2757 1982"
    underline-thickness="102"
    underline-position="-204"
    unicode-range="U+0020-FB02"
  />
<missing-glyph horiz-adv-x="1228" 
 />
    <glyph glyph-name="fi" unicode="fi" horiz-adv-x="1488" 
d="M1090 1513h178q127 0 127 -127v-104q0 -127 -127 -127h-178q-127 0 -127 127v104q0 127 127 127zM1393 1024v-1024h-432v766h-343v-766h-432v766h-170v248l170 10v125q0 334 375 334q173 0 309 -29v-258h-155q-55 0 -76 -23t-21 -83v-66h775z" />
    <glyph glyph-name="fl" unicode="fl" horiz-adv-x="1583" 
d="M1536 299l47 -274q-40 -25 -130.5 -39.5t-160.5 -14.5q-152 0 -238.5 76t-86.5 211v944h-258q-54 0 -74.5 -24t-20.5 -88v-66h215v-258h-215v-766h-430v766h-168v248l168 10v125q0 334 371 334q584 0 842 -49v-1061q0 -39 20.5 -56.5t63.5 -17.5h55z" />
    <glyph glyph-name="f_f" unicode="ff" horiz-adv-x="1642" 
d="M1667 1196h-190q-57 0 -78 -23t-21 -83v-66h254v-258h-254v-766h-415v766h-359v-766h-416v766h-172v248l172 10v104q10 334 371 334q70 0 171.5 -7.5t162.5 -20.5l-41 -258h-150q-56 0 -77 -23t-21 -84v-45h359v125q0 156 87.5 245t282.5 89q76 0 191 -7.5t184 -21.5z
" />
    <glyph glyph-name="f_f_i" unicode="ffi" horiz-adv-x="2252" 
d="M1853 1513h179q127 0 127 -127v-104q0 -127 -127 -127h-179q-127 0 -127 127v104q0 127 127 127zM2157 1024v-1024h-433v766h-346v-766h-413v766h-361v-766h-416v766h-172v248l172 10v104q10 334 371 334q70 0 171.5 -7.5t162.5 -20.5l-41 -258h-150q-56 0 -77 -23
t-21 -84v-45h361v125q0 334 374 334q159 0 295 -29v-258h-141q-68 0 -91.5 -22.5t-23.5 -83.5v-66h779z" />
    <glyph glyph-name="f_f_l" unicode="ffl" horiz-adv-x="2357" 
d="M2314 299l47 -274q-40 -25 -130 -39.5t-160 -14.5q-153 0 -239.5 76t-86.5 211v944h-272q-46 0 -70.5 -25t-24.5 -87v-66h230v-258h-230v-766h-415v766h-359v-766h-416v766h-172v248l172 10v104q10 334 371 334q70 0 171.5 -7.5t162.5 -20.5l-41 -258h-150q-56 0 -77 -23
t-21 -84v-45h359v125q0 334 370 334q584 0 842 -49v-1061q0 -39 20.5 -56.5t63.5 -17.5h55z" />
    <glyph glyph-name=".notdef" horiz-adv-x="1228" 
 />
    <glyph glyph-name=".null" horiz-adv-x="0" 
 />
    <glyph glyph-name="nonmarkingreturn" horiz-adv-x="682" 
 />
    <glyph glyph-name="space" unicode=" " horiz-adv-x="430" 
 />
    <glyph glyph-name="exclam" unicode="!" horiz-adv-x="673" 
d="M549 944l-45 -479h-336l-45 479v479h426v-479zM289 379h96q85 0 116 -31.5t31 -116.5v-84q0 -85 -31 -116t-116 -31h-96q-85 0 -116.5 31t-31.5 116v84q0 85 31.5 116.5t116.5 31.5z" />
    <glyph glyph-name="quotedbl" unicode="&#x22;" horiz-adv-x="804" 
d="M342 946h-246l-24 467h295zM709 946h-246l-25 467h295z" />
    <glyph glyph-name="numbersign" unicode="#" horiz-adv-x="1515" 
d="M1196 827l-35 -204h225l-49 -250h-219l-65 -373h-318l66 373h-197l-65 -373h-318l66 373h-242l49 250h236l35 204h-234l49 250h228l59 336h317l-59 -336h197l59 336h317l-59 -336h234l-50 -250h-227zM879 827h-197l-35 -204h197z" />
    <glyph glyph-name="dollar" unicode="$" horiz-adv-x="1218" 
d="M621 940l243 -106q168 -76 237.5 -175t69.5 -256q0 -113 -23 -189.5t-78.5 -129.5t-145.5 -79t-226 -32l-20 -198h-318l23 209q-163 18 -307 57l26 311q385 -10 500 -10q79 0 106 10t27 39t-19.5 46.5t-76.5 39.5l-268 123q-166 77 -235.5 174t-69.5 252q0 115 26 191.5
t86.5 126t154 72t234.5 26.5l23 174h319l-24 -189q137 -17 248 -57l-27 -285q-298 5 -485 5q-73 0 -98 -11t-25 -43q0 -29 25 -48.5t98 -47.5z" />
    <glyph glyph-name="percent" unicode="%" horiz-adv-x="1886" 
d="M416 1442q143 0 222.5 -38t116 -128.5t36.5 -255.5t-36.5 -255.5t-116 -128.5t-222.5 -38q-141 0 -219.5 38t-115 129t-36.5 255t36.5 255t115 129t219.5 38zM682 0h-258l778 1413h258zM416 1219q-27 0 -37.5 -11t-15.5 -51.5t-5 -136.5q0 -97 5 -137.5t15.5 -51
t37.5 -10.5q28 0 39 10.5t16.5 51t5.5 137.5q0 96 -5.5 136.5t-16.5 51.5t-39 11zM1468 815q143 0 222.5 -38t116 -128.5t36.5 -255.5t-36.5 -255.5t-116 -128.5t-222.5 -38q-106 0 -174 20t-113 69t-64 129t-19 204t19 204t64 129t113 69t174 20zM1468 592q-27 0 -37.5 -11
t-15 -50.5t-4.5 -137.5q0 -97 4.5 -136.5t15 -50.5t37.5 -11q28 0 39.5 10.5t17 51.5t5.5 136q0 96 -5.5 137t-17 51.5t-39.5 10.5z" />
    <glyph glyph-name="ampersand" unicode="&#x26;" horiz-adv-x="1558" 
d="M1473 299l47 -274q-53 -25 -146 -39.5t-162 -14.5q-196 0 -272 127q-79 -68 -174.5 -97.5t-251.5 -29.5q-237 0 -339.5 88.5t-102.5 300.5q0 169 65 261.5t215 105.5v12q-126 12 -180.5 89.5t-54.5 236.5q0 63 7 111.5t24 87t39 66.5t58.5 48t77 32.5t99.5 19.5t120 9.5
t144 2.5q208 0 340 -29l-51 -287q-294 7 -301 7q-68 0 -89.5 -26t-21.5 -112q0 -82 22 -109.5t89 -27.5h241l23 182h365v-182h178v-268h-178v-217q0 -40 15 -57t52 -17h103zM899 590h-250q-69 0 -88.5 -25.5t-19.5 -111.5q0 -93 19 -120t89 -26q122 3 250 31v252z" />
    <glyph glyph-name="quotesingle" unicode="'" horiz-adv-x="438" 
d="M342 946h-246l-24 467h295z" />
    <glyph glyph-name="parenleft" unicode="(" horiz-adv-x="761" 
d="M700 1618l50 -180q-153 -62 -218 -263t-65 -534q0 -327 65.5 -529.5t217.5 -269.5l-50 -180q-336 88 -492.5 324.5t-156.5 652.5q0 419 156.5 656t492.5 323z" />
    <glyph glyph-name="parenright" unicode=")" horiz-adv-x="761" 
d="M12 1438l49 180q336 -86 493 -323t157 -656q0 -416 -157 -652.5t-493 -324.5l-49 180q152 67 217.5 269.5t65.5 529.5q0 333 -65 534t-218 263z" />
    <glyph glyph-name="asterisk" unicode="*" horiz-adv-x="933" 
d="M549 1059l231 -264l-182 -136l-131 244l-129 -244l-184 136l235 262l-37 360h230zM887 1057l-246 -49l-51 61l-4 100l231 107zM348 1169v-100l-51 -61l-250 49l70 217z" />
    <glyph glyph-name="plus" unicode="+" horiz-adv-x="1071" 
d="M1018 463h-326v-324h-313v324h-326v317h326v324h313v-324h326v-317z" />
    <glyph glyph-name="comma" unicode="," horiz-adv-x="522" 
d="M217 379h84q82 0 114.5 -32t33.5 -116v-131q0 -145 -33 -239t-105 -193l-159 51q34 101 38 281q-121 0 -124 131l6 100q2 85 32.5 116.5t112.5 31.5z" />
    <glyph glyph-name="hyphen" unicode="-" horiz-adv-x="776" 
d="M686 401h-596v250h596v-250z" />
    <glyph glyph-name="period" unicode="." horiz-adv-x="530" 
d="M217 379h96q85 0 116.5 -31.5t31.5 -116.5v-84q0 -85 -31.5 -116t-116.5 -31h-96q-85 0 -116 31t-31 116v84q0 85 31 116.5t116 31.5z" />
    <glyph glyph-name="slash" unicode="/" horiz-adv-x="1204" 
d="M369 -162h-338l805 1575h338z" />
    <glyph glyph-name="zero" unicode="0" horiz-adv-x="1349" 
d="M674 1442q173 0 285.5 -35.5t186 -122t104 -225t30.5 -352.5t-30.5 -352.5t-104 -225.5t-186 -122.5t-285.5 -35.5q-172 0 -284.5 35.5t-185.5 122.5t-103.5 225.5t-30.5 352.5q0 284 58.5 442t187 225.5t358.5 67.5zM672 1112q-42 0 -66.5 -7.5t-45.5 -29.5t-30.5 -68.5
t-14.5 -117t-5 -182.5t5 -182.5t14.5 -117.5t30.5 -69t45.5 -29.5t66.5 -7.5q73 0 105.5 26t47.5 110.5t15 269.5q0 113 -5 183t-14.5 116.5t-31.5 68.5t-47.5 29.5t-69.5 7.5z" />
    <glyph glyph-name="one" unicode="1" horiz-adv-x="954" 
d="M807 0h-442v885q0 112 16 182l-326 -63l-51 272l361 137h442v-1413z" />
    <glyph glyph-name="two" unicode="2" horiz-adv-x="1228" 
d="M94 1067l-14 326q246 45 528 45q125 0 215 -16t162 -54t108.5 -109t36.5 -174q0 -117 -40 -199.5t-175 -217.5l-333 -316q84 24 188 21h393v-373h-1095v221q0 106 61 178l295 289q252 252 252 340q0 28 -25.5 35.5t-99.5 7.5q-256 0 -457 -4z" />
    <glyph glyph-name="three" unicode="3" horiz-adv-x="1183" 
d="M100 1104l-12 299q240 39 496 39q274 0 382.5 -71.5t108.5 -258.5q0 -168 -49 -252.5t-184 -103.5v-8q150 -23 209 -104t61 -251q3 -228 -117 -325t-409 -97q-248 0 -529 39l13 312q261 -11 393 -11q131 0 171 25t40 119q0 83 -31.5 112.5t-126.5 28.5l-272 -4v270h272
q50 0 80 7.5t44 25.5t18 38t4 56q0 70 -31.5 92.5t-126.5 22.5h-404z" />
    <glyph glyph-name="four" unicode="4" horiz-adv-x="1349" 
d="M1315 569v-241l-158 -41h-4v-287h-403v287h-568q-88 0 -135 65t-16 146l342 915h409l-286 -792q-9 -23 1 -37.5t33 -14.5h220v349l71 217h332v-566h162z" />
    <glyph glyph-name="five" unicode="5" horiz-adv-x="1163" 
d="M1051 1096h-582l-12 -148l262 -35q389 -48 389 -473q0 -465 -535 -465q-222 0 -524 37l37 330q278 -12 371 -12q120 0 162.5 27t48.5 100q6 71 -37.5 101t-151.5 38l-258 33q-56 8 -90 46.5t-31 92.5l39 645h926z" />
    <glyph glyph-name="six" unicode="6" horiz-adv-x="1245" 
d="M1081 1128h-370q-66 0 -103 -9.5t-62.5 -39.5t-35 -79t-12.5 -136q54 39 118 54.5t156 15.5q124 0 205.5 -24t129.5 -78.5t67.5 -132.5t19.5 -195q0 -98 -9.5 -170t-33.5 -133.5t-64 -102t-102 -69.5t-146.5 -41.5t-197.5 -12.5q-111 0 -190.5 12.5t-146 44.5t-108.5 84
t-71 133t-41 189t-12 256q0 120 9.5 216.5t30.5 171t49.5 130.5t71 95.5t89 65t110.5 40t129 20t150 5.5q233 0 387 -45zM645 285q33 0 55.5 3.5t37.5 15.5t23.5 24.5t12.5 41t5 53t1 71.5q0 97 -26 123t-115 26q-72 0 -143 -35q1 -78 2.5 -124t7.5 -86.5t15 -59.5t27 -32.5
t39.5 -17t57.5 -3.5z" />
    <glyph glyph-name="seven" unicode="7" horiz-adv-x="1112" 
d="M29 1413h907q90 0 138.5 -62t19.5 -145l-424 -1206h-432l325 897q35 104 78 162h-594z" />
    <glyph glyph-name="eight" unicode="8" horiz-adv-x="1308" 
d="M334 729v8q-57 6 -101 37t-69.5 78t-38 100t-12.5 109q0 106 21.5 173t81 116.5t165.5 70.5t274 21q136 0 230.5 -14.5t156 -42t96 -76t47.5 -106.5t13 -142q0 -56 -12.5 -109t-38 -100t-69.5 -78t-101 -37v-8q258 -22 258 -377q0 -111 -24.5 -179.5t-90.5 -116
t-177 -66.5t-288 -21q-231 -1 -356 37t-174 118.5t-49 227.5q0 355 258 377zM657 1155q-91 0 -119 -28.5t-28 -125.5q0 -82 30 -107.5t122 -25.5q88 0 113.5 25t25.5 108q0 97 -27.5 125.5t-116.5 28.5zM659 598q-103 0 -135 -32.5t-32 -131.5q0 -95 31.5 -124t133.5 -29
q99 0 129.5 29t30.5 124q0 101 -30.5 132.5t-127.5 31.5z" />
    <glyph glyph-name="nine" unicode="9" horiz-adv-x="1245" 
d="M113 20l18 267q133 -2 401 -2q121 0 163 54.5t50 209.5q-102 -70 -274 -70q-119 0 -201.5 30t-128.5 88.5t-66 134t-20 177.5q0 97 10.5 169.5t35 134t65.5 102t102.5 69t144.5 41.5t193 13q119 0 201.5 -12.5t148.5 -45.5t105 -83t65 -133.5t35.5 -188.5t9.5 -256
q0 -162 -14 -278.5t-48.5 -200t-81 -134.5t-123 -80.5t-162 -40t-210.5 -10.5q-245 0 -419 45zM471 920q0 -96 25.5 -123t109.5 -27q72 0 142 37q-1 77 -2.5 123.5t-8 86t-15 58.5t-26 32.5t-38.5 17t-56 3.5q-27 0 -46.5 -3.5t-34 -9t-23.5 -19t-14.5 -27t-8.5 -39
t-3.5 -48.5t-0.5 -62z" />
    <glyph glyph-name="colon" unicode=":" horiz-adv-x="567" 
d="M219 946h96q85 0 116.5 -31t31.5 -116v-84q0 -85 -31.5 -116.5t-116.5 -31.5h-96q-85 0 -116 31.5t-31 116.5v84q0 85 31 116t116 31zM219 381h96q85 0 116.5 -31.5t31.5 -116.5v-83q0 -85 -31.5 -116.5t-116.5 -31.5h-96q-85 0 -116 31.5t-31 116.5v83q0 85 31 116.5
t116 31.5z" />
    <glyph glyph-name="semicolon" unicode=";" horiz-adv-x="567" 
d="M238 946h96q85 0 116 -31t31 -116v-84q0 -85 -31 -116.5t-116 -31.5h-96q-85 0 -116.5 31.5t-31.5 116.5v84q0 85 31.5 116t116.5 31zM238 379h84q82 0 114 -32t33 -116v-131q0 -145 -33 -239t-104 -193l-160 51q35 104 39 281q-122 0 -125 131l6 100q1 85 32.5 116.5
t113.5 31.5z" />
    <glyph glyph-name="less" unicode="&#x3c;" horiz-adv-x="1034" 
d="M944 774l-530 -153l530 -154v-334l-891 324v329l891 322v-334z" />
    <glyph glyph-name="equal" unicode="=" horiz-adv-x="1169" 
d="M1077 690h-985v299h985v-299zM1077 248h-985v299h985v-299z" />
    <glyph glyph-name="greater" unicode="&#x3e;" horiz-adv-x="1028" 
d="M975 786v-329l-885 -324v334l524 154l-524 153v334z" />
    <glyph glyph-name="question" unicode="?" horiz-adv-x="1097" 
d="M59 1118l-10 283q19 4 67 13.5t65.5 12.5t59 10t69.5 9.5t73.5 6t95.5 4.5t111 1q237 0 351 -77.5t114 -239.5q0 -69 -25 -129.5t-62.5 -103t-83.5 -91t-87 -93.5t-73 -113t-42 -146h-336q-6 95 16 181t58.5 146t74 108t68 87.5t35.5 63.5q9 38 -17 52.5t-98 14.5h-424z
M465 379h96q85 0 116.5 -31.5t31.5 -116.5v-84q0 -85 -31.5 -116t-116.5 -31h-96q-85 0 -116.5 31t-31.5 116v84q0 85 31.5 116.5t116.5 31.5z" />
    <glyph glyph-name="at" unicode="@" horiz-adv-x="1640" 
d="M817 1264h332q205 0 305 -88t100 -299v-594h-313l-33 129q-122 -156 -319 -156q-87 0 -158 29t-115.5 89.5t-44.5 143.5v92q0 112 80.5 177t220.5 65h289v27q0 50 -22 71t-80 21h-242q-166 -1 -216 -14q-72 -18 -98 -81q-30 -70 -32 -283v-40q0 -112 2.5 -177t24 -117
t37.5 -73.5t76.5 -35t105 -14.5t156.5 -1h51h632v-262q-406 -35 -632 -35q-151 0 -255.5 4.5t-196.5 20t-149.5 36.5t-105 63.5t-71.5 90t-40.5 126.5t-21 163.5t-4.5 210.5q0 125 4 208.5t18.5 162.5t35.5 126t62 89.5t91.5 63t131 36.5t172 20.5t222.5 4.5zM1161 674
l-141 -10q-70 -6 -70 -58v-28q0 -26 20 -42t56 -16q67 0 135 43v111z" />
    <glyph glyph-name="A" unicode="A" horiz-adv-x="1398" 
d="M893 305h-387l-72 -305h-452l366 1298q13 52 54.5 83.5t95.5 31.5h403q54 0 95.5 -31.5t54.5 -83.5l366 -1298h-452zM821 616l-69 304q-21 105 -25 161h-55q-10 -84 -25 -161l-69 -304h243z" />
    <glyph glyph-name="B" unicode="B" horiz-adv-x="1351" 
d="M991 739v-12q163 -13 234 -106.5t71 -268.5q0 -109 -29.5 -180.5t-95 -113t-157.5 -58t-230 -16.5q-448 0 -678 16v1413q221 17 611 17q153 0 250 -16.5t162.5 -59t92.5 -113t27 -180.5q0 -155 -60.5 -232.5t-197.5 -89.5zM541 862h157q77 0 102 26t25 109
q0 81 -25.5 106t-105.5 25h-153v-266zM541 285h164q92 0 120.5 30t28.5 127q0 98 -29 129t-123 31h-161v-317z" />
    <glyph glyph-name="C" unicode="C" horiz-adv-x="1239" 
d="M1169 367l33 -324q-108 -37 -219.5 -52.5t-275.5 -15.5q-179 0 -298.5 38t-197.5 126t-111.5 225.5t-33.5 342.5q0 272 63.5 430.5t201.5 229.5t376 71q158 0 255 -12.5t209 -43.5l-32 -323q-286 4 -432 4q-72 0 -108 -30t-51.5 -104.5t-15.5 -221.5t15.5 -221.5
t51.5 -105t108 -30.5q296 0 462 17z" />
    <glyph glyph-name="D" unicode="D" horiz-adv-x="1435" 
d="M106 0v1413q378 21 605 21q125 0 217.5 -14t168.5 -47.5t126 -87t83.5 -135.5t48.5 -190t15 -253t-15 -253t-48.5 -190t-83.5 -135.5t-126 -87t-168.5 -47.5t-217.5 -14q-308 0 -605 20zM551 303l160 -2q78 0 117.5 34t56 119t16.5 253q0 102 -5.5 169t-17.5 115
t-35 73.5t-54 36.5t-78 11h-160v-809z" />
    <glyph glyph-name="E" unicode="E" horiz-adv-x="1220" 
d="M1143 332l20 -314q-95 -12 -239 -18.5t-230.5 -7t-265.5 -0.5q-147 0 -239.5 89.5t-92.5 231.5v787q0 142 92.5 231.5t239.5 89.5q179 0 265.5 -0.5t230.5 -7t239 -18.5l-20 -314h-518q-38 0 -61 -20.5t-23 -52.5v-138h528v-295h-528v-169q0 -33 23 -53.5t61 -20.5h518z
" />
    <glyph glyph-name="F" unicode="F" horiz-adv-x="1175" 
d="M1128 1081h-493q-41 0 -64.5 -20t-23.5 -53v-166h506v-295h-506v-547h-445v1100q0 142 94 231.5t242 89.5q172 0 257 -0.5t224.5 -7.5t229.5 -20z" />
    <glyph glyph-name="G" unicode="G" horiz-adv-x="1368" 
d="M1292 813v-813h-327l-39 145q-58 -71 -159.5 -122.5t-231.5 -51.5q-166 0 -267.5 72.5t-151.5 234.5t-50 429q0 206 35 344t115.5 226.5t204.5 126.5t310 38q166 0 276.5 -13.5t225.5 -46.5l-33 -319q-312 4 -467 4q-82 0 -123.5 -30t-59.5 -106t-18 -224
q0 -146 17 -221.5t54.5 -105.5t109.5 -30q71 0 153 12v451h426z" />
    <glyph glyph-name="H" unicode="H" horiz-adv-x="1462" 
d="M1354 1413v-1413h-445v594h-356v-594h-444v1413h444v-508h356v508h445z" />
    <glyph glyph-name="I" unicode="I" horiz-adv-x="657" 
d="M549 0h-440v1413h440v-1413z" />
    <glyph glyph-name="J" unicode="J" horiz-adv-x="827" 
d="M725 1413v-1153q0 -137 -100 -213t-275 -76q-80 0 -181 14.5t-149 39.5l48 278h96q62 0 91.5 17t29.5 55v1038h440z" />
    <glyph glyph-name="K" unicode="K" horiz-adv-x="1384" 
d="M610 590h-73q16 -72 16 -129v-461h-444v1413h444v-356q0 -91 -21 -180h78l295 536h477l-325 -553q-25 -45 -59.5 -78.5t-65.5 -46.5v-8q31 -13 74 -54t67 -85l330 -588h-494z" />
    <glyph glyph-name="L" unicode="L" horiz-adv-x="1140" 
d="M547 1413v-987q0 -33 23.5 -53.5t62.5 -20.5h475l20 -332q-98 -13 -231.5 -20t-213.5 -7.5t-245 -0.5q-153 0 -244.5 88.5t-91.5 232.5v1100h445z" />
    <glyph glyph-name="M" unicode="M" horiz-adv-x="1949" 
d="M1272 1413h391q150 0 156 -153l49 -1260h-400l-43 1081h-30l-140 -721q-21 -135 -168 -135h-229q-146 0 -170 135l-141 721h-31l-35 -1081h-399l49 1260q6 153 156 153h383q144 0 168 -137l102 -561q12 -86 23 -211h18q21 180 25 211l96 561q24 137 170 137z" />
    <glyph glyph-name="N" unicode="N" horiz-adv-x="1511" 
d="M1407 1413v-1259q0 -75 -39.5 -114.5t-114.5 -39.5h-170q-64 0 -98 29t-74 100l-307 485q-49 89 -94 242h-14q20 -143 20 -258v-598h-410v1260q0 75 39.5 114t114.5 39h170q64 0 97 -28.5t75 -100.5l295 -463q57 -100 109 -241h14q-19 162 -21 256v577h408z" />
    <glyph glyph-name="O" unicode="O" horiz-adv-x="1447" 
d="M723 1442q151 0 255.5 -21t185 -70t127 -134.5t69 -209t22.5 -300.5q0 -147 -15 -256.5t-48.5 -192.5t-83.5 -137.5t-126 -88t-168.5 -47.5t-217.5 -14q-150 0 -254.5 21t-184.5 70t-126.5 135t-69 209.5t-22.5 300.5t22.5 300.5t69 209t126.5 134.5t184.5 70t254.5 21z
M723 1112q-79 0 -118.5 -34t-56 -118.5t-16.5 -252.5t16.5 -253t56.5 -119t118 -34t117.5 34t56 119t16.5 253q0 102 -5.5 169t-17.5 115t-35 73.5t-54 36.5t-78 11z" />
    <glyph glyph-name="P" unicode="P" horiz-adv-x="1323" 
d="M106 0v1413q219 21 599 21q139 0 234 -14.5t165.5 -46.5t109.5 -89t57.5 -136.5t18.5 -195.5q0 -141 -26.5 -232t-91 -146t-160.5 -77t-246 -22q-110 0 -215 12v-487h-445zM551 788h143q91 0 121.5 33t30.5 131q0 101 -30.5 134.5t-121.5 33.5h-143v-332z" />
    <glyph glyph-name="Q" unicode="Q" horiz-adv-x="1447" 
d="M723 1442q151 0 255.5 -21t185 -70t127 -134.5t69 -209t22.5 -300.5q0 -147 -15 -256.5t-48.5 -192.5t-83.5 -137.5t-126 -88t-168.5 -47.5t-217.5 -14q-150 0 -254.5 21t-184.5 70t-126.5 135t-69 209.5t-22.5 300.5t22.5 300.5t69 209t126.5 134.5t184.5 70t254.5 21z
M723 1112q-79 0 -118.5 -34t-56 -118.5t-16.5 -252.5t16.5 -253t56.5 -119t118 -34t117.5 34t56 119t16.5 253q0 102 -5.5 169t-17.5 115t-35 73.5t-54 36.5t-78 11zM508 -264l94 211q141 -52 295 -85t379 -67l-109 -358q-404 116 -659 299z" />
    <glyph glyph-name="R" unicode="R" horiz-adv-x="1384" 
d="M1358 0h-465l-92 420q-12 57 -37.5 76.5t-83.5 19.5h-137v-516h-437v1413q219 21 601 21q161 0 269.5 -21t183.5 -70.5t109 -132t34 -206.5q0 -306 -287 -336v-13q191 -24 231 -221zM543 829h153q96 0 128 29t32 117q0 87 -32 116t-128 29h-153v-291z" />
    <glyph glyph-name="S" unicode="S" horiz-adv-x="1249" 
d="M657 477l-280 123q-172 77 -244 174t-72 252q0 122 30 201t102 127.5t179 68t271 19.5q307 0 514 -72l-27 -285q-307 5 -497 5q-77 0 -104 -11t-27 -43q0 -29 25 -48.5t98 -47.5l256 -106q175 -75 246 -174t71 -257q0 -162 -53 -254t-177.5 -135t-346.5 -43
q-274 0 -547 70l26 311q407 -10 514 -10q84 0 112 10t28 39t-20 46.5t-77 39.5z" />
    <glyph glyph-name="T" unicode="T" horiz-adv-x="1275" 
d="M1255 1081h-395v-1081h-444v1081h-396v332h1235v-332z" />
    <glyph glyph-name="U" unicode="U" horiz-adv-x="1443" 
d="M1348 1413v-829q0 -338 -135.5 -475.5t-467.5 -137.5q-242 0 -382 60t-203.5 192.5t-63.5 360.5v829h445v-829q0 -169 37 -226t145 -57q73 0 110.5 24t53.5 83.5t16 175.5v829h445z" />
    <glyph glyph-name="V" unicode="V" horiz-adv-x="1372" 
d="M1376 1413l-344 -1294q-12 -54 -53 -86.5t-98 -32.5h-389q-57 0 -98.5 32.5t-53.5 86.5l-344 1294h457l182 -919q8 -40 27 -162h49q9 74 26 162l183 919h456z" />
    <glyph glyph-name="W" unicode="W" horiz-adv-x="2054" 
d="M2013 1413l-176 -1294q-7 -53 -50 -86t-101 -33h-377q-58 0 -102 33t-50 86l-96 780q-10 82 -17 207h-34q-7 -125 -17 -209l-94 -778q-6 -53 -49.5 -86t-101.5 -33h-379q-58 0 -101.5 33t-50.5 86l-176 1294h438l72 -866q8 -140 8 -236h33q33 236 33 238l94 733
q6 58 47.5 94.5t101.5 36.5h318q60 0 100.5 -36t48.5 -95l97 -737q6 -60 30 -234h33q0 57 10 232l70 870h438z" />
    <glyph glyph-name="X" unicode="X" horiz-adv-x="1386" 
d="M956 0l-262 594l-264 -594h-440l350 721l-322 692h439l237 -559l236 559h438l-321 -692l350 -721h-441z" />
    <glyph glyph-name="Y" unicode="Y" horiz-adv-x="1339" 
d="M893 440v-440h-444v436l-469 977h456l178 -444q7 -17 13 -36.5t10.5 -43t7 -38.5t7 -43.5t5.5 -37.5h27q24 150 43 201l176 442h457z" />
    <glyph glyph-name="Z" unicode="Z" horiz-adv-x="1239" 
d="M1182 311v-311h-1123v311l611 791h-590v311h1081v-311l-610 -791h631z" />
    <glyph glyph-name="bracketleft" unicode="[" horiz-adv-x="743" 
d="M694 1311h-123q-20 0 -32.5 -12.5t-12.5 -32.5v-1297q0 -20 12.5 -32.5t32.5 -12.5h123v-262h-362q-101 0 -154 45.5t-53 161.5v1497q0 92 57.5 149.5t149.5 57.5h362v-262z" />
    <glyph glyph-name="backslash" unicode="\" horiz-adv-x="1204" 
d="M1174 -162h-338l-805 1575h338z" />
    <glyph glyph-name="bracketright" unicode="]" horiz-adv-x="743" 
d="M49 1573h363q92 0 149 -57.5t57 -149.5v-1497q0 -92 -57 -149.5t-149 -57.5h-363v262h123q20 0 32.5 12.5t12.5 32.5v1297q0 20 -12.5 32.5t-32.5 12.5h-123v262z" />
    <glyph glyph-name="asciicircum" unicode="^" horiz-adv-x="1017" 
d="M956 848l-165 -86l-271 321h-16l-279 -321l-164 86l295 489h312z" />
    <glyph glyph-name="underscore" unicode="_" horiz-adv-x="1087" 
d="M1006 -250h-924v250h924v-250z" />
    <glyph glyph-name="grave" unicode="`" horiz-adv-x="802" 
d="M721 1223l-117 -176l-522 210l162 273z" />
    <glyph glyph-name="a" unicode="a" 
d="M137 729l-39 272q115 21 290 36.5t294 15.5q112 0 192.5 -20.5t139.5 -68.5t87.5 -129.5t28.5 -199.5v-635h-342l-38 143q-137 -172 -355 -172q-97 0 -175.5 31.5t-127.5 99t-49 160.5v103q0 123 90.5 193.5t247.5 70.5h319v8q-2 55 -28 78.5t-92 23.5q-225 0 -443 -10z
M461 358v-32q0 -29 22.5 -46.5t63.5 -17.5q69 0 153 51v109h-161q-37 0 -57.5 -17.5t-20.5 -46.5z" />
    <glyph glyph-name="b" unicode="b" horiz-adv-x="1265" 
d="M516 1434l4 -285q3 -130 -31 -246q162 150 334 150q213 0 300 -122t87 -407q0 -91 -12 -164t-48 -147.5t-95 -124.5t-160 -81.5t-236 -31.5q-139 0 -315.5 22.5t-257.5 63.5v1373h430zM516 705v-433q86 -11 135 -8q46 3 70 24t35.5 75t11.5 159q0 128 -25 168.5
t-100 40.5q-58 0 -127 -26z" />
    <glyph glyph-name="c" unicode="c" horiz-adv-x="1081" 
d="M1006 330l38 -269q-165 -86 -446 -86q-300 0 -422.5 121t-122.5 418q0 296 123.5 417.5t425.5 121.5q270 0 428 -76l-43 -266h-311q-100 0 -136 -40t-36 -157q0 -118 36 -158.5t136 -40.5q192 0 330 15z" />
    <glyph glyph-name="d" unicode="d" horiz-adv-x="1269" 
d="M1182 1434v-1434h-342l-35 168q-103 -193 -377 -193q-195 0 -283 139t-88 410q0 155 24.5 259.5t75.5 163t120 82.5t169 24q196 0 314 -86q-8 144 -8 223v244h430zM752 350v395q-71 27 -134 27q-47 0 -70 -15t-35.5 -68t-12.5 -161q0 -92 12.5 -138t34 -58.5t65.5 -12.5
q76 0 140 31z" />
    <glyph glyph-name="e" unicode="e" 
d="M768 418h-256q12 -63 50 -88t120 -25q191 0 416 23l39 -258q-186 -95 -502 -95q-313 0 -448.5 130t-135.5 399q0 302 131.5 425.5t450.5 123.5q190 0 308.5 -42t170.5 -121t53 -202q2 -145 -86.5 -207.5t-310.5 -62.5zM504 621h143q70 0 88.5 12.5t18.5 64.5
q0 48 -23.5 63t-85.5 15q-81 2 -109 -26t-32 -129z" />
    <glyph glyph-name="f" unicode="f" horiz-adv-x="874" 
d="M899 1196h-180q-57 0 -77.5 -23t-20.5 -83v-66h243v-258h-243v-766h-433v766h-172v248l172 10v125q0 334 377 334q76 0 191 -7.5t184 -21.5z" />
    <glyph glyph-name="g" unicode="g" horiz-adv-x="1236" 
d="M1210 866l-112 -18q16 -47 16 -119q0 -179 -117.5 -251t-408.5 -72q-84 0 -152 6q-11 -17 -12.5 -37t17 -37t53.5 -19l372 -24q173 -12 250.5 -90t77.5 -232q0 -87 -22.5 -147.5t-65 -99t-117.5 -60t-164.5 -29.5t-222.5 -8q-148 0 -249.5 10.5t-168.5 30.5t-104 56.5
t-51.5 81.5t-14.5 112q0 76 35 127.5t125 89.5q-45 47 -51.5 112t23.5 121.5t85 82.5q-90 35 -131 102t-41 174q0 177 120.5 250.5t410.5 73.5q187 0 297 -29h344zM588 639q75 0 101 18t26 72q0 53 -25.5 70.5t-101.5 17.5t-102.5 -17.5t-26.5 -70.5q0 -54 26.5 -72
t102.5 -18zM633 39l-182 14q-20 -15 -27.5 -29t-7.5 -38q0 -39 37 -52.5t143 -13.5q118 0 157.5 11t39.5 44q0 13 -3.5 22t-14 15.5t-20.5 10.5t-31.5 7t-39.5 5t-51 4z" />
    <glyph glyph-name="h" unicode="h" horiz-adv-x="1271" 
d="M520 1434v-306q0 -117 -20 -227q189 152 387 152q149 0 226 -73t77 -214v-766h-430v629q0 33 -17 47t-57 14q-89 0 -168 -24v-666h-430v1434h432z" />
    <glyph glyph-name="i" unicode="i" horiz-adv-x="620" 
d="M219 1493h182q125 0 125 -127v-104q0 -127 -125 -127h-182q-125 0 -125 127v104q0 127 125 127zM524 0h-428v1024h428v-1024z" />
    <glyph glyph-name="j" unicode="j" horiz-adv-x="622" 
d="M215 1513h182q125 0 125 -127v-104q0 -127 -125 -127h-182q-125 0 -125 127v104q0 127 125 127zM526 1024v-905q0 -164 -89.5 -305t-241.5 -203l-238 188q79 79 110 153.5t31 166.5v905h428z" />
    <glyph glyph-name="k" unicode="k" horiz-adv-x="1247" 
d="M559 442h-55q14 -93 14 -149v-293h-430v1434h430v-549q0 -95 -16 -201h59l195 340h471l-215 -336q-21 -38 -56.5 -72.5t-62.5 -50.5v-8q24 -12 60 -53.5t59 -83.5l254 -420h-473z" />
    <glyph glyph-name="l" unicode="l" horiz-adv-x="733" 
d="M518 1434v-1061q0 -39 25 -56.5t78 -17.5h69l47 -274q-42 -25 -135.5 -39.5t-165.5 -14.5q-162 0 -254 76t-92 211v1176h428z" />
    <glyph glyph-name="m" unicode="m" horiz-adv-x="1812" 
d="M424 1024l37 -150q89 94 173 136.5t193 42.5q208 0 267 -152q80 78 160.5 115t181.5 37q146 0 220.5 -73t74.5 -214v-766h-428v629q0 34 -15 47.5t-53 13.5q-60 0 -119 -24v-666h-414v629q0 33 -16 47t-53 14q-54 0 -117 -22v-668h-428v1024h336z" />
    <glyph glyph-name="n" unicode="n" horiz-adv-x="1271" 
d="M426 1024l39 -152q97 90 206.5 135.5t215.5 45.5q149 0 226 -73t77 -214v-766h-430v629q0 33 -17 47t-57 14q-89 0 -168 -24v-666h-430v1024h338z" />
    <glyph glyph-name="o" unicode="o" horiz-adv-x="1251" 
d="M627 1053q314 0 442.5 -122t128.5 -421q0 -294 -128.5 -414.5t-442.5 -120.5q-315 0 -444.5 120.5t-129.5 414.5q0 299 129.5 421t444.5 122zM627 762q-52 0 -77 -20t-35.5 -72t-10.5 -160q0 -105 10.5 -155.5t35.5 -69.5t77 -19q51 0 75.5 19t35 69.5t10.5 155.5
q0 108 -10.5 160.5t-35 72t-75.5 19.5z" />
    <glyph glyph-name="p" unicode="p" horiz-adv-x="1269" 
d="M432 1024l35 -139q49 70 153 117t224 47q194 0 281 -139t87 -410q0 -156 -24 -260t-75 -163t-119.5 -82.5t-168.5 -23.5q-197 0 -313 86q8 -146 6 -223v-203h-430v1393h344zM518 702v-423q71 -27 135 -27q35 0 54.5 7.5t35 32.5t21.5 73.5t6 130.5q0 108 -12.5 161.5
t-34 67.5t-64.5 14q-32 0 -59.5 -6t-40.5 -11.5t-41 -19.5z" />
    <glyph glyph-name="q" unicode="q" horiz-adv-x="1265" 
d="M750 -369v267q-3 128 28 249q-66 -73 -154 -122.5t-184 -49.5q-206 0 -295.5 133.5t-89.5 395.5q0 102 12 179t47.5 149.5t95.5 118.5t159.5 74t236.5 28q139 0 316 -22.5t258 -63.5v-1336h-430zM750 344v412q-86 11 -136 8q-47 -3 -70.5 -24t-34.5 -74.5t-11 -159.5
q0 -80 11.5 -120t36.5 -54.5t75 -14.5q54 0 129 27z" />
    <glyph glyph-name="r" unicode="r" horiz-adv-x="925" 
d="M922 1053l-37 -394h-109q-109 0 -258 -20v-639h-430v1024h336l39 -150q191 179 399 179h60z" />
    <glyph glyph-name="s" unicode="s" horiz-adv-x="1132" 
d="M543 356l-226 62q-82 24 -136 57t-82.5 77t-39 90.5t-10.5 111.5q0 72 24 125.5t78 93.5t147 60t226 20q127 0 279 -12.5t246 -32.5l-27 -250h-404h-26q-88 0 -107.5 -3.5t-19.5 -21.5q0 -13 11 -18t54 -16q33 -9 56 -15l235 -59q141 -40 206 -110t65 -200
q0 -192 -112 -265t-384 -73q-285 0 -533 43l27 250h365q153 0 187 4.5t34 26.5q0 4 -1 7.5t-3.5 6t-6 5t-10 5t-13 4t-18 5t-22 6t-27 7t-32.5 9.5z" />
    <glyph glyph-name="t" unicode="t" horiz-adv-x="897" 
d="M625 766v-393q0 -40 20.5 -57t67.5 -17h108l47 -274q-61 -26 -163.5 -40t-184.5 -14q-150 0 -237.5 76.5t-87.5 210.5v508h-175v248l173 8v270h432v-268h247v-258h-247z" />
    <glyph glyph-name="u" unicode="u" horiz-adv-x="1259" 
d="M1171 1024v-1024h-337l-39 150q-101 -92 -200 -135.5t-210 -43.5q-150 0 -226.5 73t-76.5 214v766h430v-629q0 -34 18 -48.5t58 -14.5q72 0 151 24v668h432z" />
    <glyph glyph-name="v" unicode="v" horiz-adv-x="1230" 
d="M1237 1024l-303 -924q-14 -46 -50 -73t-85 -27h-367q-49 0 -85 27t-50 73l-303 924h455l124 -565q13 -71 29 -193h27q3 20 30 193l123 565h455z" />
    <glyph glyph-name="w" unicode="w" horiz-adv-x="1794" 
d="M1778 1024l-209 -915q-10 -49 -48 -79t-91 -30h-302q-58 0 -99.5 35.5t-47.5 91.5l-59 465q-4 37 -13 180h-26q-5 -83 -15 -180l-59 -465q-6 -56 -47.5 -91.5t-99.5 -35.5h-297q-53 0 -91.5 30t-48.5 79l-209 915h426l74 -575q12 -122 16 -183h25q2 27 5 57.5t7 68
t6 57.5l58 450q6 55 47 90t98 35h236q57 0 98 -35t47 -92l55 -448q2 -23 10.5 -86t10.5 -97h25l18 183l72 575h428z" />
    <glyph glyph-name="x" unicode="x" horiz-adv-x="1241" 
d="M821 0l-200 385l-201 -385h-426l297 522l-275 502h424l181 -358l180 358h424l-275 -502l297 -522h-426z" />
    <glyph glyph-name="y" unicode="y" horiz-adv-x="1232" 
d="M1237 1024l-326 -995q-14 -45 -32.5 -87t-44 -88t-58.5 -84.5t-73 -74.5t-90.5 -60.5t-107.5 -39.5t-128 -14.5t-148 16.5l-28 231q121 26 191 64.5t110 107.5h-70q-49 0 -85 27t-50 73l-303 924h457l120 -565q12 -78 27 -193h18q16 58 43 193l121 565h457z" />
    <glyph glyph-name="z" unicode="z" horiz-adv-x="1107" 
d="M1049 276v-276h-990v276l476 472h-463v276h964v-276l-475 -472h488z" />
    <glyph glyph-name="braceleft" unicode="{" horiz-adv-x="735" 
d="M676 1573v-262q-39 0 -52.5 -0.5t-34 -4t-26.5 -11.5t-11 -23t-5 -39v-256q3 -139 -48.5 -212.5t-189.5 -92.5q137 -36 190.5 -108.5t55.5 -188.5v-379q0 -51 19.5 -62t85.5 -10h24v-262q-271 -43 -405 43t-134 256v455q0 58 -17 77.5t-71 40.5q-8 3 -12 5v266
q57 19 69 30q22 19 23 88v13v338q0 170 134 256t405 43z" />
    <glyph glyph-name="bar" unicode="|" horiz-adv-x="565" 
d="M432 -346h-299v1945h299v-1945z" />
    <glyph glyph-name="braceright" unicode="}" horiz-adv-x="735" 
d="M59 1311v262q271 43 405 -43t134 -256v-338q0 -51 7.5 -74t22 -32.5t52.5 -21.5q6 -2 10 -3v-266q-61 -25 -75 -37q-25 -24 -25 -86v-455q0 -170 -134 -256t-405 -43v262h24q66 -1 85.5 10t19.5 62v379q2 116 55.5 188.5t190.5 108.5q-138 19 -189.5 92.5t-48.5 212.5
v256q0 24 -5 39t-11 23t-26.5 11.5t-34 4t-52.5 0.5z" />
    <glyph glyph-name="asciitilde" unicode="~" horiz-adv-x="1024" 
d="M270 424h-178q-30 171 23.5 259.5t150.5 86.5q42 -1 134.5 -20.5t185.5 -42t108 -25.5q13 -3 22.5 -2.5t16 1t10.5 7t6.5 10t3.5 16.5t1 20v26h178q31 -170 -21 -259.5t-153 -86.5q-43 1 -133.5 20t-183 41.5t-113.5 26.5q-41 7 -49.5 -6.5t-8.5 -62.5v-9z" />
    <glyph glyph-name="exclamdown" unicode="&#xa1;" horiz-adv-x="638" 
d="M272 1065h97q85 0 116 -31t31 -116v-84q0 -85 -31 -116.5t-116 -31.5h-97q-85 0 -116 31.5t-31 116.5v84q0 85 31 116t116 31zM532 121v-479h-426v479l46 479h335z" />
    <glyph glyph-name="cent" unicode="&#xa2;" horiz-adv-x="1107" 
d="M1014 506l39 -248q-131 -69 -342 -82l-21 -176h-317l22 188q-186 36 -265 158.5t-79 364.5q0 281 111 403.5t377 132.5l20 166h320l-23 -184q106 -19 182 -55l-43 -246h-315q-123 0 -164 -42.5t-41 -174.5q0 -134 41 -176.5t164 -42.5q203 0 334 14z" />
    <glyph glyph-name="sterling" unicode="&#xa3;" horiz-adv-x="1234" 
d="M1178 342v-342h-1100v342q101 48 133 115.5t22 165.5l-2 20h-155l-4 205h143l-16 194q-9 118 13.5 195t81.5 122t144 63t215 18q198 0 480 -21l-21 -317h-379q-57 0 -81 -19.5t-19 -60.5l18 -174h310l-11 -205h-276l2 -20q7 -82 -15.5 -142.5t-46.5 -84.5t-76 -63
q-9 -7 -14 -11q57 20 176 20h478z" />
    <glyph glyph-name="currency" unicode="&#xa4;" horiz-adv-x="1177" 
d="M1110 1063l-143 -143q49 -93 49 -199q0 -109 -51 -203l145 -141l-176 -174l-143 141q-91 -51 -203 -51q-105 0 -201 49l-137 -137l-189 188l142 139q-43 91 -43 189q0 111 51 205l-137 137l176 174l137 -139q91 51 201 51q115 0 207 -53l141 141zM588 535q74 0 129 56
t55 132q0 77 -55 132.5t-129 55.5t-129.5 -55.5t-55.5 -132.5q0 -76 55.5 -132t129.5 -56z" />
    <glyph glyph-name="yen" unicode="&#xa5;" horiz-adv-x="1454" 
d="M1110 774h141v-225h-1044l-4 225h141l-307 639h457l178 -424q9 -21 16.5 -49.5t11 -46.5t8.5 -55t7 -47h26q2 11 6 38.5t6.5 43.5t7 39t10.5 42.5t13 36.5l177 422h456zM203 487h1048v-225h-301v-262h-444v262h-299z" />
    <glyph glyph-name="brokenbar" unicode="&#xa6;" horiz-adv-x="569" 
d="M434 780h-299v819h299v-819zM434 -346h-299v819h299v-819z" />
    <glyph glyph-name="section" unicode="&#xa7;" horiz-adv-x="1157" 
d="M575 604l-296 156q-75 39 -105 66q-106 92 -106 274q0 100 31 167t98 105.5t158.5 54t224.5 15.5q79 0 229 -7t254 -18l-29 -291q-45 3 -85 3.5t-112.5 -0.5t-123.5 -1q-104 0 -141.5 -7.5t-43.5 -35.5q-7 -29 16.5 -48.5t71.5 -41.5l236 -110q95 -45 150.5 -97
t74.5 -117.5t9.5 -138.5t-46.5 -170h-295q0 33 -2.5 56t-5.5 42t-14 35t-20.5 27t-32 26t-40.5 25.5t-55 30.5zM117 676h295q0 -38 2 -63.5t11.5 -48t18 -36t32 -31t44 -29t62.5 -34.5l297 -155q77 -40 110 -70q101 -92 101 -272q0 -80 -21 -138.5t-60.5 -97t-103.5 -62
t-142.5 -33t-184.5 -9.5q-288 0 -484 24l29 291q65 -4 321 -4q101 0 140 9t45 36q5 20 -8.5 37.5t-30 26.5t-49.5 24l-236 113q-95 45 -150.5 97t-74.5 117t-9.5 138t46.5 170z" />
    <glyph glyph-name="dieresis" unicode="&#xa8;" horiz-adv-x="892" 
d="M182 1475h142q79 0 79 -80v-129q0 -80 -79 -80h-142q-80 0 -80 80v129q0 80 80 80zM569 1475h142q80 0 80 -80v-129q0 -80 -80 -80h-142q-80 0 -80 80v129q0 80 80 80z" />
    <glyph glyph-name="copyright" unicode="&#xa9;" horiz-adv-x="1601" 
d="M801 1442q208 0 378 -93.5t268.5 -262.5t98.5 -379t-98.5 -379t-268.5 -263t-378 -94q-207 0 -377.5 94t-269.5 263t-99 379q0 158 58 295t158 233.5t237.5 151.5t292.5 55zM801 1243q-146 0 -268.5 -68.5t-195.5 -192t-73 -275.5t73 -276t196 -192.5t268 -68.5
q147 0 269.5 68.5t194.5 192.5t72 276t-72 275.5t-194.5 192t-269.5 68.5zM1090 571l22 -221q-125 -43 -303 -43q-219 0 -308 90t-89 312q0 221 89 310t308 89q97 0 156 -7.5t129 -25.5l-23 -223q-1 -2 -120.5 -1t-141.5 1q-50 0 -61 -24t-11 -119q0 -96 11 -120t61 -24
q195 0 281 6z" />
    <glyph glyph-name="ordfeminine" unicode="&#xaa;" horiz-adv-x="886" 
d="M129 1044l-29 197q77 14 198.5 24.5t199.5 10.5q156 0 231.5 -64.5t75.5 -224.5v-420h-248l-25 90q-87 -110 -233 -110q-101 0 -169.5 51.5t-68.5 144.5v68q0 83 62 131.5t168 48.5h205q0 32 -17 46t-55 14q-161 0 -295 -7zM360 807v-16q0 -35 52 -35q34 0 84 24v72
l-86 -8q-50 -6 -50 -37z" />
    <glyph glyph-name="guillemotleft" unicode="&#xab;" horiz-adv-x="1130" 
d="M592 821l-176 -307l176 -319l-225 -142l-324 416v90l324 404zM1073 821l-176 -307l176 -319l-225 -142l-324 416v90l324 404z" />
    <glyph glyph-name="logicalnot" unicode="&#xac;" horiz-adv-x="1169" 
d="M1071 780v-499h-317v204h-670v295h987z" />
    <glyph glyph-name="softhyphen" unicode="&#xad;" horiz-adv-x="778" 
d="M686 401h-596v250h596v-250z" />
    <glyph glyph-name="registered" unicode="&#xae;" horiz-adv-x="1009" 
d="M506 1442q189 0 322 -133t133 -322q0 -190 -133 -323.5t-322 -133.5q-190 0 -323.5 133t-133.5 324q0 189 133.5 322t323.5 133zM506 647q137 0 236.5 100t99.5 240q0 139 -99.5 238.5t-236.5 99.5q-138 0 -238 -99.5t-100 -238.5q0 -141 100 -240.5t238 -99.5zM745 784
h-184l-22 123q-6 15 -12.5 19t-24.5 4h-25v-146h-174v426q77 7 211 7q113 0 163 -29.5t50 -102.5q0 -88 -100 -98v-4q69 -4 84 -70zM477 1034h31q27 0 35 7t8 26t-7.5 24t-35.5 5h-31v-62z" />
    <glyph glyph-name="macron" unicode="&#xaf;" horiz-adv-x="819" 
d="M737 1208h-655v252h655v-252z" />
    <glyph glyph-name="degree" unicode="&#xb0;" horiz-adv-x="665" 
d="M334 1442q119 0 205 -83t86 -202q0 -120 -85.5 -203.5t-205.5 -83.5q-121 0 -207 83t-86 204q0 119 86 202t207 83zM334 1257q-40 0 -68 -29t-28 -71q0 -43 28 -72.5t68 -29.5q39 0 66.5 30t27.5 72t-27.5 71t-66.5 29z" />
    <glyph glyph-name="plusminus" unicode="&#xb1;" horiz-adv-x="1142" 
d="M1053 952v-315h-324v-219h-313v219h-326v315h326v222h311v-222h326zM90 356h963v-317h-963v317z" />
    <glyph glyph-name="twosuperior" unicode="&#xb2;" horiz-adv-x="882" 
d="M92 1335l-8 240q141 24 328 24q103 0 169 -9.5t116 -35.5t72 -73.5t22 -122.5q0 -42 -35 -99.5t-97 -109.5l-186 -154q66 19 117 17l221 -6v-269h-735v162q0 88 45 131l153 129q139 119 160 152q11 16 -19 19q-12 1 -38 1q-160 0 -285 4z" />
    <glyph glyph-name="threesuperior" unicode="&#xb3;" horiz-adv-x="841" 
d="M94 1356l-8 223q180 25 338 25q191 0 264.5 -42.5t73.5 -156.5q0 -105 -33 -154.5t-131 -60.5v-4q107 -13 146.5 -60t41.5 -153q2 -140 -79.5 -197t-282.5 -57q-164 0 -358 24l8 232q65 -2 256 -2q82 0 101.5 7.5t19.5 39.5q0 31 -14.5 39.5t-69.5 9.5l-179 6v191l179 8
q52 1 64.5 8t12.5 33q0 25 -13 31t-66 6q-127 0 -271 4z" />
    <glyph glyph-name="acute" unicode="&#xb4;" horiz-adv-x="802" 
d="M721 1257l-522 -210l-117 176l477 307z" />
    <glyph glyph-name="paragraph" unicode="&#xb6;" horiz-adv-x="1271" 
d="M524 -430v842q-259 23 -371 141t-112 369q0 283 158 399.5t532 116.5q236 0 393 -35v-1403h-260v1184l-80 2v-1616h-260z" />
    <glyph glyph-name="periodcentered" unicode="&#xb7;" horiz-adv-x="542" 
d="M223 719h96q85 0 116.5 -31.5t31.5 -116.5v-84q0 -85 -31.5 -116t-116.5 -31h-96q-85 0 -116 31t-31 116v84q0 85 31 116.5t116 31.5z" />
    <glyph glyph-name="cedilla" unicode="&#xb8;" horiz-adv-x="538" 
d="M109 -215l38 147q127 15 209 15t119 -34t33 -114q-5 -114 -71.5 -189.5t-172 -102.5t-235.5 -9l45 160q40 0 66 3t53 13t41.5 31.5t17.5 56.5q2 17 -11 20.5t-76 2.5h-56z" />
    <glyph glyph-name="onesuperior" unicode="&#xb9;" horiz-adv-x="657" 
d="M563 737h-327v473q0 71 12 123l-199 -28l-37 200l224 80h327v-848z" />
    <glyph glyph-name="ordmasculine" unicode="&#xba;" horiz-adv-x="890" 
d="M446 1276q215 0 302.5 -83t87.5 -284q0 -198 -87.5 -278t-302.5 -80q-216 0 -303.5 80t-87.5 278q0 201 88 284t303 83zM446 1067q-43 0 -55 -28.5t-12 -129.5q0 -97 12 -124t55 -27q42 0 54 27.5t12 123.5q0 101 -12 129.5t-54 28.5z" />
    <glyph glyph-name="guillemotright" unicode="&#xbb;" horiz-adv-x="1130" 
d="M606 559v-90l-323 -416l-226 142l176 319l-176 307l226 142zM1087 559v-90l-323 -416l-225 142l176 319l-176 307l225 142z" />
    <glyph glyph-name="onequarter" unicode="&#xbc;" horiz-adv-x="1933" 
d="M246 565v473q0 71 12 123l-182 -28l-37 200l207 80h327v-848h-327zM1399 1413l-793 -1413h-258l793 1413h258zM1884 362v-178l-90 -28h-2v-156h-301v156h-352q-59 0 -91 40.5t-10 92.5l211 559h289l-170 -465q-8 -21 21 -21h102v191l51 125h250v-316h92z" />
    <glyph glyph-name="onehalf" unicode="&#xbd;" horiz-adv-x="1931" 
d="M573 565h-327v473q0 71 12 123l-182 -28l-37 200l207 80h327v-848zM606 0h-258l791 1413h260zM1163 598l-8 240q139 24 322 24q102 0 167.5 -9.5t114.5 -35.5t70.5 -73.5t21.5 -122.5q0 -42 -34 -99.5t-95 -109.5l-178 -154q63 18 113 16l213 -6v-268h-723v162
q0 88 45 131l147 129q16 15 43.5 40t41.5 38t31 29t26 26.5t14 17.5q11 17 -19 20q-12 1 -34 1q-156 0 -279 4z" />
    <glyph glyph-name="threequarters" unicode="&#xbe;" horiz-adv-x="2082" 
d="M584 1012v-4q105 -13 143.5 -59.5t40.5 -153.5q2 -140 -78 -197t-276 -57q-163 0 -353 24l9 232q65 -2 249 -2q77 0 95 7.5t18 39.5q0 36 -13 45t-63 8h-174v195h174q47 0 58.5 8t11.5 39q0 25 -11 30t-61 7q-196 4 -264 4l-8 223q169 24 334 24q187 0 257 -42t70 -156
q0 -106 -31.5 -155t-127.5 -60zM1554 1413l-792 -1413h-258l790 1413h260zM2038 362v-178l-90 -28h-2v-156h-301v156h-351q-60 0 -91 40.5t-11 92.5l211 559h289l-170 -465q-4 -12 1 -16.5t21 -4.5h101v191l51 125h250v-316h92z" />
    <glyph glyph-name="questiondown" unicode="&#xbf;" horiz-adv-x="1087" 
d="M532 1061h97q85 0 116 -31.5t31 -116.5v-84q0 -85 -31 -116t-116 -31h-97q-85 0 -116 31t-31 116v84q0 85 31 116.5t116 31.5zM412 596h336q6 -95 -16 -181t-58.5 -146t-74 -108t-68 -87.5t-35.5 -63.5q-9 -38 17 -52.5t97 -14.5h424l10 -283q-19 -4 -66.5 -13.5
t-65.5 -12.5t-59 -10t-69.5 -9.5t-73.5 -6t-95 -4.5t-111 -1q-237 0 -351 77.5t-114 239.5q0 69 25 129.5t62.5 103t83.5 91t87 93.5t73 113t42 146z" />
    <glyph glyph-name="Agrave" unicode="&#xc0;" horiz-adv-x="1398" 
d="M791 1475l-523 211l162 272l477 -307zM893 305h-387l-72 -305h-452l366 1298q13 52 54.5 83.5t95.5 31.5h403q54 0 95.5 -31.5t54.5 -83.5l366 -1298h-452zM821 616l-69 304q-21 105 -25 161h-55q-10 -84 -25 -161l-69 -304h243z" />
    <glyph glyph-name="Aacute" unicode="&#xc1;" horiz-adv-x="1398" 
d="M610 1475l-116 176l477 307l162 -272zM893 305h-387l-72 -305h-452l366 1298q13 52 54.5 83.5t95.5 31.5h403q54 0 95.5 -31.5t54.5 -83.5l366 -1298h-452zM821 616l-69 304q-21 105 -25 161h-55q-10 -84 -25 -161l-69 -304h243z" />
    <glyph glyph-name="Acircumflex" unicode="&#xc2;" horiz-adv-x="1398" 
d="M365 1454l-103 158l287 272h311l277 -289l-99 -141l-325 191h-17zM893 305h-387l-72 -305h-452l366 1298q13 52 54.5 83.5t95.5 31.5h403q54 0 95.5 -31.5t54.5 -83.5l366 -1298h-452zM821 616l-69 304q-21 105 -25 161h-55q-10 -84 -25 -161l-69 -304h243z" />
    <glyph glyph-name="Atilde" unicode="&#xc3;" horiz-adv-x="1398" 
d="M489 1538h-178q-31 170 25.5 261.5t148.5 84.5q81 -6 201.5 -44.5t144.5 -43.5q13 -3 22.5 -2.5t16 1t10.5 7t6.5 10t3.5 16.5t1 20v26h178q31 -165 -21.5 -258.5t-152.5 -87.5q-80 6 -200 44.5t-148 43.5q-41 7 -49.5 -6.5t-8.5 -62.5v-9zM893 305h-387l-72 -305h-452
l366 1298q13 52 54.5 83.5t95.5 31.5h403q54 0 95.5 -31.5t54.5 -83.5l366 -1298h-452zM821 616l-69 304q-21 105 -25 161h-55q-10 -84 -25 -161l-69 -304h243z" />
    <glyph glyph-name="Adieresis" unicode="&#xc4;" horiz-adv-x="1398" 
d="M575 1563h-141q-80 0 -80 79v130q0 79 80 79h141q80 0 80 -79v-130q0 -79 -80 -79zM963 1563h-142q-80 0 -80 79v130q0 79 80 79h142q79 0 79 -79v-130q0 -79 -79 -79zM893 305h-387l-72 -305h-452l366 1298q13 52 54.5 83.5t95.5 31.5h403q54 0 95.5 -31.5t54.5 -83.5
l366 -1298h-452zM821 616l-69 304q-21 105 -25 161h-55q-10 -84 -25 -161l-69 -304h243z" />
    <glyph glyph-name="Aring" unicode="&#xc5;" horiz-adv-x="1398" 
d="M702 1460q-108 0 -186 74.5t-78 181.5q0 105 78 180.5t186 75.5t186.5 -75.5t78.5 -180.5q0 -106 -78.5 -181t-186.5 -75zM702 1808q-37 0 -63.5 -27.5t-26.5 -64.5q0 -38 26.5 -65t63.5 -27t64 27t27 65q0 37 -27 64.5t-64 27.5zM893 305h-387l-72 -305h-452l366 1298
q13 52 54.5 83.5t95.5 31.5h403q54 0 95.5 -31.5t54.5 -83.5l366 -1298h-452zM821 616l-69 304q-21 105 -25 161h-55q-10 -84 -25 -161l-69 -304h243z" />
    <glyph glyph-name="AE" unicode="&#xc6;" horiz-adv-x="1953" 
d="M1876 326l20 -308q-99 -13 -234.5 -19t-215.5 -6.5t-248 -0.5q-138 0 -218.5 88.5t-80.5 232.5v17h-348l-137 -330h-453l494 1094q41 91 88.5 148t129 98.5t203.5 59t304 17.5q181 0 258 -0.5t209.5 -5.5t248.5 -16l-20 -308h-483q-35 0 -57.5 -20.5t-22.5 -52.5v-154
h493v-274h-493v-187q0 -33 22 -53t58 -20h483zM899 633v387q0 63 31 127h-29q-14 -20 -47 -90l-176 -424h221z" />
    <glyph glyph-name="Ccedilla" unicode="&#xc7;" horiz-adv-x="1239" 
d="M1169 367l33 -324q-108 -37 -219.5 -52.5t-275.5 -15.5q-179 0 -298.5 38t-197.5 126t-111.5 225.5t-33.5 342.5q0 272 63.5 430.5t201.5 229.5t376 71q158 0 255 -12.5t209 -43.5l-32 -323q-286 4 -432 4q-72 0 -108 -30t-51.5 -104.5t-15.5 -221.5t15.5 -221.5
t51.5 -105t108 -30.5q296 0 462 17zM483 -281l39 148q127 15 209 15t119 -34t33 -114q-5 -114 -72 -189.5t-172.5 -102.5t-235.5 -9l46 159q31 0 52.5 1.5t46 8t39.5 17t26.5 30.5t13.5 48q2 17 -10 20t-72 2h-62z" />
    <glyph glyph-name="Egrave" unicode="&#xc8;" horiz-adv-x="1220" 
d="M750 1475l-523 211l162 272l477 -307zM1143 332l20 -314q-95 -12 -239 -18.5t-230.5 -7t-265.5 -0.5q-147 0 -239.5 89.5t-92.5 231.5v787q0 142 92.5 231.5t239.5 89.5q179 0 265.5 -0.5t230.5 -7t239 -18.5l-20 -314h-518q-38 0 -61 -20.5t-23 -52.5v-138h528v-295
h-528v-169q0 -33 23 -53.5t61 -20.5h518z" />
    <glyph glyph-name="Eacute" unicode="&#xc9;" horiz-adv-x="1220" 
d="M569 1475l-116 176l477 307l162 -272zM1143 332l20 -314q-95 -12 -239 -18.5t-230.5 -7t-265.5 -0.5q-147 0 -239.5 89.5t-92.5 231.5v787q0 142 92.5 231.5t239.5 89.5q179 0 265.5 -0.5t230.5 -7t239 -18.5l-20 -314h-518q-38 0 -61 -20.5t-23 -52.5v-138h528v-295
h-528v-169q0 -33 23 -53.5t61 -20.5h518z" />
    <glyph glyph-name="Ecircumflex" unicode="&#xca;" horiz-adv-x="1220" 
d="M324 1454l-103 158l287 272h311l277 -289l-99 -141l-325 191h-17zM1143 332l20 -314q-95 -12 -239 -18.5t-230.5 -7t-265.5 -0.5q-147 0 -239.5 89.5t-92.5 231.5v787q0 142 92.5 231.5t239.5 89.5q179 0 265.5 -0.5t230.5 -7t239 -18.5l-20 -314h-518q-38 0 -61 -20.5
t-23 -52.5v-138h528v-295h-528v-169q0 -33 23 -53.5t61 -20.5h518z" />
    <glyph glyph-name="Edieresis" unicode="&#xcb;" horiz-adv-x="1220" 
d="M535 1563h-142q-80 0 -80 79v130q0 79 80 79h142q79 0 79 -79v-130q0 -79 -79 -79zM922 1563h-142q-80 0 -80 79v130q0 79 80 79h142q79 0 79 -79v-130q0 -79 -79 -79zM1143 332l20 -314q-95 -12 -239 -18.5t-230.5 -7t-265.5 -0.5q-147 0 -239.5 89.5t-92.5 231.5v787
q0 142 92.5 231.5t239.5 89.5q179 0 265.5 -0.5t230.5 -7t239 -18.5l-20 -314h-518q-38 0 -61 -20.5t-23 -52.5v-138h528v-295h-528v-169q0 -33 23 -53.5t61 -20.5h518z" />
    <glyph glyph-name="Igrave" unicode="&#xcc;" horiz-adv-x="657" 
d="M535 1651l-117 -176l-522 211l161 272zM549 0h-440v1413h440v-1413z" />
    <glyph glyph-name="Iacute" unicode="&#xcd;" horiz-adv-x="657" 
d="M760 1686l-522 -211l-117 176l477 307zM549 0h-440v1413h440v-1413z" />
    <glyph glyph-name="Icircumflex" unicode="&#xce;" horiz-adv-x="657" 
d="M764 1595l-98 -141l-326 191h-16l-332 -191l-103 158l287 272h311zM549 0h-440v1413h440v-1413z" />
    <glyph glyph-name="Idieresis" unicode="&#xcf;" horiz-adv-x="657" 
d="M61 1851h142q80 0 80 -79v-130q0 -79 -80 -79h-142q-79 0 -79 79v130q0 79 79 79zM449 1851h141q80 0 80 -79v-130q0 -79 -80 -79h-141q-80 0 -80 79v130q0 79 80 79zM549 0h-440v1413h440v-1413z" />
    <glyph glyph-name="Eth" unicode="&#xd0;" horiz-adv-x="1435" 
d="M106 838v575q378 21 605 21q125 0 217.5 -14t168.5 -47.5t126 -87t83.5 -135.5t48.5 -190t15 -253t-15 -253t-48.5 -190t-83.5 -135.5t-126 -87t-168.5 -47.5t-217.5 -14q-308 0 -605 20v625h-92v213h92zM551 303l160 -2q78 0 117.5 34t56 119t16.5 253q0 102 -5.5 169
t-17.5 115t-35 73.5t-54 36.5t-78 11h-160v-274h203v-213h-203v-322z" />
    <glyph glyph-name="Ntilde" unicode="&#xd1;" horiz-adv-x="1511" 
d="M559 1538h-178q-31 170 25.5 261.5t148.5 84.5q81 -6 201.5 -44.5t144.5 -43.5q13 -3 22.5 -2.5t16 1t10.5 7t6.5 10t3.5 16.5t1 20v26h178q31 -165 -21.5 -258.5t-152.5 -87.5q-80 6 -200.5 44.5t-148.5 43.5q-12 2 -21 2t-15.5 -0.5t-10 -6t-6 -8.5t-3.5 -14t-1 -17
v-23v-11zM1407 1413v-1259q0 -75 -39.5 -114.5t-114.5 -39.5h-170q-64 0 -98 29t-74 100l-307 485q-49 89 -94 242h-14q20 -143 20 -258v-598h-410v1260q0 75 39.5 114t114.5 39h170q64 0 97 -28.5t75 -100.5l295 -463q57 -100 109 -241h14q-19 162 -21 256v577h408z" />
    <glyph glyph-name="Ograve" unicode="&#xd2;" horiz-adv-x="1447" 
d="M928 1651l-117 -176l-522 211l162 272zM723 1442q151 0 255.5 -21t185 -70t127 -134.5t69 -209t22.5 -300.5q0 -147 -15 -256.5t-48.5 -192.5t-83.5 -137.5t-126 -88t-168.5 -47.5t-217.5 -14q-150 0 -254.5 21t-184.5 70t-126.5 135t-69 209.5t-22.5 300.5t22.5 300.5
t69 209t126.5 134.5t184.5 70t254.5 21zM723 1112q-79 0 -118.5 -34t-56 -118.5t-16.5 -252.5t16.5 -253t56.5 -119t118 -34t117.5 34t56 119t16.5 253q0 102 -5.5 169t-17.5 115t-35 73.5t-54 36.5t-78 11z" />
    <glyph glyph-name="Oacute" unicode="&#xd3;" horiz-adv-x="1447" 
d="M1153 1686l-522 -211l-117 176l477 307zM723 1442q151 0 255.5 -21t185 -70t127 -134.5t69 -209t22.5 -300.5q0 -147 -15 -256.5t-48.5 -192.5t-83.5 -137.5t-126 -88t-168.5 -47.5t-217.5 -14q-150 0 -254.5 21t-184.5 70t-126.5 135t-69 209.5t-22.5 300.5t22.5 300.5
t69 209t126.5 134.5t184.5 70t254.5 21zM723 1112q-79 0 -118.5 -34t-56 -118.5t-16.5 -252.5t16.5 -253t56.5 -119t118 -34t117.5 34t56 119t16.5 253q0 102 -5.5 169t-17.5 115t-35 73.5t-54 36.5t-78 11z" />
    <glyph glyph-name="Ocircumflex" unicode="&#xd4;" horiz-adv-x="1447" 
d="M1157 1595l-98 -141l-326 191h-16l-332 -191l-102 158l286 272h312zM723 1442q151 0 255.5 -21t185 -70t127 -134.5t69 -209t22.5 -300.5q0 -147 -15 -256.5t-48.5 -192.5t-83.5 -137.5t-126 -88t-168.5 -47.5t-217.5 -14q-150 0 -254.5 21t-184.5 70t-126.5 135
t-69 209.5t-22.5 300.5t22.5 300.5t69 209t126.5 134.5t184.5 70t254.5 21zM723 1112q-79 0 -118.5 -34t-56 -118.5t-16.5 -252.5t16.5 -253t56.5 -119t118 -34t117.5 34t56 119t16.5 253q0 102 -5.5 169t-17.5 115t-35 73.5t-54 36.5t-78 11z" />
    <glyph glyph-name="Otilde" unicode="&#xd5;" horiz-adv-x="1447" 
d="M510 1538h-178q-31 170 25.5 261.5t148.5 84.5q81 -6 201.5 -44.5t144.5 -43.5q41 -8 50 6t9 66v6h179q31 -165 -22 -258.5t-153 -87.5q-80 6 -200 44.5t-148 43.5q-12 2 -21 2t-15.5 -0.5t-10 -6t-6 -8.5t-3.5 -14t-1 -17v-23v-11zM723 1442q151 0 255.5 -21t185 -70
t127 -134.5t69 -209t22.5 -300.5q0 -147 -15 -256.5t-48.5 -192.5t-83.5 -137.5t-126 -88t-168.5 -47.5t-217.5 -14q-150 0 -254.5 21t-184.5 70t-126.5 135t-69 209.5t-22.5 300.5t22.5 300.5t69 209t126.5 134.5t184.5 70t254.5 21zM723 1112q-79 0 -118.5 -34t-56 -118.5
t-16.5 -252.5t16.5 -253t56.5 -119t118 -34t117.5 34t56 119t16.5 253q0 102 -5.5 169t-17.5 115t-35 73.5t-54 36.5t-78 11z" />
    <glyph glyph-name="Odieresis" unicode="&#xd6;" horiz-adv-x="1447" 
d="M455 1851h141q80 0 80 -79v-130q0 -79 -80 -79h-141q-80 0 -80 79v130q0 79 80 79zM842 1851h141q80 0 80 -79v-130q0 -79 -80 -79h-141q-80 0 -80 79v130q0 79 80 79zM723 1442q151 0 255.5 -21t185 -70t127 -134.5t69 -209t22.5 -300.5q0 -147 -15 -256.5t-48.5 -192.5
t-83.5 -137.5t-126 -88t-168.5 -47.5t-217.5 -14q-150 0 -254.5 21t-184.5 70t-126.5 135t-69 209.5t-22.5 300.5t22.5 300.5t69 209t126.5 134.5t184.5 70t254.5 21zM723 1112q-79 0 -118.5 -34t-56 -118.5t-16.5 -252.5t16.5 -253t56.5 -119t118 -34t117.5 34t56 119
t16.5 253q0 102 -5.5 169t-17.5 115t-35 73.5t-54 36.5t-78 11z" />
    <glyph glyph-name="multiply" unicode="&#xd7;" horiz-adv-x="1036" 
d="M39 379l197 -236l765 676l-198 238z" />
    <glyph glyph-name="Oslash" unicode="&#xd8;" horiz-adv-x="1447" 
d="M1294 1495l-82 -180q90 -81 130 -226.5t40 -381.5q0 -147 -15 -256.5t-48.5 -192.5t-83.5 -137.5t-126 -88t-168.5 -47.5t-217.5 -14q-75 0 -143 6l-103 -219l-330 158l89 184q-90 79 -130 225t-40 382q0 177 22.5 300.5t69 209t126.5 134.5t184.5 70t254.5 21
q75 0 143 -6l99 215zM723 301q78 0 117.5 34t56 119t16.5 253q0 102 -5.5 169t-17.5 115t-35 73.5t-54 36.5t-78 11q-79 0 -118.5 -34t-56 -118.5t-16.5 -252.5t16.5 -253t56.5 -119t118 -34z" />
    <glyph glyph-name="Ugrave" unicode="&#xd9;" horiz-adv-x="1443" 
d="M928 1651l-117 -176l-522 211l162 272zM1348 1413v-829q0 -338 -135.5 -475.5t-467.5 -137.5q-242 0 -382 60t-203.5 192.5t-63.5 360.5v829h445v-829q0 -169 37 -226t145 -57q73 0 110.5 24t53.5 83.5t16 175.5v829h445z" />
    <glyph glyph-name="Uacute" unicode="&#xda;" horiz-adv-x="1443" 
d="M1153 1686l-522 -211l-117 176l477 307zM1348 1413v-829q0 -338 -135.5 -475.5t-467.5 -137.5q-242 0 -382 60t-203.5 192.5t-63.5 360.5v829h445v-829q0 -169 37 -226t145 -57q73 0 110.5 24t53.5 83.5t16 175.5v829h445z" />
    <glyph glyph-name="Ucircumflex" unicode="&#xdb;" horiz-adv-x="1443" 
d="M1157 1595l-98 -141l-326 191h-16l-332 -191l-102 158l286 272h312zM1348 1413v-829q0 -338 -135.5 -475.5t-467.5 -137.5q-242 0 -382 60t-203.5 192.5t-63.5 360.5v829h445v-829q0 -169 37 -226t145 -57q73 0 110.5 24t53.5 83.5t16 175.5v829h445z" />
    <glyph glyph-name="Udieresis" unicode="&#xdc;" horiz-adv-x="1443" 
d="M455 1851h141q80 0 80 -79v-130q0 -79 -80 -79h-141q-80 0 -80 79v130q0 79 80 79zM842 1851h141q80 0 80 -79v-130q0 -79 -80 -79h-141q-80 0 -80 79v130q0 79 80 79zM1348 1413v-829q0 -338 -135.5 -475.5t-467.5 -137.5q-242 0 -382 60t-203.5 192.5t-63.5 360.5v829
h445v-829q0 -169 37 -226t145 -57q73 0 110.5 24t53.5 83.5t16 175.5v829h445z" />
    <glyph glyph-name="Yacute" unicode="&#xdd;" horiz-adv-x="1339" 
d="M578 1475l-117 176l477 307l162 -272zM893 440v-440h-444v436l-469 977h456l178 -444q7 -17 13 -36.5t10.5 -43t7 -38.5t7 -43.5t5.5 -37.5h27q24 150 43 201l176 442h457z" />
    <glyph glyph-name="Thorn" unicode="&#xde;" horiz-adv-x="1296" 
d="M553 1184h137q135 0 228 -14.5t162 -46.5t107.5 -89t56.5 -136.5t18 -195.5q0 -142 -26 -232.5t-88.5 -145.5t-156 -77t-239.5 -22q-78 0 -199 11v-236h-444v1413h444v-229zM553 539h127q83 0 110 32.5t27 130.5q0 101 -27 134.5t-110 33.5h-127v-331z" />
    <glyph glyph-name="germandbls" unicode="&#xdf;" horiz-adv-x="1511" 
d="M1225 653l106 -86q105 -91 136.5 -139t31.5 -139q0 -77 -19.5 -132t-66.5 -97t-130.5 -62.5t-205.5 -20.5q-114 0 -370 23l26 262h240h9q54 0 67.5 6t13.5 35q0 13 -8 27t-25.5 31.5t-34 32t-46 38.5t-48.5 41l-61 41q-72 59 -107 114t-35 130q0 32 10.5 60.5t22.5 46.5
t42 57.5t50 68.5q42 63 56 92t14 64q0 53 -25.5 69.5t-109.5 16.5q-90 0 -117 -23.5t-27 -101.5v-1108h-430v766h-168v248l168 10v135q0 200 127.5 280.5t442.5 80.5q132 0 223.5 -13t152 -37.5t94.5 -67.5t47 -96t13 -130q0 -64 -18 -109.5t-76 -122.5q-29 -37 -42.5 -55.5
t-28.5 -48t-15 -49.5q0 -13 6 -25.5t20 -28t25 -25t35 -30t35 -29.5z" />
    <glyph glyph-name="agrave" unicode="&#xe0;" 
d="M709 1090l-523 210l162 273l477 -307zM137 729l-39 272q115 21 290 36.5t294 15.5q112 0 192.5 -20.5t139.5 -68.5t87.5 -129.5t28.5 -199.5v-635h-342l-38 143q-137 -172 -355 -172q-97 0 -175.5 31.5t-127.5 99t-49 160.5v103q0 123 90.5 193.5t247.5 70.5h319v8
q-2 55 -28 78.5t-92 23.5q-225 0 -443 -10zM461 358v-32q0 -29 22.5 -46.5t63.5 -17.5q69 0 153 51v109h-161q-37 0 -57.5 -17.5t-20.5 -46.5z" />
    <glyph glyph-name="aacute" unicode="&#xe1;" 
d="M528 1090l-116 176l477 307l162 -273zM137 729l-39 272q115 21 290 36.5t294 15.5q112 0 192.5 -20.5t139.5 -68.5t87.5 -129.5t28.5 -199.5v-635h-342l-38 143q-137 -172 -355 -172q-97 0 -175.5 31.5t-127.5 99t-49 160.5v103q0 123 90.5 193.5t247.5 70.5h319v8
q-2 55 -28 78.5t-92 23.5q-225 0 -443 -10zM461 358v-32q0 -29 22.5 -46.5t63.5 -17.5q69 0 153 51v109h-161q-37 0 -57.5 -17.5t-20.5 -46.5z" />
    <glyph glyph-name="acircumflex" unicode="&#xe2;" 
d="M283 1069l-103 158l287 272h311l277 -289l-99 -141l-325 191h-17zM137 729l-39 272q115 21 290 36.5t294 15.5q112 0 192.5 -20.5t139.5 -68.5t87.5 -129.5t28.5 -199.5v-635h-342l-38 143q-137 -172 -355 -172q-97 0 -175.5 31.5t-127.5 99t-49 160.5v103
q0 123 90.5 193.5t247.5 70.5h319v8q-2 55 -28 78.5t-92 23.5q-225 0 -443 -10zM461 358v-32q0 -29 22.5 -46.5t63.5 -17.5q69 0 153 51v109h-161q-37 0 -57.5 -17.5t-20.5 -46.5z" />
    <glyph glyph-name="atilde" unicode="&#xe3;" 
d="M408 1153h-179q-31 170 25.5 261.5t148.5 84.5q81 -6 202 -44.5t145 -43.5q41 -8 50 6t9 66v6h178q31 -165 -21.5 -258.5t-152.5 -87.5q-80 6 -200 44.5t-148 43.5q-12 2 -21 2t-15.5 -0.5t-10 -6t-6 -8.5t-3.5 -14t-1 -17v-23v-11zM137 729l-39 272q115 21 290 36.5
t294 15.5q112 0 192.5 -20.5t139.5 -68.5t87.5 -129.5t28.5 -199.5v-635h-342l-38 143q-137 -172 -355 -172q-97 0 -175.5 31.5t-127.5 99t-49 160.5v103q0 123 90.5 193.5t247.5 70.5h319v8q-2 55 -28 78.5t-92 23.5q-225 0 -443 -10zM461 358v-32q0 -29 22.5 -46.5
t63.5 -17.5q69 0 153 51v109h-161q-37 0 -57.5 -17.5t-20.5 -46.5z" />
    <glyph glyph-name="adieresis" unicode="&#xe4;" 
d="M494 1178h-142q-80 0 -80 79v129q0 80 80 80h142q79 0 79 -80v-129q0 -79 -79 -79zM881 1178h-142q-80 0 -80 79v129q0 80 80 80h142q80 0 80 -80v-129q0 -79 -80 -79zM137 729l-39 272q115 21 290 36.5t294 15.5q112 0 192.5 -20.5t139.5 -68.5t87.5 -129.5t28.5 -199.5
v-635h-342l-38 143q-137 -172 -355 -172q-97 0 -175.5 31.5t-127.5 99t-49 160.5v103q0 123 90.5 193.5t247.5 70.5h319v8q-2 55 -28 78.5t-92 23.5q-225 0 -443 -10zM461 358v-32q0 -29 22.5 -46.5t63.5 -17.5q69 0 153 51v109h-161q-37 0 -57.5 -17.5t-20.5 -46.5z" />
    <glyph glyph-name="aring" unicode="&#xe5;" 
d="M621 1075q-108 0 -186.5 75t-78.5 181q0 105 78.5 180.5t186.5 75.5t186 -75.5t78 -180.5q0 -107 -78 -181.5t-186 -74.5zM621 1423q-37 0 -64 -27.5t-27 -64.5q0 -38 27 -65t64 -27t63.5 27t26.5 65q0 37 -26.5 64.5t-63.5 27.5zM137 729l-39 272q115 21 290 36.5
t294 15.5q112 0 192.5 -20.5t139.5 -68.5t87.5 -129.5t28.5 -199.5v-635h-342l-38 143q-137 -172 -355 -172q-97 0 -175.5 31.5t-127.5 99t-49 160.5v103q0 123 90.5 193.5t247.5 70.5h319v8q-2 55 -28 78.5t-92 23.5q-225 0 -443 -10zM461 358v-32q0 -29 22.5 -46.5
t63.5 -17.5q69 0 153 51v109h-161q-37 0 -57.5 -17.5t-20.5 -46.5z" />
    <glyph glyph-name="ae" unicode="&#xe6;" horiz-adv-x="1814" 
d="M1376 418h-258q14 -63 53 -88t127 -25q184 0 406 23l39 -258q-184 -95 -492 -95q-352 0 -483 181q-140 -185 -381 -185q-147 0 -245.5 76t-98.5 215v103q0 119 89 188.5t241 69.5h305v14q0 55 -25 78.5t-86 23.5q-219 0 -432 -10l-39 272q112 21 284.5 36.5t289.5 15.5
q162 0 262 -47q117 47 317 47q187 0 303.5 -42t167.5 -121t52 -202q2 -145 -86 -207.5t-310 -62.5zM1112 621h143q69 0 87 12.5t18 64.5q0 48 -21.5 63t-76.5 15q-87 2 -116.5 -26t-33.5 -129zM461 358v-32q0 -29 20.5 -46.5t59.5 -17.5q70 0 155 55q-12 65 -14 105h-147
q-36 0 -55 -17.5t-19 -46.5z" />
    <glyph glyph-name="ccedilla" unicode="&#xe7;" horiz-adv-x="1081" 
d="M1006 330l38 -269q-165 -86 -446 -86q-300 0 -422.5 121t-122.5 418q0 296 123.5 417.5t425.5 121.5q270 0 428 -76l-43 -266h-311q-100 0 -136 -40t-36 -157q0 -118 36 -158.5t136 -40.5q192 0 330 15zM387 -250l39 148q127 15 208.5 14.5t118.5 -34.5t33 -114
q-5 -114 -71.5 -189.5t-172 -102.5t-235.5 -9l45 160q31 0 52.5 1.5t46 8t39.5 17t26.5 30.5t13.5 48q2 17 -10 20t-71 2h-62z" />
    <glyph glyph-name="egrave" unicode="&#xe8;" 
d="M727 1090l-522 210l162 273l477 -307zM768 418h-256q12 -63 50 -88t120 -25q191 0 416 23l39 -258q-186 -95 -502 -95q-313 0 -448.5 130t-135.5 399q0 302 131.5 425.5t450.5 123.5q190 0 308.5 -42t170.5 -121t53 -202q2 -145 -86.5 -207.5t-310.5 -62.5zM504 621h143
q70 0 88.5 12.5t18.5 64.5q0 48 -23.5 63t-85.5 15q-81 2 -109 -26t-32 -129z" />
    <glyph glyph-name="eacute" unicode="&#xe9;" 
d="M547 1090l-117 176l477 307l162 -273zM768 418h-256q12 -63 50 -88t120 -25q191 0 416 23l39 -258q-186 -95 -502 -95q-313 0 -448.5 130t-135.5 399q0 302 131.5 425.5t450.5 123.5q190 0 308.5 -42t170.5 -121t53 -202q2 -145 -86.5 -207.5t-310.5 -62.5zM504 621h143
q70 0 88.5 12.5t18.5 64.5q0 48 -23.5 63t-85.5 15q-81 2 -109 -26t-32 -129z" />
    <glyph glyph-name="ecircumflex" unicode="&#xea;" 
d="M301 1069l-102 158l286 272h312l276 -289l-98 -141l-326 191h-16zM768 418h-256q12 -63 50 -88t120 -25q191 0 416 23l39 -258q-186 -95 -502 -95q-313 0 -448.5 130t-135.5 399q0 302 131.5 425.5t450.5 123.5q190 0 308.5 -42t170.5 -121t53 -202q2 -145 -86.5 -207.5
t-310.5 -62.5zM504 621h143q70 0 88.5 12.5t18.5 64.5q0 48 -23.5 63t-85.5 15q-81 2 -109 -26t-32 -129z" />
    <glyph glyph-name="edieresis" unicode="&#xeb;" 
d="M512 1178h-141q-80 0 -80 79v129q0 80 80 80h141q80 0 80 -80v-129q0 -79 -80 -79zM899 1178h-141q-80 0 -80 79v129q0 80 80 80h141q80 0 80 -80v-129q0 -79 -80 -79zM768 418h-256q12 -63 50 -88t120 -25q191 0 416 23l39 -258q-186 -95 -502 -95q-313 0 -448.5 130
t-135.5 399q0 302 131.5 425.5t450.5 123.5q190 0 308.5 -42t170.5 -121t53 -202q2 -145 -86.5 -207.5t-310.5 -62.5zM504 621h143q70 0 88.5 12.5t18.5 64.5q0 48 -23.5 63t-85.5 15q-81 2 -109 -26t-32 -129z" />
    <glyph glyph-name="igrave" unicode="&#xec;" horiz-adv-x="624" 
d="M518 1266l-117 -176l-522 210l162 273zM528 0h-432v1024h432v-1024z" />
    <glyph glyph-name="iacute" unicode="&#xed;" horiz-adv-x="624" 
d="M743 1300l-522 -210l-117 176l478 307zM528 0h-432v1024h432v-1024z" />
    <glyph glyph-name="icircumflex" unicode="&#xee;" horiz-adv-x="624" 
d="M748 1210l-99 -141l-325 191h-17l-332 -191l-102 158l287 272h311zM528 0h-432v1024h432v-1024z" />
    <glyph glyph-name="idieresis" unicode="&#xef;" horiz-adv-x="624" 
d="M45 1466h141q80 0 80 -80v-129q0 -79 -80 -79h-141q-80 0 -80 79v129q0 80 80 80zM432 1466h141q80 0 80 -80v-129q0 -79 -80 -79h-141q-80 0 -80 79v129q0 80 80 80zM528 0h-432v1024h432v-1024z" />
    <glyph glyph-name="eth" unicode="&#xf0;" horiz-adv-x="1236" 
d="M1143 1313l-137 -137q174 -219 174 -580q0 -177 -33.5 -297t-106 -193t-177 -104t-255.5 -31q-284 0 -418.5 114t-134.5 353q0 257 106 373.5t355 116.5q108 0 193 -25q-30 156 -129 216.5t-316 43.5l35 267q246 17 432 -56l168 170zM612 266q32 0 51.5 8.5t33.5 27
t20.5 59t9 93t2.5 140.5v37q-53 6 -111 6q-33 0 -50.5 -5t-33.5 -23.5t-22 -57.5t-6 -105q0 -110 20.5 -145t85.5 -35z" />
    <glyph glyph-name="ntilde" unicode="&#xf1;" horiz-adv-x="1271" 
d="M442 1153h-178q-31 170 25.5 261.5t148.5 84.5q81 -6 201.5 -44.5t144.5 -43.5q13 -3 22.5 -2.5t16 1t10.5 7t6.5 10t3.5 16.5t1 20v26h178q31 -165 -21.5 -258.5t-152.5 -87.5q-80 6 -200 44.5t-148 43.5q-41 7 -49.5 -6.5t-8.5 -62.5v-9zM426 1024l39 -152
q97 90 206.5 135.5t215.5 45.5q149 0 226 -73t77 -214v-766h-430v629q0 33 -17 47t-57 14q-89 0 -168 -24v-666h-430v1024h338z" />
    <glyph glyph-name="ograve" unicode="&#xf2;" horiz-adv-x="1251" 
d="M838 1266l-117 -176l-522 210l161 273zM627 1053q314 0 442.5 -122t128.5 -421q0 -294 -128.5 -414.5t-442.5 -120.5q-315 0 -444.5 120.5t-129.5 414.5q0 299 129.5 421t444.5 122zM627 762q-52 0 -77 -20t-35.5 -72t-10.5 -160q0 -105 10.5 -155.5t35.5 -69.5t77 -19
q51 0 75.5 19t35 69.5t10.5 155.5q0 108 -10.5 160.5t-35 72t-75.5 19.5z" />
    <glyph glyph-name="oacute" unicode="&#xf3;" horiz-adv-x="1251" 
d="M1063 1300l-522 -210l-117 176l477 307zM627 1053q314 0 442.5 -122t128.5 -421q0 -294 -128.5 -414.5t-442.5 -120.5q-315 0 -444.5 120.5t-129.5 414.5q0 299 129.5 421t444.5 122zM627 762q-52 0 -77 -20t-35.5 -72t-10.5 -160q0 -105 10.5 -155.5t35.5 -69.5t77 -19
q51 0 75.5 19t35 69.5t10.5 155.5q0 108 -10.5 160.5t-35 72t-75.5 19.5z" />
    <glyph glyph-name="ocircumflex" unicode="&#xf4;" horiz-adv-x="1251" 
d="M1067 1210l-98 -141l-326 191h-16l-332 -191l-102 158l286 272h312zM627 1053q314 0 442.5 -122t128.5 -421q0 -294 -128.5 -414.5t-442.5 -120.5q-315 0 -444.5 120.5t-129.5 414.5q0 299 129.5 421t444.5 122zM627 762q-52 0 -77 -20t-35.5 -72t-10.5 -160
q0 -105 10.5 -155.5t35.5 -69.5t77 -19q51 0 75.5 19t35 69.5t10.5 155.5q0 108 -10.5 160.5t-35 72t-75.5 19.5z" />
    <glyph glyph-name="otilde" unicode="&#xf5;" horiz-adv-x="1251" 
d="M420 1153h-178q-31 170 25.5 261.5t148.5 84.5q81 -6 201.5 -44.5t144.5 -43.5q41 -8 50 6t9 66v6h178q31 -165 -21.5 -258.5t-152.5 -87.5q-80 6 -200 44.5t-148 43.5q-12 2 -21 2t-15.5 -0.5t-10 -6t-6 -8.5t-3.5 -14t-1 -17v-23v-11zM627 1053q314 0 442.5 -122
t128.5 -421q0 -294 -128.5 -414.5t-442.5 -120.5q-315 0 -444.5 120.5t-129.5 414.5q0 299 129.5 421t444.5 122zM627 762q-52 0 -77 -20t-35.5 -72t-10.5 -160q0 -105 10.5 -155.5t35.5 -69.5t77 -19q51 0 75.5 19t35 69.5t10.5 155.5q0 108 -10.5 160.5t-35 72t-75.5 19.5
z" />
    <glyph glyph-name="odieresis" unicode="&#xf6;" horiz-adv-x="1251" 
d="M365 1466h141q80 0 80 -80v-129q0 -79 -80 -79h-141q-80 0 -80 79v129q0 80 80 80zM752 1466h141q80 0 80 -80v-129q0 -79 -80 -79h-141q-80 0 -80 79v129q0 80 80 80zM627 1053q314 0 442.5 -122t128.5 -421q0 -294 -128.5 -414.5t-442.5 -120.5q-315 0 -444.5 120.5
t-129.5 414.5q0 299 129.5 421t444.5 122zM627 762q-52 0 -77 -20t-35.5 -72t-10.5 -160q0 -105 10.5 -155.5t35.5 -69.5t77 -19q51 0 75.5 19t35 69.5t10.5 155.5q0 108 -10.5 160.5t-35 72t-75.5 19.5z" />
    <glyph glyph-name="divide" unicode="&#xf7;" horiz-adv-x="1095" 
d="M496 1182h102q90 0 124 -34t34 -124v-37q0 -90 -34 -124t-124 -34h-102q-91 0 -124.5 33.5t-33.5 124.5v37q0 91 33.5 124.5t124.5 33.5zM1040 449h-985v299h985v-299zM496 360h102q90 0 124 -33.5t34 -123.5v-37q0 -89 -34.5 -123.5t-123.5 -34.5h-102q-90 0 -124 34
t-34 124v37q0 91 33.5 124t124.5 33z" />
    <glyph glyph-name="oslash" unicode="&#xf8;" horiz-adv-x="1251" 
d="M1085 1108l-67 -137q94 -61 137 -172.5t43 -288.5q0 -294 -128.5 -414.5t-442.5 -120.5q-59 0 -86 2l-92 -190l-287 145l63 129q-91 61 -131.5 169.5t-40.5 279.5q0 299 129.5 421t444.5 122l73 -2l99 204zM627 266q51 0 75.5 19t35 69.5t10.5 155.5q0 108 -10.5 160.5
t-35 72t-75.5 19.5q-52 0 -77 -20t-35.5 -72t-10.5 -160q0 -105 10.5 -155.5t35.5 -69.5t77 -19z" />
    <glyph glyph-name="ugrave" unicode="&#xf9;" horiz-adv-x="1259" 
d="M721 1112l-522 211l161 272l478 -307zM1171 1024v-1024h-337l-39 150q-101 -92 -200 -135.5t-210 -43.5q-150 0 -226.5 73t-76.5 214v766h430v-629q0 -34 18 -48.5t58 -14.5q72 0 151 24v668h432z" />
    <glyph glyph-name="uacute" unicode="&#xfa;" horiz-adv-x="1259" 
d="M541 1112l-117 176l477 307l162 -272zM1171 1024v-1024h-337l-39 150q-101 -92 -200 -135.5t-210 -43.5q-150 0 -226.5 73t-76.5 214v766h430v-629q0 -34 18 -48.5t58 -14.5q72 0 151 24v668h432z" />
    <glyph glyph-name="ucircumflex" unicode="&#xfb;" horiz-adv-x="1259" 
d="M295 1092l-102 157l286 273h312l276 -289l-98 -141l-326 190h-16zM1171 1024v-1024h-337l-39 150q-101 -92 -200 -135.5t-210 -43.5q-150 0 -226.5 73t-76.5 214v766h430v-629q0 -34 18 -48.5t58 -14.5q72 0 151 24v668h432z" />
    <glyph glyph-name="udieresis" unicode="&#xfc;" horiz-adv-x="1259" 
d="M506 1200h-141q-80 0 -80 80v129q0 80 80 80h141q80 0 80 -80v-129q0 -80 -80 -80zM893 1200h-141q-80 0 -80 80v129q0 80 80 80h141q80 0 80 -80v-129q0 -80 -80 -80zM1171 1024v-1024h-337l-39 150q-101 -92 -200 -135.5t-210 -43.5q-150 0 -226.5 73t-76.5 214v766
h430v-629q0 -34 18 -48.5t58 -14.5q72 0 151 24v668h432z" />
    <glyph glyph-name="yacute" unicode="&#xfd;" horiz-adv-x="1232" 
d="M532 1090l-116 176l477 307l162 -273zM1237 1024l-326 -995q-14 -45 -32.5 -87t-44 -88t-58.5 -84.5t-73 -74.5t-90.5 -60.5t-107.5 -39.5t-128 -14.5t-148 16.5l-28 231q121 26 191 64.5t110 107.5h-70q-49 0 -85 27t-50 73l-303 924h457l120 -565q12 -78 27 -193h18
q16 58 43 193l121 565h457z" />
    <glyph glyph-name="thorn" unicode="&#xfe;" horiz-adv-x="1269" 
d="M518 1434v-205q2 -90 -12 -293q116 113 334 113q196 0 284 -139t88 -410q0 -156 -24 -260t-75 -163t-119.5 -82.5t-168.5 -23.5q-197 0 -315 84q11 -127 8 -221v-203h-430v1803h430zM518 705v-426q71 -27 133 -27q47 0 70 15t36 68t13 161q0 66 -4.5 110t-12 71
t-22.5 40.5t-31 17.5t-43 4q-31 0 -58 -5.5t-41 -11t-40 -17.5z" />
    <glyph glyph-name="ydieresis" unicode="&#xff;" horiz-adv-x="1232" 
d="M498 1178h-142q-80 0 -80 79v129q0 80 80 80h142q80 0 80 -80v-129q0 -79 -80 -79zM885 1178h-142q-79 0 -79 79v129q0 80 79 80h142q80 0 80 -80v-129q0 -79 -80 -79zM1237 1024l-326 -995q-14 -45 -32.5 -87t-44 -88t-58.5 -84.5t-73 -74.5t-90.5 -60.5t-107.5 -39.5
t-128 -14.5t-148 16.5l-28 231q121 26 191 64.5t110 107.5h-70q-49 0 -85 27t-50 73l-303 924h457l120 -565q12 -78 27 -193h18q16 58 43 193l121 565h457z" />
    <glyph glyph-name="Amacron" unicode="&#x100;" horiz-adv-x="1398" 
d="M1032 1581h-655v252h655v-252zM893 305h-387l-72 -305h-452l366 1298q13 52 54.5 83.5t95.5 31.5h403q54 0 95.5 -31.5t54.5 -83.5l366 -1298h-452zM821 616l-69 304q-21 105 -25 161h-55q-10 -84 -25 -161l-69 -304h243z" />
    <glyph glyph-name="amacron" unicode="&#x101;" 
d="M950 1196h-655v252h655v-252zM137 729l-39 272q115 21 290 36.5t294 15.5q112 0 192.5 -20.5t139.5 -68.5t87.5 -129.5t28.5 -199.5v-635h-342l-38 143q-137 -172 -355 -172q-97 0 -175.5 31.5t-127.5 99t-49 160.5v103q0 123 90.5 193.5t247.5 70.5h319v8
q-2 55 -28 78.5t-92 23.5q-225 0 -443 -10zM461 358v-32q0 -29 22.5 -46.5t63.5 -17.5q69 0 153 51v109h-161q-37 0 -57.5 -17.5t-20.5 -46.5z" />
    <glyph glyph-name="Abreve" unicode="&#x102;" horiz-adv-x="1398" 
d="M868 1888l199 -26q17 -91 -22.5 -171.5t-130 -131t-212.5 -50.5t-213 50.5t-130.5 131t-22.5 171.5l199 26q0 -65 38 -93t129 -28q90 0 128 28t38 93zM893 305h-387l-72 -305h-452l366 1298q13 52 54.5 83.5t95.5 31.5h403q54 0 95.5 -31.5t54.5 -83.5l366 -1298h-452z
M821 616l-69 304q-21 105 -25 161h-55q-10 -84 -25 -161l-69 -304h243z" />
    <glyph glyph-name="abreve" unicode="&#x103;" 
d="M786 1503l199 -26q17 -91 -22 -171.5t-129.5 -131t-212.5 -50.5t-213 50.5t-131 131t-23 171.5l199 26q0 -65 38 -93t130 -28q90 0 127.5 28t37.5 93zM137 729l-39 272q115 21 290 36.5t294 15.5q112 0 192.5 -20.5t139.5 -68.5t87.5 -129.5t28.5 -199.5v-635h-342
l-38 143q-137 -172 -355 -172q-97 0 -175.5 31.5t-127.5 99t-49 160.5v103q0 123 90.5 193.5t247.5 70.5h319v8q-2 55 -28 78.5t-92 23.5q-225 0 -443 -10zM461 358v-32q0 -29 22.5 -46.5t63.5 -17.5q69 0 153 51v109h-161q-37 0 -57.5 -17.5t-20.5 -46.5z" />
    <glyph glyph-name="Aogonek" unicode="&#x104;" horiz-adv-x="1398" 
d="M1419 -246l25 -147q-167 -61 -264 -42.5t-132.5 80t-9.5 140.5q16 51 68.5 107.5t140.5 107.5h-282l-72 305h-387l-72 -305h-452l366 1298q13 52 54.5 83.5t95.5 31.5h403q54 0 95.5 -31.5t54.5 -83.5l366 -1298q-73 -130 -96 -178q-24 -51 4.5 -64.5t93.5 -3.5zM821 616
l-69 304q-21 105 -25 161h-55q-10 -84 -25 -161l-69 -304h243z" />
    <glyph glyph-name="aogonek" unicode="&#x105;" 
d="M1133 -246l24 -147q-167 -61 -263.5 -42.5t-132 80t-9.5 140.5q16 51 68.5 107.5t140.5 107.5h-173l-38 143q-137 -172 -355 -172q-97 0 -175.5 31.5t-127.5 99t-49 160.5v103q0 123 90.5 193.5t247.5 70.5h319v8q-2 55 -28 78.5t-92 23.5q-225 0 -443 -10l-39 272
q115 21 290 36.5t294 15.5q112 0 192.5 -20.5t139.5 -68.5t87.5 -129.5t28.5 -199.5v-635q-73 -130 -96 -178q-24 -51 5 -64.5t94 -3.5zM461 358v-32q0 -29 22.5 -46.5t63.5 -17.5q69 0 153 51v109h-161q-37 0 -57.5 -17.5t-20.5 -46.5z" />
    <glyph glyph-name="Cacute" unicode="&#x106;" horiz-adv-x="1239" 
d="M1135 1686l-523 -211l-116 176l477 307zM1169 367l33 -324q-108 -37 -219.5 -52.5t-275.5 -15.5q-179 0 -298.5 38t-197.5 126t-111.5 225.5t-33.5 342.5q0 272 63.5 430.5t201.5 229.5t376 71q158 0 255 -12.5t209 -43.5l-32 -323q-286 4 -432 4q-72 0 -108 -30
t-51.5 -104.5t-15.5 -221.5t15.5 -221.5t51.5 -105t108 -30.5q296 0 462 17z" />
    <glyph glyph-name="cacute" unicode="&#x107;" horiz-adv-x="1081" 
d="M1028 1300l-522 -210l-117 176l477 307zM1006 330l38 -269q-165 -86 -446 -86q-300 0 -422.5 121t-122.5 418q0 296 123.5 417.5t425.5 121.5q270 0 428 -76l-43 -266h-311q-100 0 -136 -40t-36 -157q0 -118 36 -158.5t136 -40.5q192 0 330 15z" />
    <glyph glyph-name="Cdotaccent" unicode="&#x10a;" horiz-adv-x="1239" 
d="M641 1870h129q121 0 121 -117v-96q0 -117 -121 -117h-129q-121 0 -121 117v96q0 117 121 117zM1169 367l33 -324q-108 -37 -219.5 -52.5t-275.5 -15.5q-179 0 -298.5 38t-197.5 126t-111.5 225.5t-33.5 342.5q0 272 63.5 430.5t201.5 229.5t376 71q158 0 255 -12.5
t209 -43.5l-32 -323q-286 4 -432 4q-72 0 -108 -30t-51.5 -104.5t-15.5 -221.5t15.5 -221.5t51.5 -105t108 -30.5q296 0 462 17z" />
    <glyph glyph-name="cdotaccent" unicode="&#x10b;" horiz-adv-x="1081" 
d="M535 1485h129q62 0 91 -28.5t29 -88.5v-96q0 -117 -120 -117h-129q-121 0 -121 117v96q0 117 121 117zM1006 330l38 -269q-165 -86 -446 -86q-300 0 -422.5 121t-122.5 418q0 296 123.5 417.5t425.5 121.5q270 0 428 -76l-43 -266h-311q-100 0 -136 -40t-36 -157
q0 -118 36 -158.5t136 -40.5q192 0 330 15z" />
    <glyph glyph-name="Ccaron" unicode="&#x10c;" horiz-adv-x="1239" 
d="M1122 1776l-334 -269h-167l-336 269l102 157l309 -155h17l311 155zM1169 367l33 -324q-108 -37 -219.5 -52.5t-275.5 -15.5q-179 0 -298.5 38t-197.5 126t-111.5 225.5t-33.5 342.5q0 272 63.5 430.5t201.5 229.5t376 71q158 0 255 -12.5t209 -43.5l-32 -323
q-286 4 -432 4q-72 0 -108 -30t-51.5 -104.5t-15.5 -221.5t15.5 -221.5t51.5 -105t108 -30.5q296 0 462 17z" />
    <glyph glyph-name="ccaron" unicode="&#x10d;" horiz-adv-x="1081" 
d="M1016 1391l-334 -269h-168l-336 269l103 157l309 -155h16l312 155zM1006 330l38 -269q-165 -86 -446 -86q-300 0 -422.5 121t-122.5 418q0 296 123.5 417.5t425.5 121.5q270 0 428 -76l-43 -266h-311q-100 0 -136 -40t-36 -157q0 -118 36 -158.5t136 -40.5q192 0 330 15z
" />
    <glyph glyph-name="Dcaron" unicode="&#x10e;" horiz-adv-x="1435" 
d="M629 1507l-336 269l102 157l310 -155h16l311 155l98 -157l-333 -269h-168zM106 0v1413q378 21 605 21q125 0 217.5 -14t168.5 -47.5t126 -87t83.5 -135.5t48.5 -190t15 -253t-15 -253t-48.5 -190t-83.5 -135.5t-126 -87t-168.5 -47.5t-217.5 -14q-308 0 -605 20zM551 303
l160 -2q78 0 117.5 34t56 119t16.5 253q0 102 -5.5 169t-17.5 115t-35 73.5t-54 36.5t-78 11h-160v-809z" />
    <glyph glyph-name="dcaron" unicode="&#x10f;" horiz-adv-x="1269" 
d="M1384 1440h66q65 0 90.5 -21.5t26.5 -79.5v-90q0 -100 -26.5 -165.5t-82.5 -133.5l-125 35q29 79 29 195q-95 0 -98 90l6 69q1 58 25 79.5t89 21.5zM752 1434h430v-1434h-342l-35 168q-103 -193 -377 -193q-195 0 -283 139t-88 410q0 155 24.5 259.5t75.5 163t120 82.5
t169 24q196 0 314 -86q-8 144 -8 223v244zM752 350v395q-71 27 -134 27q-47 0 -70 -15t-35.5 -68t-12.5 -161q0 -92 12.5 -138t34 -58.5t65.5 -12.5q76 0 140 31z" />
    <glyph glyph-name="Dcroat" unicode="&#x110;" horiz-adv-x="1435" 
d="M106 838v575q378 21 605 21q125 0 217.5 -14t168.5 -47.5t126 -87t83.5 -135.5t48.5 -190t15 -253t-15 -253t-48.5 -190t-83.5 -135.5t-126 -87t-168.5 -47.5t-217.5 -14q-308 0 -605 20v625h-92v213h92zM551 303l160 -2q78 0 117.5 34t56 119t16.5 253q0 102 -5.5 169
t-17.5 115t-35 73.5t-54 36.5t-78 11h-160v-274h203v-213h-203v-322z" />
    <glyph glyph-name="dcroat" unicode="&#x111;" horiz-adv-x="1263" 
d="M1292 1120h-110v-1120h-342l-35 168q-103 -193 -377 -193q-195 0 -283 139t-88 410q0 155 24.5 259.5t75.5 163t120 82.5t169 24q196 0 314 -86q-4 47 -8 153h-220v172h220v142h430v-142h110v-172zM752 350v395q-71 27 -134 27q-47 0 -70 -15t-35.5 -68t-12.5 -161
q0 -92 12.5 -138t34 -58.5t65.5 -12.5q76 0 140 31z" />
    <glyph glyph-name="Emacron" unicode="&#x112;" horiz-adv-x="1220" 
d="M991 1581h-655v252h655v-252zM1143 332l20 -314q-95 -12 -239 -18.5t-230.5 -7t-265.5 -0.5q-147 0 -239.5 89.5t-92.5 231.5v787q0 142 92.5 231.5t239.5 89.5q179 0 265.5 -0.5t230.5 -7t239 -18.5l-20 -314h-518q-38 0 -61 -20.5t-23 -52.5v-138h528v-295h-528v-169
q0 -33 23 -53.5t61 -20.5h518z" />
    <glyph glyph-name="emacron" unicode="&#x113;" 
d="M969 1196h-656v252h656v-252zM768 418h-256q12 -63 50 -88t120 -25q191 0 416 23l39 -258q-186 -95 -502 -95q-313 0 -448.5 130t-135.5 399q0 302 131.5 425.5t450.5 123.5q190 0 308.5 -42t170.5 -121t53 -202q2 -145 -86.5 -207.5t-310.5 -62.5zM504 621h143
q70 0 88.5 12.5t18.5 64.5q0 48 -23.5 63t-85.5 15q-81 2 -109 -26t-32 -129z" />
    <glyph glyph-name="Edotaccent" unicode="&#x116;" horiz-adv-x="1220" 
d="M727 1540h-129q-121 0 -121 117v96q0 117 121 117h129q121 0 121 -117v-96q0 -117 -121 -117zM1143 332l20 -314q-95 -12 -239 -18.5t-230.5 -7t-265.5 -0.5q-147 0 -239.5 89.5t-92.5 231.5v787q0 142 92.5 231.5t239.5 89.5q179 0 265.5 -0.5t230.5 -7t239 -18.5
l-20 -314h-518q-38 0 -61 -20.5t-23 -52.5v-138h528v-295h-528v-169q0 -33 23 -53.5t61 -20.5h518z" />
    <glyph glyph-name="edotaccent" unicode="&#x117;" 
d="M705 1155h-130q-120 0 -120 117v96q0 60 29 88.5t91 28.5h130q62 0 91 -28.5t29 -88.5v-96q0 -117 -120 -117zM768 418h-256q12 -63 50 -88t120 -25q191 0 416 23l39 -258q-186 -95 -502 -95q-313 0 -448.5 130t-135.5 399q0 302 131.5 425.5t450.5 123.5
q190 0 308.5 -42t170.5 -121t53 -202q2 -145 -86.5 -207.5t-310.5 -62.5zM504 621h143q70 0 88.5 12.5t18.5 64.5q0 48 -23.5 63t-85.5 15q-81 2 -109 -26t-32 -129z" />
    <glyph glyph-name="Eogonek" unicode="&#x118;" horiz-adv-x="1220" 
d="M1165 -227l25 -148q-167 -61 -264 -42.5t-132.5 80t-9.5 140.5q31 101 181 199q-172 -10 -537 -10q-147 0 -239.5 89.5t-92.5 231.5v787q0 142 92.5 231.5t239.5 89.5q179 0 265.5 -0.5t230.5 -7t239 -18.5l-20 -314h-518q-38 0 -61 -20.5t-23 -52.5v-138h528v-295h-528
v-169q0 -33 23 -53.5t61 -20.5h518l20 -314q-73 -130 -96 -178q-24 -51 4 -64t94 -3z" />
    <glyph glyph-name="eogonek" unicode="&#x119;" 
d="M1098 328l39 -258q-77 -137 -97 -179q-24 -51 4.5 -64t94.5 -3l24 -148q-167 -61 -263.5 -42.5t-132 80.5t-9.5 141q19 64 94 133q-114 -13 -217 -13q-313 0 -448.5 130t-135.5 399q0 302 131.5 425.5t450.5 123.5q190 0 308.5 -42t170.5 -121t53 -202
q2 -145 -86.5 -207.5t-310.5 -62.5h-256q12 -63 50 -88t120 -25q191 0 416 23zM504 621h143q70 0 88.5 12.5t18.5 64.5q0 48 -23.5 63t-85.5 15q-81 2 -109 -26t-32 -129z" />
    <glyph glyph-name="Ecaron" unicode="&#x11a;" horiz-adv-x="1220" 
d="M578 1507l-336 269l102 157l309 -155h17l311 155l98 -157l-334 -269h-167zM1143 332l20 -314q-95 -12 -239 -18.5t-230.5 -7t-265.5 -0.5q-147 0 -239.5 89.5t-92.5 231.5v787q0 142 92.5 231.5t239.5 89.5q179 0 265.5 -0.5t230.5 -7t239 -18.5l-20 -314h-518
q-38 0 -61 -20.5t-23 -52.5v-138h528v-295h-528v-169q0 -33 23 -53.5t61 -20.5h518z" />
    <glyph glyph-name="ecaron" unicode="&#x11b;" 
d="M555 1122l-336 269l103 157l309 -155h16l311 155l99 -157l-334 -269h-168zM768 418h-256q12 -63 50 -88t120 -25q191 0 416 23l39 -258q-186 -95 -502 -95q-313 0 -448.5 130t-135.5 399q0 302 131.5 425.5t450.5 123.5q190 0 308.5 -42t170.5 -121t53 -202
q2 -145 -86.5 -207.5t-310.5 -62.5zM504 621h143q70 0 88.5 12.5t18.5 64.5q0 48 -23.5 63t-85.5 15q-81 2 -109 -26t-32 -129z" />
    <glyph glyph-name="Gbreve" unicode="&#x11e;" horiz-adv-x="1368" 
d="M887 1888l198 -26q17 -91 -22 -171.5t-129.5 -131t-212.5 -50.5t-213 50.5t-131 131t-23 171.5l199 26q0 -65 38 -93t130 -28q90 0 128 28t38 93zM1292 813v-813h-327l-39 145q-58 -71 -159.5 -122.5t-231.5 -51.5q-166 0 -267.5 72.5t-151.5 234.5t-50 429q0 206 35 344
t115.5 226.5t204.5 126.5t310 38q166 0 276.5 -13.5t225.5 -46.5l-33 -319q-312 4 -467 4q-82 0 -123.5 -30t-59.5 -106t-18 -224q0 -146 17 -221.5t54.5 -105.5t109.5 -30q71 0 153 12v451h426z" />
    <glyph glyph-name="gbreve" unicode="&#x11f;" horiz-adv-x="1236" 
d="M764 1503l199 -26q17 -91 -22.5 -171.5t-130 -131t-212.5 -50.5t-213 50.5t-131 131t-23 171.5l199 26q0 -65 38 -93t130 -28q90 0 128 28t38 93zM1210 866l-112 -18q16 -47 16 -119q0 -179 -117.5 -251t-408.5 -72q-84 0 -152 6q-11 -17 -12.5 -37t17 -37t53.5 -19
l372 -24q173 -12 250.5 -90t77.5 -232q0 -87 -22.5 -147.5t-65 -99t-117.5 -60t-164.5 -29.5t-222.5 -8q-148 0 -249.5 10.5t-168.5 30.5t-104 56.5t-51.5 81.5t-14.5 112q0 76 35 127.5t125 89.5q-45 47 -51.5 112t23.5 121.5t85 82.5q-90 35 -131 102t-41 174
q0 177 120.5 250.5t410.5 73.5q187 0 297 -29h344zM588 639q75 0 101 18t26 72q0 53 -25.5 70.5t-101.5 17.5t-102.5 -17.5t-26.5 -70.5q0 -54 26.5 -72t102.5 -18zM633 39l-182 14q-20 -15 -27.5 -29t-7.5 -38q0 -39 37 -52.5t143 -13.5q118 0 157.5 11t39.5 44
q0 13 -3.5 22t-14 15.5t-20.5 10.5t-31.5 7t-39.5 5t-51 4z" />
    <glyph glyph-name="Gdotaccent" unicode="&#x120;" horiz-adv-x="1368" 
d="M786 1540h-129q-120 0 -120 117v96q0 60 29 88.5t91 28.5h129q121 0 121 -117v-96q0 -117 -121 -117zM1292 813v-813h-327l-39 145q-58 -71 -159.5 -122.5t-231.5 -51.5q-166 0 -267.5 72.5t-151.5 234.5t-50 429q0 206 35 344t115.5 226.5t204.5 126.5t310 38
q166 0 276.5 -13.5t225.5 -46.5l-33 -319q-312 4 -467 4q-82 0 -123.5 -30t-59.5 -106t-18 -224q0 -146 17 -221.5t54.5 -105.5t109.5 -30q71 0 153 12v451h426z" />
    <glyph glyph-name="gdotaccent" unicode="&#x121;" horiz-adv-x="1236" 
d="M664 1155h-129q-121 0 -121 117v96q0 117 121 117h129q62 0 91 -28.5t29 -88.5v-96q0 -117 -120 -117zM1210 866l-112 -18q16 -47 16 -119q0 -179 -117.5 -251t-408.5 -72q-84 0 -152 6q-11 -17 -12.5 -37t17 -37t53.5 -19l372 -24q173 -12 250.5 -90t77.5 -232
q0 -87 -22.5 -147.5t-65 -99t-117.5 -60t-164.5 -29.5t-222.5 -8q-148 0 -249.5 10.5t-168.5 30.5t-104 56.5t-51.5 81.5t-14.5 112q0 76 35 127.5t125 89.5q-45 47 -51.5 112t23.5 121.5t85 82.5q-90 35 -131 102t-41 174q0 177 120.5 250.5t410.5 73.5q187 0 297 -29h344z
M588 639q75 0 101 18t26 72q0 53 -25.5 70.5t-101.5 17.5t-102.5 -17.5t-26.5 -70.5q0 -54 26.5 -72t102.5 -18zM633 39l-182 14q-20 -15 -27.5 -29t-7.5 -38q0 -39 37 -52.5t143 -13.5q118 0 157.5 11t39.5 44q0 13 -3.5 22t-14 15.5t-20.5 10.5t-31.5 7t-39.5 5t-51 4z
" />
    <glyph glyph-name="Gcommaaccent" unicode="&#x122;" horiz-adv-x="1368" 
d="M1292 813v-813h-327l-39 145q-58 -71 -159.5 -122.5t-231.5 -51.5q-166 0 -267.5 72.5t-151.5 234.5t-50 429q0 206 35 344t115.5 226.5t204.5 126.5t310 38q166 0 276.5 -13.5t225.5 -46.5l-33 -319q-312 4 -467 4q-82 0 -123.5 -30t-59.5 -106t-18 -224
q0 -146 17 -221.5t54.5 -105.5t109.5 -30q71 0 153 12v451h426zM678 -98h78q74 0 103 -24t30 -87v-98q0 -109 -30 -180t-95 -146l-146 39q33 80 37 211q-111 0 -114 98l6 76q2 63 30 87t101 24z" />
    <glyph glyph-name="gcommaaccent" unicode="&#x123;" horiz-adv-x="1236" 
d="M659 1122h-77q-74 0 -103 24t-30 87v98q0 110 29.5 181t94.5 145l146 -39q-33 -80 -37 -211q112 0 115 -98l-6 -76q-2 -63 -30.5 -87t-101.5 -24zM1210 866l-112 -18q16 -47 16 -119q0 -179 -117.5 -251t-408.5 -72q-84 0 -152 6q-11 -17 -12.5 -37t17 -37t53.5 -19
l372 -24q173 -12 250.5 -90t77.5 -232q0 -87 -22.5 -147.5t-65 -99t-117.5 -60t-164.5 -29.5t-222.5 -8q-148 0 -249.5 10.5t-168.5 30.5t-104 56.5t-51.5 81.5t-14.5 112q0 76 35 127.5t125 89.5q-45 47 -51.5 112t23.5 121.5t85 82.5q-90 35 -131 102t-41 174
q0 177 120.5 250.5t410.5 73.5q187 0 297 -29h344zM588 639q75 0 101 18t26 72q0 53 -25.5 70.5t-101.5 17.5t-102.5 -17.5t-26.5 -70.5q0 -54 26.5 -72t102.5 -18zM633 39l-182 14q-20 -15 -27.5 -29t-7.5 -38q0 -39 37 -52.5t143 -13.5q118 0 157.5 11t39.5 44
q0 13 -3.5 22t-14 15.5t-20.5 10.5t-31.5 7t-39.5 5t-51 4z" />
    <glyph glyph-name="Hbar" unicode="&#x126;" horiz-adv-x="1462" 
d="M1458 1038h-104v-1038h-445v594h-356v-594h-444v1038h-101v193h101v182h444v-182h356v182h445v-182h104v-193zM909 1038h-356v-133h356v133z" />
    <glyph glyph-name="hbar" unicode="&#x127;" horiz-adv-x="1277" 
d="M741 1120h-215q0 -93 -20 -219q189 152 387 152q149 0 226 -73t77 -214v-766h-430v629q0 33 -17 47t-57 14q-89 0 -168 -24v-666h-430v1120h-112v172h112v142h430v-142h217v-172z" />
    <glyph glyph-name="Imacron" unicode="&#x12a;" horiz-adv-x="657" 
d="M659 1581h-655v252h655v-252zM549 0h-440v1413h440v-1413z" />
    <glyph glyph-name="imacron" unicode="&#x12b;" horiz-adv-x="624" 
d="M643 1196h-655v252h655v-252zM528 0h-432v1024h432v-1024z" />
    <glyph glyph-name="Iogonek" unicode="&#x12e;" horiz-adv-x="657" 
d="M549 0h-57q-80 -143 -97 -178q-24 -51 5 -64.5t94 -3.5l24 -147q-167 -61 -263.5 -42.5t-132 80t-9.5 140.5q16 51 68.5 107.5t140.5 107.5h-213v1413h440v-1413z" />
    <glyph glyph-name="iogonek" unicode="&#x12f;" horiz-adv-x="624" 
d="M379 1155h-129q-121 0 -121 117v96q0 117 121 117h129q121 0 121 -117v-96q0 -117 -121 -117zM528 0h-41q-73 -130 -96 -178q-24 -51 4.5 -64.5t93.5 -3.5l25 -147q-167 -61 -263.5 -42.5t-132 80t-9.5 140.5q16 51 68.5 107.5t139.5 107.5h-221v1024h432v-1024z" />
    <glyph glyph-name="Idotaccent" unicode="&#x130;" horiz-adv-x="657" 
d="M266 1870h129q121 0 121 -117v-96q0 -117 -121 -117h-129q-121 0 -121 117v96q0 117 121 117zM549 0h-440v1413h440v-1413z" />
    <glyph glyph-name="dotlessi" unicode="&#x131;" horiz-adv-x="624" 
d="M528 0h-432v1024h432v-1024z" />
    <glyph glyph-name="IJ" unicode="&#x132;" horiz-adv-x="1484" 
d="M549 0h-440v1413h440v-1413zM1382 1413v-1153q0 -137 -99.5 -213t-274.5 -76q-80 0 -181 14.5t-149 39.5l47 278h96q62 0 91.5 17t29.5 55v1038h440z" />
    <glyph glyph-name="ij" unicode="&#x133;" horiz-adv-x="1243" 
d="M836 1513h182q125 0 125 -127v-104q0 -127 -125 -127h-182q-125 0 -125 127v104q0 127 125 127zM219 1493h182q125 0 125 -127v-104q0 -127 -125 -127h-182q-125 0 -125 127v104q0 127 125 127zM524 0h-428v1024h428v-1024zM1147 1024v-905q0 -163 -90 -304.5
t-242 -203.5l-237 188q79 79 110 153.5t31 166.5v905h428z" />
    <glyph glyph-name="Kcommaaccent" unicode="&#x136;" horiz-adv-x="1384" 
d="M1403 0h-494l-299 590h-73q16 -72 16 -129v-461h-444v1413h444v-356q0 -91 -21 -180h78l295 536h477l-325 -553q-25 -45 -59.5 -78.5t-65.5 -46.5v-8q31 -13 74 -54t67 -85zM674 -98h78q74 0 103 -24t30 -87v-98q0 -109 -30 -180t-95 -146l-146 39q33 80 37 211
q-111 0 -114 98l6 76q2 63 30 87t101 24z" />
    <glyph glyph-name="kcommaaccent" unicode="&#x137;" horiz-adv-x="1247" 
d="M518 0h-430v1434h430v-549q0 -95 -16 -201h59l195 340h471l-215 -336q-21 -38 -56.5 -72.5t-62.5 -50.5v-8q24 -12 60 -53.5t59 -83.5l254 -420h-473l-234 442h-55q14 -93 14 -149v-293zM588 -78h78q74 0 103 -23.5t30 -86.5v-99q0 -109 -30 -179.5t-95 -145.5l-146 39
q33 80 37 211q-111 0 -114 98l6 76q1 63 29 86.5t102 23.5z" />
    <glyph glyph-name="Lacute" unicode="&#x139;" horiz-adv-x="1140" 
d="M766 1686l-522 -211l-117 176l477 307zM547 1413v-987q0 -33 23.5 -53.5t62.5 -20.5h475l20 -332q-98 -13 -231.5 -20t-213.5 -7.5t-245 -0.5q-153 0 -244.5 88.5t-91.5 232.5v1100h445z" />
    <glyph glyph-name="lacute" unicode="&#x13a;" horiz-adv-x="733" 
d="M748 1696l-523 -211l-116 176l477 307zM518 1434v-1061q0 -39 25 -56.5t78 -17.5h69l47 -274q-42 -25 -135.5 -39.5t-165.5 -14.5q-162 0 -254 76t-92 211v1176h428z" />
    <glyph glyph-name="Lcommaaccent" unicode="&#x13b;" horiz-adv-x="1140" 
d="M547 1413v-987q0 -33 23.5 -53.5t62.5 -20.5h475l20 -332q-98 -13 -231.5 -20t-213.5 -7.5t-245 -0.5q-153 0 -244.5 88.5t-91.5 232.5v1100h445zM563 -98h78q74 0 103 -24t30 -87v-98q0 -109 -30 -180t-95 -146l-145 39q33 80 37 211q-112 0 -115 98l6 76q2 63 30 87
t101 24z" />
    <glyph glyph-name="lcommaaccent" unicode="&#x13c;" horiz-adv-x="733" 
d="M518 1434v-1061q0 -39 25 -56.5t78 -17.5h69l47 -274q-42 -25 -135.5 -39.5t-165.5 -14.5q-162 0 -254 76t-92 211v1176h428zM352 -98h78q74 0 103 -24t30 -87v-98q0 -109 -30 -180t-95 -146l-145 39q33 80 37 211q-112 0 -115 98l6 76q2 63 30 87t101 24z" />
    <glyph glyph-name="Lcaron" unicode="&#x13d;" horiz-adv-x="1140" 
d="M547 1413v-987q0 -33 23.5 -53.5t62.5 -20.5h475l20 -332q-98 -13 -231.5 -20t-213.5 -7.5t-245 -0.5q-153 0 -244.5 88.5t-91.5 232.5v1100h445zM799 1411h78q74 0 103 -24t30 -87v-98q0 -109 -30 -179.5t-95 -145.5l-146 38q33 80 37 211q-111 0 -114 99l6 75
q2 63 30 87t101 24z" />
    <glyph glyph-name="lcaron" unicode="&#x13e;" horiz-adv-x="733" 
d="M719 1440h65q65 0 90.5 -21.5t26.5 -79.5v-90q0 -101 -26 -166t-82 -133l-125 35q28 77 28 195q-95 0 -98 90l6 69q1 58 25.5 79.5t89.5 21.5zM518 1434v-1061q0 -39 25 -56.5t78 -17.5h69l47 -274q-42 -25 -135.5 -39.5t-165.5 -14.5q-162 0 -254 76t-92 211v1176h428z
" />
    <glyph glyph-name="Ldot" unicode="&#x13f;" horiz-adv-x="1140" 
d="M547 1413v-987q0 -33 23.5 -53.5t62.5 -20.5h475l20 -332q-98 -13 -231.5 -20t-213.5 -7.5t-245 -0.5q-153 0 -244.5 88.5t-91.5 232.5v1100h445zM956 702h-129q-62 0 -91 28.5t-29 88.5v96q0 117 120 117h129q121 0 121 -117v-96q0 -117 -121 -117z" />
    <glyph glyph-name="ldot" unicode="&#x140;" horiz-adv-x="978" 
d="M518 1434v-1061q0 -39 25 -56.5t78 -17.5h69l47 -274q-42 -25 -135.5 -39.5t-165.5 -14.5q-162 0 -254 76t-92 211v1176h428zM854 637h-129q-121 0 -121 117v96q0 117 121 117h129q121 0 121 -117v-96q0 -117 -121 -117z" />
    <glyph glyph-name="Lslash" unicode="&#x141;" horiz-adv-x="1140" 
d="M1108 352l20 -332q-98 -13 -231.5 -20t-213.5 -7.5t-245 -0.5q-153 0 -244.5 88.5t-91.5 232.5v273l-88 -35v213l88 35v614h445v-444l213 82v-213l-213 -82v-330q0 -33 23.5 -53.5t62.5 -20.5h475z" />
    <glyph glyph-name="lslash" unicode="&#x142;" horiz-adv-x="798" 
d="M750 299l47 -274q-42 -25 -135.5 -39.5t-165.5 -14.5q-162 0 -254 76t-92 211v328l-142 -56v213l142 56v635h428v-469l170 65v-213l-170 -65v-379q0 -39 24.5 -56.5t77.5 -17.5h70z" />
    <glyph glyph-name="Nacute" unicode="&#x143;" horiz-adv-x="1511" 
d="M1202 1686l-522 -211l-117 176l477 307zM1407 1413v-1259q0 -75 -39.5 -114.5t-114.5 -39.5h-170q-64 0 -98 29t-74 100l-307 485q-49 89 -94 242h-14q20 -143 20 -258v-598h-410v1260q0 75 39.5 114t114.5 39h170q64 0 97 -28.5t75 -100.5l295 -463q57 -100 109 -241h14
q-19 162 -21 256v577h408z" />
    <glyph glyph-name="nacute" unicode="&#x144;" horiz-adv-x="1271" 
d="M563 1090l-117 176l478 307l161 -273zM426 1024l39 -152q97 90 206.5 135.5t215.5 45.5q149 0 226 -73t77 -214v-766h-430v629q0 33 -17 47t-57 14q-89 0 -168 -24v-666h-430v1024h338z" />
    <glyph glyph-name="Ncommaaccent" unicode="&#x145;" horiz-adv-x="1511" 
d="M1407 1413v-1259q0 -75 -39.5 -114.5t-114.5 -39.5h-170q-64 0 -98 29t-74 100l-307 485q-49 89 -94 242h-14q20 -143 20 -258v-598h-410v1260q0 75 39.5 114t114.5 39h170q64 0 97 -28.5t75 -100.5l295 -463q57 -100 109 -241h14q-19 162 -21 256v577h408zM737 -98h78
q74 0 103 -24t30 -87v-98q0 -109 -30 -180t-95 -146l-145 39q33 80 37 211q-112 0 -115 98l6 76q2 63 30 87t101 24z" />
    <glyph glyph-name="ncommaaccent" unicode="&#x146;" horiz-adv-x="1271" 
d="M426 1024l39 -152q97 90 206.5 135.5t215.5 45.5q149 0 226 -73t77 -214v-766h-430v629q0 33 -17 47t-57 14q-89 0 -168 -24v-666h-430v1024h338zM573 -78h78q74 0 103 -23.5t30 -86.5v-99q0 -109 -30 -179.5t-95 -145.5l-145 39q33 80 37 211q-112 0 -115 98l6 76
q1 63 29 86.5t102 23.5z" />
    <glyph glyph-name="Ncaron" unicode="&#x147;" horiz-adv-x="1511" 
d="M1190 1776l-334 -269h-168l-336 269l103 157l309 -155h16l312 155zM1407 1413v-1259q0 -75 -39.5 -114.5t-114.5 -39.5h-170q-64 0 -98 29t-74 100l-307 485q-49 89 -94 242h-14q20 -143 20 -258v-598h-410v1260q0 75 39.5 114t114.5 39h170q64 0 97 -28.5t75 -100.5
l295 -463q57 -100 109 -241h14q-19 162 -21 256v577h408z" />
    <glyph glyph-name="ncaron" unicode="&#x148;" horiz-adv-x="1271" 
d="M571 1122l-335 269l102 157l309 -155h17l311 155l98 -157l-334 -269h-168zM426 1024l39 -152q97 90 206.5 135.5t215.5 45.5q149 0 226 -73t77 -214v-766h-430v629q0 33 -17 47t-57 14q-89 0 -168 -24v-666h-430v1024h338z" />
    <glyph glyph-name="Eng" unicode="&#x14a;" horiz-adv-x="1515" 
d="M1407 1413v-1481q0 -164 -81 -257t-216 -93q-68 0 -153 13.5t-142 39.5l47 279h74q88 0 88 55v49h-10q-25 0 -92 111l-318 485q-6 10 -12 22l-11 22t-11 24t-9.5 23t-9.5 25.5t-9 24.5t-9 26t-8 24.5t-8.5 26t-8.5 24.5h-12q18 -144 18 -238v-618h-408v1260
q0 75 39.5 114t114.5 39h168q64 0 99.5 -29.5t74.5 -99.5l295 -463q59 -98 107 -241h14q-21 147 -21 251v582h410z" />
    <glyph glyph-name="eng" unicode="&#x14b;" horiz-adv-x="1271" 
d="M424 1024l39 -150q100 89 210 134t214 45q150 0 226.5 -73t76.5 -214v-815q0 -166 -84.5 -258t-237.5 -92q-76 0 -171.5 14t-141.5 39l47 278h74q84 0 84 56v641q0 33 -17 47t-57 14q-87 0 -168 -22v-668h-430v1024h336z" />
    <glyph glyph-name="Omacron" unicode="&#x14c;" horiz-adv-x="1447" 
d="M1053 1581h-656v252h656v-252zM723 1442q151 0 255.5 -21t185 -70t127 -134.5t69 -209t22.5 -300.5q0 -147 -15 -256.5t-48.5 -192.5t-83.5 -137.5t-126 -88t-168.5 -47.5t-217.5 -14q-150 0 -254.5 21t-184.5 70t-126.5 135t-69 209.5t-22.5 300.5t22.5 300.5t69 209
t126.5 134.5t184.5 70t254.5 21zM723 1112q-79 0 -118.5 -34t-56 -118.5t-16.5 -252.5t16.5 -253t56.5 -119t118 -34t117.5 34t56 119t16.5 253q0 102 -5.5 169t-17.5 115t-35 73.5t-54 36.5t-78 11z" />
    <glyph glyph-name="omacron" unicode="&#x14d;" horiz-adv-x="1251" 
d="M963 1196h-656v252h656v-252zM627 1053q314 0 442.5 -122t128.5 -421q0 -294 -128.5 -414.5t-442.5 -120.5q-315 0 -444.5 120.5t-129.5 414.5q0 299 129.5 421t444.5 122zM627 762q-52 0 -77 -20t-35.5 -72t-10.5 -160q0 -105 10.5 -155.5t35.5 -69.5t77 -19
q51 0 75.5 19t35 69.5t10.5 155.5q0 108 -10.5 160.5t-35 72t-75.5 19.5z" />
    <glyph glyph-name="Ohungarumlaut" unicode="&#x150;" horiz-adv-x="1447" 
d="M823 1810l-346 -360l-170 137l252 395zM1264 1810l-349 -360l-167 135l251 397zM723 1442q151 0 255.5 -21t185 -70t127 -134.5t69 -209t22.5 -300.5q0 -147 -15 -256.5t-48.5 -192.5t-83.5 -137.5t-126 -88t-168.5 -47.5t-217.5 -14q-150 0 -254.5 21t-184.5 70
t-126.5 135t-69 209.5t-22.5 300.5t22.5 300.5t69 209t126.5 134.5t184.5 70t254.5 21zM723 1112q-79 0 -118.5 -34t-56 -118.5t-16.5 -252.5t16.5 -253t56.5 -119t118 -34t117.5 34t56 119t16.5 253q0 102 -5.5 169t-17.5 115t-35 73.5t-54 36.5t-78 11z" />
    <glyph glyph-name="ohungarumlaut" unicode="&#x151;" horiz-adv-x="1251" 
d="M733 1425l-346 -360l-170 137l252 395zM1174 1425l-349 -360l-168 135l252 397zM627 1053q314 0 442.5 -122t128.5 -421q0 -294 -128.5 -414.5t-442.5 -120.5q-315 0 -444.5 120.5t-129.5 414.5q0 299 129.5 421t444.5 122zM627 762q-52 0 -77 -20t-35.5 -72t-10.5 -160
q0 -105 10.5 -155.5t35.5 -69.5t77 -19q51 0 75.5 19t35 69.5t10.5 155.5q0 108 -10.5 160.5t-35 72t-75.5 19.5z" />
    <glyph glyph-name="OE" unicode="&#x152;" horiz-adv-x="2011" 
d="M1933 332l21 -314q-92 -12 -233.5 -18.5t-226.5 -7t-261 -0.5q-100 0 -174 47q-145 -68 -344 -68q-147 0 -250 21t-182 70t-124.5 135t-68 210t-22.5 300t22.5 300t68 209.5t124.5 134.5t182 70t250 21q214 0 366 -56q68 35 154 35q175 0 260 -0.5t226 -7t233 -18.5
l-21 -314h-493q-36 0 -58 -20t-22 -53v-148h504v-274h-504v-180q0 -33 22 -53.5t58 -20.5h493zM913 324v770q-71 18 -198 18q-74 0 -110.5 -34t-52 -118t-15.5 -253q0 -102 5 -169t16 -115.5t32.5 -74t51 -36.5t73.5 -11q130 0 198 23z" />
    <glyph glyph-name="oe" unicode="&#x153;" horiz-adv-x="1861" 
d="M1419 414h-245q12 -63 49.5 -88t122.5 -25q183 0 405 23l39 -258q-184 -95 -492 -95q-208 0 -340 66q-121 -62 -342 -62q-310 0 -436.5 120t-126.5 415q0 299 126.5 421t436.5 122q221 0 342 -62q125 58 338 58q187 0 303.5 -42t167.5 -121t52 -202q2 -145 -86.5 -207.5
t-313.5 -62.5zM1167 616h133q70 0 88.5 13t18.5 65q0 47 -22.5 62.5t-81.5 15.5q-78 2 -105 -26.5t-31 -129.5zM616 266q69 0 94 35.5t29 147.5l-2 51q0 45 2 65q-3 121 -26 159t-90 38q-51 0 -74.5 -20t-33 -71t-9.5 -161q0 -106 9 -156t31 -69t70 -19z" />
    <glyph glyph-name="Racute" unicode="&#x154;" horiz-adv-x="1384" 
d="M602 1475l-117 176l478 307l161 -272zM1358 0h-465l-92 420q-12 57 -37.5 76.5t-83.5 19.5h-137v-516h-437v1413q219 21 601 21q161 0 269.5 -21t183.5 -70.5t109 -132t34 -206.5q0 -306 -287 -336v-13q191 -24 231 -221zM543 829h153q96 0 128 29t32 117q0 87 -32 116
t-128 29h-153v-291z" />
    <glyph glyph-name="racute" unicode="&#x155;" horiz-adv-x="925" 
d="M418 1090l-117 176l477 307l162 -273zM424 1024l39 -150q191 179 399 179h60l-37 -394h-109q-109 0 -258 -20v-639h-430v1024h336z" />
    <glyph glyph-name="Rcommaaccent" unicode="&#x156;" horiz-adv-x="1384" 
d="M1358 0h-465l-92 420q-12 57 -37.5 76.5t-83.5 19.5h-137v-516h-437v1413q219 21 601 21q161 0 269.5 -21t183.5 -70.5t109 -132t34 -206.5q0 -306 -287 -336v-13q191 -24 231 -221zM543 829h153q96 0 128 29t32 117q0 87 -32 116t-128 29h-153v-291zM672 -98h78
q74 0 103 -24t30 -87v-98q0 -109 -30 -180t-95 -146l-146 39q33 80 37 211q-111 0 -114 98l6 76q2 63 30 87t101 24z" />
    <glyph glyph-name="rcommaaccent" unicode="&#x157;" horiz-adv-x="925" 
d="M922 1053l-37 -394h-109q-109 0 -258 -20v-639h-430v1024h336l39 -150q191 179 399 179h60zM240 -78h77q74 0 103.5 -23.5t30.5 -86.5v-99q0 -109 -30 -179.5t-95 -145.5l-146 39q33 80 37 211q-112 0 -115 98l7 76q1 63 29 86.5t102 23.5z" />
    <glyph glyph-name="Rcaron" unicode="&#x158;" horiz-adv-x="1384" 
d="M610 1507l-336 269l103 157l309 -155h16l312 155l98 -157l-334 -269h-168zM1358 0h-465l-92 420q-12 57 -37.5 76.5t-83.5 19.5h-137v-516h-437v1413q219 21 601 21q161 0 269.5 -21t183.5 -70.5t109 -132t34 -206.5q0 -306 -287 -336v-13q191 -24 231 -221zM543 829h153
q96 0 128 29t32 117q0 87 -32 116t-128 29h-153v-291z" />
    <glyph glyph-name="rcaron" unicode="&#x159;" horiz-adv-x="925" 
d="M426 1122l-336 269l103 157l309 -155h16l311 155l99 -157l-334 -269h-168zM424 1024l39 -150q191 179 399 179h60l-37 -394h-109q-109 0 -258 -20v-639h-430v1024h336z" />
    <glyph glyph-name="Sacute" unicode="&#x15a;" horiz-adv-x="1249" 
d="M1073 1686l-522 -211l-117 176l477 307zM657 477l-280 123q-172 77 -244 174t-72 252q0 122 30 201t102 127.5t179 68t271 19.5q307 0 514 -72l-27 -285q-307 5 -497 5q-77 0 -104 -11t-27 -43q0 -29 25 -48.5t98 -47.5l256 -106q175 -75 246 -174t71 -257
q0 -162 -53 -254t-177.5 -135t-346.5 -43q-274 0 -547 70l26 311q407 -10 514 -10q84 0 112 10t28 39t-20 46.5t-77 39.5z" />
    <glyph glyph-name="sacute" unicode="&#x15b;" horiz-adv-x="1132" 
d="M1006 1300l-523 -210l-116 176l477 307zM543 356l-226 62q-82 24 -136 57t-82.5 77t-39 90.5t-10.5 111.5q0 72 24 125.5t78 93.5t147 60t226 20q127 0 279 -12.5t246 -32.5l-27 -250h-404h-26q-88 0 -107.5 -3.5t-19.5 -21.5q0 -13 11 -18t54 -16q33 -9 56 -15l235 -59
q141 -40 206 -110t65 -200q0 -192 -112 -265t-384 -73q-285 0 -533 43l27 250h365q153 0 187 4.5t34 26.5q0 4 -1 7.5t-3.5 6t-6 5t-10 5t-13 4t-18 5t-22 6t-27 7t-32.5 9.5z" />
    <glyph glyph-name="Scedilla" unicode="&#x15e;" horiz-adv-x="1249" 
d="M657 477l-280 123q-172 77 -244 174t-72 252q0 122 30 201t102 127.5t179 68t271 19.5q307 0 514 -72l-27 -285q-307 5 -497 5q-77 0 -104 -11t-27 -43q0 -29 25 -48.5t98 -47.5l256 -106q175 -75 246 -174t71 -257q0 -162 -53 -254t-177.5 -135t-346.5 -43
q-274 0 -547 70l26 311q407 -10 514 -10q84 0 112 10t28 39t-20 46.5t-77 39.5zM446 -285l39 148q127 15 209 15t119 -34t33 -114q-5 -114 -71.5 -189.5t-172 -102.5t-235.5 -9l45 159q31 0 52.5 1.5t46 8t39.5 17t26.5 30.5t13.5 48q2 17 -10 20t-72 2h-62z" />
    <glyph glyph-name="scedilla" unicode="&#x15f;" horiz-adv-x="1132" 
d="M543 356l-226 62q-82 24 -136 57t-82.5 77t-39 90.5t-10.5 111.5q0 72 24 125.5t78 93.5t147 60t226 20q127 0 279 -12.5t246 -32.5l-27 -250h-404h-26q-88 0 -107.5 -3.5t-19.5 -21.5q0 -13 11 -18t54 -16q33 -9 56 -15l235 -59q141 -40 206 -110t65 -200
q0 -192 -112 -265t-384 -73q-285 0 -533 43l27 250h365q153 0 187 4.5t34 26.5q0 4 -1 7.5t-3.5 6t-6 5t-10 5t-13 4t-18 5t-22 6t-27 7t-32.5 9.5zM360 -248l39 148q127 15 209 15t119 -34t33 -114q-5 -114 -71.5 -190t-172 -103t-235.5 -9l45 160q31 0 52.5 1.5t46 8
t39.5 17t26.5 30.5t13.5 48q2 17 -10 20t-72 2h-62z" />
    <glyph glyph-name="Scaron" unicode="&#x160;" horiz-adv-x="1249" 
d="M1061 1776l-334 -269h-168l-336 269l103 157l309 -155h16l312 155zM657 477l-280 123q-172 77 -244 174t-72 252q0 122 30 201t102 127.5t179 68t271 19.5q307 0 514 -72l-27 -285q-307 5 -497 5q-77 0 -104 -11t-27 -43q0 -29 25 -48.5t98 -47.5l256 -106
q175 -75 246 -174t71 -257q0 -162 -53 -254t-177.5 -135t-346.5 -43q-274 0 -547 70l26 311q407 -10 514 -10q84 0 112 10t28 39t-20 46.5t-77 39.5z" />
    <glyph glyph-name="scaron" unicode="&#x161;" horiz-adv-x="1132" 
d="M993 1391l-334 -269h-167l-336 269l102 157l309 -155h17l311 155zM543 356l-226 62q-82 24 -136 57t-82.5 77t-39 90.5t-10.5 111.5q0 72 24 125.5t78 93.5t147 60t226 20q127 0 279 -12.5t246 -32.5l-27 -250h-404h-26q-88 0 -107.5 -3.5t-19.5 -21.5q0 -13 11 -18
t54 -16q33 -9 56 -15l235 -59q141 -40 206 -110t65 -200q0 -192 -112 -265t-384 -73q-285 0 -533 43l27 250h365q153 0 187 4.5t34 26.5q0 4 -1 7.5t-3.5 6t-6 5t-10 5t-13 4t-18 5t-22 6t-27 7t-32.5 9.5z" />
    <glyph glyph-name="Tcedilla" unicode="&#x162;" horiz-adv-x="1275" 
d="M1255 1081h-395v-1081h-444v1081h-396v332h1235v-332zM442 -256l39 147q127 15 209 15t119 -34t33 -114q-5 -114 -72 -189.5t-172.5 -102.5t-235.5 -9l46 160q40 0 66 3t53 13t41.5 31.5t17.5 56.5q2 17 -11.5 20.5t-76.5 2.5h-56z" />
    <glyph glyph-name="tcedilla" unicode="&#x163;" horiz-adv-x="897" 
d="M625 766v-393q0 -40 20.5 -57t67.5 -17h108l47 -274q-61 -26 -163.5 -40t-184.5 -14q-150 0 -237.5 76.5t-87.5 210.5v508h-175v248l173 8v270h432v-268h247v-258h-247zM313 -254l39 148q127 15 209 14.5t119 -34.5t33 -114q-5 -114 -72 -189.5t-172.5 -102.5t-235.5 -9
l46 160q31 0 52.5 1.5t46 8t39.5 17t26.5 30.5t13.5 48q2 17 -10 20t-72 2h-62z" />
    <glyph glyph-name="Tcaron" unicode="&#x164;" horiz-adv-x="1275" 
d="M553 1507l-336 269l102 157l310 -155h16l311 155l99 -157l-334 -269h-168zM1255 1081h-395v-1081h-444v1081h-396v332h1235v-332z" />
    <glyph glyph-name="tcaron" unicode="&#x165;" horiz-adv-x="897" 
d="M752 1661h77q74 0 103.5 -24t30.5 -87v-98q0 -109 -30 -180t-95 -146l-146 39q33 80 37 211q-112 0 -115 99l7 75q2 63 30 87t101 24zM625 1024h247v-258h-247v-393q0 -40 20.5 -57t67.5 -17h108l47 -274q-61 -26 -163.5 -40t-184.5 -14q-150 0 -237.5 76.5t-87.5 210.5
v508h-175v248l173 8v270h432v-268z" />
    <glyph glyph-name="Tbar" unicode="&#x166;" horiz-adv-x="1284" 
d="M864 1081v-260h236v-192h-236v-629h-444v629h-240v192h240v260h-395v332h1235v-332h-396z" />
    <glyph glyph-name="tbar" unicode="&#x167;" horiz-adv-x="897" 
d="M625 766v-102h168v-193h-168v-98q0 -40 20.5 -57t67.5 -17h108l47 -274q-61 -26 -163.5 -40t-184.5 -14q-150 0 -237.5 76.5t-87.5 210.5v213h-115v193h115v102h-175v248l173 8v270h432v-268h247v-258h-247z" />
    <glyph glyph-name="Umacron" unicode="&#x16a;" horiz-adv-x="1443" 
d="M1053 1581h-656v252h656v-252zM1348 1413v-829q0 -338 -135.5 -475.5t-467.5 -137.5q-242 0 -382 60t-203.5 192.5t-63.5 360.5v829h445v-829q0 -169 37 -226t145 -57q73 0 110.5 24t53.5 83.5t16 175.5v829h445z" />
    <glyph glyph-name="umacron" unicode="&#x16b;" horiz-adv-x="1259" 
d="M963 1219h-656v251h656v-251zM1171 1024v-1024h-337l-39 150q-101 -92 -200 -135.5t-210 -43.5q-150 0 -226.5 73t-76.5 214v766h430v-629q0 -34 18 -48.5t58 -14.5q72 0 151 24v668h432z" />
    <glyph glyph-name="Uring" unicode="&#x16e;" horiz-adv-x="1443" 
d="M723 1972q108 0 186 -75.5t78 -180.5q0 -107 -78 -181.5t-186 -74.5t-186 74.5t-78 181.5q0 105 78 180.5t186 75.5zM723 1808q-37 0 -63.5 -27.5t-26.5 -64.5q0 -38 26.5 -65t63.5 -27t63.5 27t26.5 65q0 37 -26.5 64.5t-63.5 27.5zM1348 1413v-829
q0 -338 -135.5 -475.5t-467.5 -137.5q-242 0 -382 60t-203.5 192.5t-63.5 360.5v829h445v-829q0 -169 37 -226t145 -57q73 0 110.5 24t53.5 83.5t16 175.5v829h445z" />
    <glyph glyph-name="uring" unicode="&#x16f;" horiz-adv-x="1259" 
d="M633 1098q-108 0 -186 74.5t-78 181.5q0 105 78 180.5t186 75.5t186 -75.5t78 -180.5q0 -107 -78 -181.5t-186 -74.5zM633 1446q-37 0 -63.5 -27.5t-26.5 -64.5q0 -38 26.5 -65t63.5 -27t63.5 27t26.5 65q0 37 -26.5 64.5t-63.5 27.5zM1171 1024v-1024h-337l-39 150
q-101 -92 -200 -135.5t-210 -43.5q-150 0 -226.5 73t-76.5 214v766h430v-629q0 -34 18 -48.5t58 -14.5q72 0 151 24v668h432z" />
    <glyph glyph-name="Uhungarumlaut" unicode="&#x170;" horiz-adv-x="1443" 
d="M823 1810l-346 -360l-170 137l252 395zM1264 1810l-349 -360l-167 135l251 397zM1348 1413v-829q0 -338 -135.5 -475.5t-467.5 -137.5q-242 0 -382 60t-203.5 192.5t-63.5 360.5v829h445v-829q0 -169 37 -226t145 -57q73 0 110.5 24t53.5 83.5t16 175.5v829h445z" />
    <glyph glyph-name="uhungarumlaut" unicode="&#x171;" horiz-adv-x="1259" 
d="M387 1087l-170 138l252 395l264 -172zM657 1223l252 397l265 -172l-349 -361zM739 1024h432v-1024h-337l-39 150q-101 -92 -200 -135.5t-210 -43.5q-150 0 -226.5 73t-76.5 214v766h430v-629q0 -34 18 -48.5t58 -14.5q72 0 151 24v668z" />
    <glyph glyph-name="Uogonek" unicode="&#x172;" horiz-adv-x="1443" 
d="M1348 1413v-829q0 -320 -121 -459.5t-412 -151.5q-88 -161 -92 -170q-24 -51 4 -64t94 -3l25 -148q-167 -61 -264 -42.5t-132.5 80.5t-9.5 141q31 104 197 208q-295 19 -418 158t-123 451v829h445v-829q0 -169 37 -226t145 -57q73 0 110.5 24t53.5 83.5t16 175.5v829h445
z" />
    <glyph glyph-name="uogonek" unicode="&#x173;" horiz-adv-x="1259" 
d="M1174 -246l24 -147q-167 -61 -263.5 -42.5t-132 80t-9.5 140.5q16 51 68.5 107.5t139.5 107.5h-167l-39 150q-101 -92 -200 -135.5t-210 -43.5q-150 0 -226.5 73t-76.5 214v766h430v-629q0 -34 18 -48.5t58 -14.5q72 0 151 24v668h432v-1024q-73 -130 -96 -178
q-24 -51 5 -64.5t94 -3.5z" />
    <glyph glyph-name="Wcircumflex" unicode="&#x174;" horiz-adv-x="2054" 
d="M1462 1595l-98 -141l-326 191h-16l-332 -191l-102 158l286 272h312zM2013 1413l-176 -1294q-7 -53 -50 -86t-101 -33h-377q-58 0 -102 33t-50 86l-96 780q-10 82 -17 207h-34q-7 -125 -17 -209l-94 -778q-6 -53 -49.5 -86t-101.5 -33h-379q-58 0 -101.5 33t-50.5 86
l-176 1294h438l72 -866q8 -140 8 -236h33q33 236 33 238l94 733q6 58 47.5 94.5t101.5 36.5h318q60 0 100.5 -36t48.5 -95l97 -737q6 -60 30 -234h33q0 57 10 232l70 870h438z" />
    <glyph glyph-name="wcircumflex" unicode="&#x175;" horiz-adv-x="1794" 
d="M1335 1210l-98 -141l-326 191h-16l-332 -191l-102 158l287 272h311zM1778 1024l-209 -915q-10 -49 -48 -79t-91 -30h-302q-58 0 -99.5 35.5t-47.5 91.5l-59 465q-4 37 -13 180h-26q-5 -83 -15 -180l-59 -465q-6 -56 -47.5 -91.5t-99.5 -35.5h-297q-53 0 -91.5 30
t-48.5 79l-209 915h426l74 -575q12 -122 16 -183h25q2 27 5 57.5t7 68t6 57.5l58 450q6 55 47 90t98 35h236q57 0 98 -35t47 -92l55 -448q2 -23 10.5 -86t10.5 -97h25l18 183l72 575h428z" />
    <glyph glyph-name="Ycircumflex" unicode="&#x176;" horiz-adv-x="1339" 
d="M332 1454l-103 158l287 272h311l277 -289l-98 -141l-326 191h-16zM893 440v-440h-444v436l-469 977h456l178 -444q7 -17 13 -36.5t10.5 -43t7 -38.5t7 -43.5t5.5 -37.5h27q24 150 43 201l176 442h457z" />
    <glyph glyph-name="ycircumflex" unicode="&#x177;" horiz-adv-x="1232" 
d="M287 1069l-103 158l287 272h311l277 -289l-98 -141l-326 191h-17zM1237 1024l-326 -995q-14 -45 -32.5 -87t-44 -88t-58.5 -84.5t-73 -74.5t-90.5 -60.5t-107.5 -39.5t-128 -14.5t-148 16.5l-28 231q121 26 191 64.5t110 107.5h-70q-49 0 -85 27t-50 73l-303 924h457
l120 -565q12 -78 27 -193h18q16 58 43 193l121 565h457z" />
    <glyph glyph-name="Ydieresis" unicode="&#x178;" horiz-adv-x="1339" 
d="M543 1563h-142q-79 0 -79 79v130q0 79 79 79h142q80 0 80 -79v-130q0 -79 -80 -79zM930 1563h-142q-79 0 -79 79v130q0 79 79 79h142q80 0 80 -79v-130q0 -79 -80 -79zM893 440v-440h-444v436l-469 977h456l178 -444q7 -17 13 -36.5t10.5 -43t7 -38.5t7 -43.5t5.5 -37.5
h27q24 150 43 201l176 442h457z" />
    <glyph glyph-name="Zacute" unicode="&#x179;" horiz-adv-x="1239" 
d="M541 1475l-117 176l477 307l162 -272zM1182 311v-311h-1123v311l611 791h-590v311h1081v-311l-610 -791h631z" />
    <glyph glyph-name="zacute" unicode="&#x17a;" horiz-adv-x="1107" 
d="M473 1090l-117 176l478 307l161 -273zM1049 276v-276h-990v276l476 472h-463v276h964v-276l-475 -472h488z" />
    <glyph glyph-name="Zdotaccent" unicode="&#x17b;" horiz-adv-x="1239" 
d="M698 1540h-129q-120 0 -120 117v96q0 60 29 88.5t91 28.5h129q121 0 121 -117v-96q0 -117 -121 -117zM1182 311v-311h-1123v311l611 791h-590v311h1081v-311l-610 -791h631z" />
    <glyph glyph-name="zdotaccent" unicode="&#x17c;" horiz-adv-x="1107" 
d="M631 1155h-129q-121 0 -121 117v96q0 117 121 117h129q121 0 121 -117v-96q0 -117 -121 -117zM1049 276v-276h-990v276l476 472h-463v276h964v-276l-475 -472h488z" />
    <glyph glyph-name="Zcaron" unicode="&#x17d;" horiz-adv-x="1239" 
d="M549 1507l-336 269l102 157l310 -155h16l311 155l99 -157l-334 -269h-168zM1182 311v-311h-1123v311l611 791h-590v311h1081v-311l-610 -791h631z" />
    <glyph glyph-name="zcaron" unicode="&#x17e;" horiz-adv-x="1107" 
d="M481 1122l-336 269l103 157l309 -155h16l312 155l98 -157l-334 -269h-168zM1049 276v-276h-990v276l476 472h-463v276h964v-276l-475 -472h488z" />
    <glyph glyph-name="florin" unicode="&#x192;" horiz-adv-x="1050" 
d="M965 1155h-125q-47 0 -67.5 -23t-24.5 -83l-19 -209h193l-21 -258h-194l-54 -617q-31 -334 -393 -334q-65 0 -161.5 7.5t-153.5 21.5l63 258h125q47 0 67 23.5t25 83.5l49 557h-186l18 247l191 11l22 268q31 334 394 334q65 0 161.5 -7.5t153.5 -21.5z" />
    <glyph glyph-name="Scommaaccent" unicode="&#x218;" horiz-adv-x="1249" 
d="M657 477l-280 123q-172 77 -244 174t-72 252q0 122 30 201t102 127.5t179 68t271 19.5q307 0 514 -72l-27 -285q-307 5 -497 5q-77 0 -104 -11t-27 -43q0 -29 25 -48.5t98 -47.5l256 -106q175 -75 246 -174t71 -257q0 -162 -53 -254t-177.5 -135t-346.5 -43
q-274 0 -547 70l26 311q407 -10 514 -10q84 0 112 10t28 39t-20 46.5t-77 39.5zM522 -98h78q74 0 103 -24t30 -87v-98q0 -109 -30 -180t-95 -146l-145 39q33 80 37 211q-112 0 -115 98l6 76q2 63 30 87t101 24z" />
    <glyph glyph-name="scommaaccent" unicode="&#x219;" horiz-adv-x="1132" 
d="M543 356l-226 62q-82 24 -136 57t-82.5 77t-39 90.5t-10.5 111.5q0 72 24 125.5t78 93.5t147 60t226 20q127 0 279 -12.5t246 -32.5l-27 -250h-404h-26q-88 0 -107.5 -3.5t-19.5 -21.5q0 -13 11 -18t54 -16q33 -9 56 -15l235 -59q141 -40 206 -110t65 -200
q0 -192 -112 -265t-384 -73q-285 0 -533 43l27 250h365q153 0 187 4.5t34 26.5q0 4 -1 7.5t-3.5 6t-6 5t-10 5t-13 4t-18 5t-22 6t-27 7t-32.5 9.5zM504 -78h78q74 0 103 -23.5t30 -86.5v-99q0 -109 -30 -179.5t-95 -145.5l-146 39q33 80 37 211q-111 0 -114 98l6 76
q1 63 29 86.5t102 23.5z" />
    <glyph glyph-name="uni021A" unicode="&#x21a;" horiz-adv-x="1275" 
d="M1255 1081h-395v-1081h-444v1081h-396v332h1235v-332zM586 -98h78q74 0 103 -24t30 -87v-98q0 -109 -30 -180t-95 -146l-146 39q33 80 37 211q-111 0 -114 98l6 76q2 63 30 87t101 24z" />
    <glyph glyph-name="uni021B" unicode="&#x21b;" horiz-adv-x="897" 
d="M625 766v-393q0 -40 20.5 -57t67.5 -17h108l47 -274q-61 -26 -163.5 -40t-184.5 -14q-150 0 -237.5 76.5t-87.5 210.5v508h-175v248l173 8v270h432v-268h247v-258h-247zM453 -98h77q74 0 103.5 -24t30.5 -87v-98q0 -109 -30 -180t-95 -146l-146 39q33 80 37 211
q-112 0 -115 98l7 76q2 63 30 87t101 24z" />
    <glyph glyph-name="circumflex" unicode="&#x2c6;" horiz-adv-x="976" 
d="M924 1217l-99 -142l-325 191h-17l-331 -191l-103 158l287 272h311z" />
    <glyph glyph-name="caron" unicode="&#x2c7;" horiz-adv-x="976" 
d="M909 1386l-334 -268h-167l-336 268l102 158l309 -155h17l311 155z" />
    <glyph glyph-name="breve" unicode="&#x2d8;" horiz-adv-x="841" 
d="M588 1473l198 -27q12 -68 -8 -132t-66.5 -112.5t-122 -78t-167.5 -29.5q-122 0 -213 50t-131 130.5t-23 171.5l199 27q0 -65 38 -93t130 -28q90 0 128 28t38 93z" />
    <glyph glyph-name="dotaccent" unicode="&#x2d9;" horiz-adv-x="514" 
d="M193 1483h129q62 0 91 -28.5t29 -88.5v-96q0 -117 -120 -117h-129q-121 0 -121 117v96q0 117 121 117z" />
    <glyph glyph-name="ring" unicode="&#x2da;" horiz-adv-x="651" 
d="M326 1597q108 0 186 -75.5t78 -180.5q0 -107 -78 -181.5t-186 -74.5t-186.5 75t-78.5 181q0 105 78.5 180.5t186.5 75.5zM326 1434q-36 0 -63 -28t-27 -65q0 -38 26.5 -65t63.5 -27t63.5 27t26.5 65q0 37 -27 65t-63 28z" />
    <glyph glyph-name="ogonek" unicode="&#x2db;" horiz-adv-x="512" 
d="M285 4l164 -4q-80 -143 -97 -178q-24 -51 5 -64.5t94 -3.5l24 -147q-167 -61 -263.5 -42.5t-132 80t-9.5 140.5q16 52 70 109t145 110z" />
    <glyph glyph-name="tilde" unicode="&#x2dc;" horiz-adv-x="942" 
d="M270 1137h-178q-31 170 25.5 261.5t148.5 84.5q81 -6 201.5 -44.5t144.5 -43.5q13 -3 22.5 -2.5t16 1t10.5 7t6.5 10t3.5 16.5t1 20v26h178q31 -165 -21.5 -259t-152.5 -88q-80 6 -200 44.5t-148 43.5q-41 7 -49.5 -6t-8.5 -62v-9z" />
    <glyph glyph-name="hungarumlaut" unicode="&#x2dd;" horiz-adv-x="1120" 
d="M598 1376l-346 -360l-170 137l252 395zM1038 1376l-348 -360l-168 135l252 397z" />
    <glyph glyph-name="Delta" unicode="&#x394;" horiz-adv-x="1441" 
d="M1407 139v-139h-1372v139l467 1274h438zM913 311l-151 473q-16 59 -41 207q-36 -182 -43 -207l-150 -473h385z" />
    <glyph glyph-name="Omega" unicode="&#x3a9;" horiz-adv-x="1474" 
d="M74 332h139q81 0 154 -41q-105 87 -163.5 159.5t-88 164t-29.5 214.5q0 212 63.5 344.5t208 200.5t381.5 68q178 0 302.5 -37t201.5 -115.5t111.5 -193t34.5 -275.5q0 -125 -28.5 -215t-87.5 -162t-165 -153q83 41 154 41h139v-332h-625v311q87 85 118.5 182t31.5 269
q0 91 -5 149.5t-16.5 100.5t-34.5 63t-54 30t-79 9t-79 -9t-53.5 -30t-34 -63.5t-16.5 -101.5t-5 -152q0 -181 30.5 -267t118.5 -180v-311h-624v332z" />
    <glyph glyph-name="mu" unicode="&#x3bc;" horiz-adv-x="1337" 
d="M1210 1024v-1024h-336l-38 150q-172 -163 -363 -177q19 -65 19 -123v-219h-371v1393h430v-629q0 -33 19 -48t61 -15q70 0 149 24v668h430z" />
    <glyph glyph-name="pi" unicode="&#x3c0;" horiz-adv-x="1341" 
d="M1315 748h-131v-748h-430v748h-166v-748h-430v748h-131v278h1288v-278z" />
    <glyph glyph-name="uni0401" unicode="&#x401;" horiz-adv-x="1224" 
d="M539 1563h-142q-80 0 -80 79v130q0 79 80 79h142q79 0 79 -79v-130q0 -79 -79 -79zM926 1563h-142q-79 0 -79 79v130q0 79 79 79h142q80 0 80 -79v-130q0 -79 -80 -79zM1147 332l20 -314q-95 -12 -239 -18.5t-230.5 -7t-265.5 -0.5q-147 0 -239.5 89.5t-92.5 231.5v787
q0 142 92.5 231.5t239.5 89.5q179 0 265.5 -0.5t230.5 -7t239 -18.5l-20 -314h-518q-38 0 -61 -20.5t-23 -52.5v-138h528v-295h-528v-169q0 -33 23 -53.5t61 -20.5h518z" />
    <glyph glyph-name="uni0402" unicode="&#x402;" horiz-adv-x="1591" 
d="M854 1081v-231q84 37 181 58.5t161 21.5q134 0 211.5 -39.5t115.5 -135t38 -263.5q0 -121 -29 -213.5t-78.5 -151t-123 -95.5t-155.5 -51.5t-182 -13.5l-41 307q95 24 128.5 68.5t33.5 130.5q0 76 -17 95.5t-79 19.5q-84 0 -164 -23v-565h-444v1081h-390v332h1223v-332
h-389z" />
    <glyph glyph-name="uni0403" unicode="&#x403;" horiz-adv-x="1134" 
d="M1053 1686l-523 -211l-116 176l477 307zM111 0v1100q0 142 92 231.5t237 89.5q167 0 248.5 -0.5t215 -7.5t222.5 -20l-20 -312h-465q-39 0 -62.5 -20t-23.5 -53v-1008h-444z" />
    <glyph glyph-name="uni0404" unicode="&#x404;" horiz-adv-x="1243" 
d="M1163 367l33 -324q-105 -37 -213 -52.5t-268 -15.5q-241 0 -381 71.5t-204 229.5t-64 431t64 431t204 229t381 71q159 0 259.5 -12.5t211.5 -43.5l-33 -323q-290 4 -438 4q-94 0 -135.5 -42.5t-51.5 -160.5h551v-274h-553q7 -137 48 -186.5t141 -49.5q287 0 448 17z" />
    <glyph glyph-name="uni0405" unicode="&#x405;" horiz-adv-x="1249" 
d="M657 477l-280 123q-172 77 -244 174t-72 252q0 122 30 201t102 127.5t179 68t271 19.5q307 0 514 -72l-27 -285q-307 5 -497 5q-77 0 -104 -11t-27 -43q0 -29 25 -48.5t98 -47.5l256 -106q175 -75 246 -174t71 -257q0 -162 -53 -254t-177.5 -135t-346.5 -43
q-274 0 -547 70l26 311q407 -10 514 -10q84 0 112 10t28 39t-20 46.5t-77 39.5z" />
    <glyph glyph-name="uni0406" unicode="&#x406;" horiz-adv-x="673" 
d="M557 0h-440v1413h440v-1413z" />
    <glyph glyph-name="uni0407" unicode="&#x407;" horiz-adv-x="673" 
d="M70 1851h141q80 0 80 -79v-130q0 -79 -80 -79h-141q-80 0 -80 79v130q0 79 80 79zM457 1851h141q80 0 80 -79v-130q0 -79 -80 -79h-141q-80 0 -80 79v130q0 79 80 79zM557 0h-440v1413h440v-1413z" />
    <glyph glyph-name="uni0408" unicode="&#x408;" horiz-adv-x="835" 
d="M725 1413v-1153q0 -137 -100 -213t-275 -76q-80 0 -181 14.5t-149 39.5l48 278h96q62 0 91.5 17t29.5 55v1038h440z" />
    <glyph glyph-name="uni0409" unicode="&#x409;" horiz-adv-x="2013" 
d="M1321 928h90q162 0 266 -22t172 -77t95.5 -143.5t27.5 -226.5q0 -139 -27 -230.5t-88.5 -146t-149 -76.5t-218.5 -22q-384 0 -594 16h-12v1122h-72q-87 0 -96 -94q-16 -182 -25.5 -273t-28.5 -213t-43 -206q-67 -231 -204.5 -308.5t-362.5 -37.5l-31 303q40 7 64 14.5
t51 24.5t46.5 47t35.5 76q28 81 45 227.5t35 396.5q24 334 348 334h676v-485zM1321 291h90q72 0 93.5 34.5t21.5 147.5q0 114 -22 150t-93 36h-90v-368z" />
    <glyph glyph-name="uni040A" unicode="&#x40a;" horiz-adv-x="1994" 
d="M1307 893h110q124 0 211.5 -13.5t152 -43.5t102 -81.5t55.5 -123.5t18 -174q0 -138 -26.5 -229.5t-85.5 -145.5t-141.5 -76t-205.5 -22q-406 0 -616 16h-13v604h-305v-604h-446v1413h446v-518h305v518h439v-520zM1307 291h110q58 0 75 33t17 137q0 100 -17 132t-75 32
h-110v-334z" />
    <glyph glyph-name="uni040B" unicode="&#x40b;" horiz-adv-x="1658" 
d="M854 1081v-194q90 29 192.5 46t159.5 17q204 0 300 -89t96 -279v-582h-447v485q0 63 -21.5 83t-93.5 20h-186v-588h-444v1081h-390v332h1223v-332h-389z" />
    <glyph glyph-name="uni040C" unicode="&#x40c;" horiz-adv-x="1394" 
d="M635 1475l-117 176l477 307l162 -272zM903 743v-12q66 -10 107.5 -21t81 -32t63.5 -49.5t50.5 -77.5t47.5 -111.5t49 -155t60 -205.5q14 -52 22 -79h-462q-94 349 -119 421q-40 113 -87 144q-38 25 -124 25h-47q16 -72 16 -129v-461h-444v1413h444v-356q0 -96 -20 -180
h45q127 0 171 78.5t121 397.5q10 39 15 60h450q-19 -64 -51 -174q-26 -92 -38 -133t-33.5 -102.5t-33.5 -84.5t-35 -59.5t-43 -48t-52.5 -29t-68 -25t-85.5 -14.5z" />
    <glyph glyph-name="uni040D" unicode="&#x40d;" horiz-adv-x="1503" 
d="M975 1651l-117 -176l-522 211l162 272zM1386 0h-421v649q0 83 22 219h-14q-38 -127 -86 -217l-346 -651h-424v1413h422v-627q0 -80 -23 -229h14q39 120 91 217l344 639h421v-1413z" />
    <glyph glyph-name="uni040E" unicode="&#x40e;" horiz-adv-x="1275" 
d="M813 1888l199 -26q17 -91 -22.5 -171.5t-130 -131t-212.5 -50.5t-213 50.5t-130.5 131t-22.5 171.5l198 26q0 -65 38 -93t130 -28q90 0 128 28t38 93zM1290 1413l-307 -1030q-61 -211 -143 -303t-246 -109q-151 -15 -436 29l47 303q197 -4 220 -2q80 4 103 40q5 9 9 19
l8 33h-84q-92 0 -143 49.5t-78 143.5l-254 827h454l160 -686q3 -22 33 -22h18l185 708h454z" />
    <glyph glyph-name="uni040F" unicode="&#x40f;" horiz-adv-x="1476" 
d="M1360 1413v-1413h-447l-16 -309h-303l-16 309h-461v1413h444v-1122h354v1122h445z" />
    <glyph glyph-name="uni0410" unicode="&#x410;" horiz-adv-x="1398" 
d="M893 305h-387l-72 -305h-452l366 1298q13 52 54.5 83.5t95.5 31.5h403q54 0 95.5 -31.5t54.5 -83.5l366 -1298h-452zM821 616l-69 304q-21 105 -25 161h-55q-10 -84 -25 -161l-69 -304h243z" />
    <glyph glyph-name="uni0411" unicode="&#x411;" horiz-adv-x="1327" 
d="M559 866h141q112 0 195.5 -8.5t150.5 -29.5t111.5 -53.5t74 -81.5t42 -113t12.5 -150q0 -129 -30.5 -215.5t-98 -137.5t-162.5 -72t-235 -21q-412 0 -633 16h-12v1413q255 17 526 17q246 0 545 -17l-33 -317h-594v-230zM559 291h141q89 0 115.5 29.5t26.5 123.5
q0 95 -27 124.5t-115 29.5h-141v-307z" />
    <glyph glyph-name="uni0412" unicode="&#x412;" horiz-adv-x="1359" 
d="M999 739v-12q163 -13 234.5 -106.5t71.5 -268.5q0 -109 -29.5 -180.5t-95 -113t-157.5 -58t-230 -16.5q-448 0 -678 16v1413q221 17 610 17q153 0 250 -16.5t162.5 -59t92.5 -113t27 -180.5q0 -155 -60.5 -232.5t-197.5 -89.5zM549 862h158q77 0 102 26t25 109
q0 81 -26 106t-106 25h-153v-266zM549 285h164q92 0 120.5 30t28.5 127q0 99 -29 129.5t-122 30.5h-162v-317z" />
    <glyph glyph-name="uni0413" unicode="&#x413;" horiz-adv-x="1134" 
d="M111 0v1100q0 142 92 231.5t237 89.5q167 0 248.5 -0.5t215 -7.5t222.5 -20l-20 -312h-465q-39 0 -62.5 -20t-23.5 -53v-1008h-444z" />
    <glyph glyph-name="uni0414" unicode="&#x414;" horiz-adv-x="1603" 
d="M1579 291v-600h-322l-30 309h-852l-31 -309h-321v600h155q123 351 172 809q14 137 109.5 225t240.5 88h684v-1122h195zM940 291v831h-84q-85 0 -94 -98q-30 -278 -66 -440.5t-100 -292.5h344z" />
    <glyph glyph-name="uni0415" unicode="&#x415;" horiz-adv-x="1224" 
d="M1147 332l20 -314q-95 -12 -239 -18.5t-230.5 -7t-265.5 -0.5q-147 0 -239.5 89.5t-92.5 231.5v787q0 142 92.5 231.5t239.5 89.5q179 0 265.5 -0.5t230.5 -7t239 -18.5l-20 -314h-518q-38 0 -61 -20.5t-23 -52.5v-138h528v-295h-528v-169q0 -33 23 -53.5t61 -20.5h518z
" />
    <glyph glyph-name="uni0416" unicode="&#x416;" horiz-adv-x="1982" 
d="M1505 743v-12q55 -9 91.5 -17t72 -26.5t57 -35.5t46.5 -56t40.5 -76t38.5 -107t41.5 -136.5t48.5 -177.5q17 -64 27 -99h-465q-20 70 -54 186q-82 284 -112.5 344t-103.5 60h-47q16 -72 16 -129v-461h-424v461q0 44 19 129h-49q-70 0 -101 -61t-118 -360
q-31 -106 -50 -169h-465q101 366 127 443q51 150 113 206q57 52 179 75q20 3 44 7v12q-177 26 -231.5 103t-137.5 379q-33 118 -53 188h451q16 -56 42 -151q69 -256 101 -320.5t101 -64.5h51q-21 89 -21 180v356h422v-356q0 -91 -18 -180h45q70 0 102 63.5t103 320.5
q27 96 43 152h450q-20 -70 -53 -188q-32 -118 -46.5 -167t-40 -116t-44.5 -89t-55.5 -51t-77.5 -39.5t-105 -19.5z" />
    <glyph glyph-name="uni0417" unicode="&#x417;" horiz-adv-x="1200" 
d="M96 1079l-33 303q206 48 517 48q148 0 242 -16.5t157 -59t89 -113t26 -180.5q0 -155 -57.5 -232.5t-188.5 -89.5v-12q156 -13 223.5 -106t67.5 -269q0 -87 -19 -150t-56 -105t-98 -67t-138 -35.5t-183 -10.5q-201 0 -337 17t-267 60l33 289q292 -47 483 -47
q76 0 101.5 28t25.5 111q0 87 -25.5 115.5t-103.5 30.5l-311 6v276l307 7q63 2 83.5 25t20.5 95q0 68 -21 90.5t-85 22.5q-177 0 -453 -31z" />
    <glyph glyph-name="uni0418" unicode="&#x418;" horiz-adv-x="1503" 
d="M1386 0h-421v649q0 83 22 219h-14q-38 -127 -86 -217l-346 -651h-424v1413h422v-627q0 -80 -23 -229h14q39 120 91 217l344 639h421v-1413z" />
    <glyph glyph-name="uni0419" unicode="&#x419;" horiz-adv-x="1503" 
d="M874 1864h261q17 -88 -22.5 -169.5t-130.5 -133.5t-212 -52q-122 0 -213 52t-131 133.5t-23 169.5h261q-11 -90 15.5 -124t90.5 -34q63 0 89 34t15 124zM1386 0h-421v649q0 83 22 219h-14q-38 -127 -86 -217l-346 -651h-424v1413h422v-627q0 -80 -23 -229h14
q39 120 91 217l344 639h421v-1413z" />
    <glyph glyph-name="uni041A" unicode="&#x41a;" horiz-adv-x="1394" 
d="M903 743v-12q66 -10 107.5 -21t81 -32t63.5 -49.5t50.5 -77.5t47.5 -111.5t49 -155t60 -205.5q14 -52 22 -79h-462q-94 349 -119 421q-40 113 -87 144q-38 25 -124 25h-47q16 -72 16 -129v-461h-444v1413h444v-356q0 -96 -20 -180h45q127 0 171 78.5t121 397.5
q10 39 15 60h450q-19 -64 -51 -174q-26 -92 -38 -133t-33.5 -102.5t-33.5 -84.5t-35 -59.5t-43 -48t-52.5 -29t-68 -25t-85.5 -14.5z" />
    <glyph glyph-name="uni041B" unicode="&#x41b;" horiz-adv-x="1454" 
d="M1337 1413v-1413h-444v1122h-86q-103 0 -109 -94q-36 -486 -98 -692q-35 -120 -92.5 -199t-130 -115t-163 -44.5t-191.5 12.5l-31 344q43 4 68.5 9.5t54.5 17.5t47.5 35.5t30.5 58.5q57 165 86 604q11 175 105 264.5t267 89.5h686z" />
    <glyph glyph-name="uni041C" unicode="&#x41c;" horiz-adv-x="1966" 
d="M1280 1413h391q150 0 156 -153l49 -1260h-399l-43 1081h-31l-139 -721q-21 -135 -168 -135h-230q-146 0 -170 135l-141 721h-31l-35 -1081h-399l49 1260q6 153 156 153h383q144 0 168 -137l102 -561q12 -86 23 -211h18q21 180 25 211l96 561q24 137 170 137z" />
    <glyph glyph-name="uni041D" unicode="&#x41d;" horiz-adv-x="1478" 
d="M1362 1413v-1413h-444v594h-357v-594h-444v1413h444v-508h357v508h444z" />
    <glyph glyph-name="uni041E" unicode="&#x41e;" horiz-adv-x="1447" 
d="M723 1442q151 0 255.5 -21t185 -70t127 -134.5t69 -209t22.5 -300.5q0 -147 -15 -256.5t-48.5 -192.5t-83.5 -137.5t-126 -88t-168.5 -47.5t-217.5 -14q-150 0 -254.5 21t-184.5 70t-126.5 135t-69 209.5t-22.5 300.5t22.5 300.5t69 209t126.5 134.5t184.5 70t254.5 21z
M723 1112q-79 0 -118.5 -34t-56 -118.5t-16.5 -252.5t16.5 -253t56.5 -119t118 -34t117.5 34t56 119t16.5 253q0 102 -5.5 169t-17.5 115t-35 73.5t-54 36.5t-78 11z" />
    <glyph glyph-name="uni041F" unicode="&#x41f;" horiz-adv-x="1470" 
d="M1354 1413v-1413h-445v1122h-348v-1122h-444v1413h1237z" />
    <glyph glyph-name="uni0420" unicode="&#x420;" horiz-adv-x="1331" 
d="M115 0v1413q219 21 598 21q139 0 234 -14.5t165.5 -46.5t109.5 -89t57.5 -136.5t18.5 -195.5q0 -141 -26.5 -232t-91 -146t-160.5 -77t-246 -22q-110 0 -215 12v-487h-444zM559 788h143q91 0 121.5 33t30.5 131q0 101 -30.5 134.5t-121.5 33.5h-143v-332z" />
    <glyph glyph-name="uni0421" unicode="&#x421;" horiz-adv-x="1239" 
d="M1169 367l33 -324q-108 -37 -219.5 -52.5t-275.5 -15.5q-179 0 -298.5 38t-197.5 126t-111.5 225.5t-33.5 342.5q0 272 63.5 430.5t201.5 229.5t376 71q158 0 255 -12.5t209 -43.5l-32 -323q-286 4 -432 4q-72 0 -108 -30t-51.5 -104.5t-15.5 -221.5t15.5 -221.5
t51.5 -105t108 -30.5q296 0 462 17z" />
    <glyph glyph-name="uni0422" unicode="&#x422;" horiz-adv-x="1275" 
d="M1255 1081h-395v-1081h-444v1081h-396v332h1235v-332z" />
    <glyph glyph-name="uni0423" unicode="&#x423;" horiz-adv-x="1275" 
d="M1290 1413l-307 -1030q-61 -211 -143 -303t-246 -109q-151 -15 -436 29l47 303q197 -4 220 -2q80 4 103 40q5 9 9 19l8 33h-84q-92 0 -143 49.5t-78 143.5l-254 827h454l160 -686q3 -22 33 -22h18l185 708h454z" />
    <glyph glyph-name="uni0424" unicode="&#x424;" horiz-adv-x="1796" 
d="M1120 1503v-170q181 -13 301 -49.5t197.5 -109.5t111 -180.5t33.5 -266.5q0 -204 -63 -325t-201.5 -182.5t-378.5 -78.5v-170h-444v170q-355 23 -499 153.5t-144 432.5q0 159 33.5 266.5t111 180.5t197.5 109.5t301 49.5v170h444zM696 453v569q-71 -8 -113 -25t-66 -54
t-32 -85.5t-8 -130.5q0 -76 8 -121.5t32 -79.5t66.5 -50t112.5 -23zM1100 1022v-569q70 7 112 23t66.5 50t32.5 80t8 121q0 81 -8 130.5t-32.5 86t-66.5 53.5t-112 25z" />
    <glyph glyph-name="uni0425" unicode="&#x425;" horiz-adv-x="1386" 
d="M956 0l-262 594l-264 -594h-440l350 721l-322 692h439l237 -559l236 559h438l-321 -692l350 -721h-441z" />
    <glyph glyph-name="uni0426" unicode="&#x426;" horiz-adv-x="1503" 
d="M1477 291v-600h-322l-31 309h-1007v1413h444v-1122h316v1122h444v-1122h156z" />
    <glyph glyph-name="uni0427" unicode="&#x427;" horiz-adv-x="1421" 
d="M1305 1413v-1413h-445v537q-97 -45 -202 -70t-185 -25q-207 0 -304 89.5t-97 279.5v602h444v-506q-4 -61 20.5 -81.5t100.5 -20.5q125 0 223 29v579h445z" />
    <glyph glyph-name="uni0428" unicode="&#x428;" horiz-adv-x="2086" 
d="M1970 1413v-1413h-1853v1413h434v-1122h276v1122h433v-1122h276v1122h434z" />
    <glyph glyph-name="uni0429" unicode="&#x429;" horiz-adv-x="2146" 
d="M2118 291v-600h-322l-31 309h-1648v1413h434v-1122h272v1122h434v-1122h273v1122h434v-1122h154z" />
    <glyph glyph-name="uni042A" unicode="&#x42a;" horiz-adv-x="1609" 
d="M893 928h113q163 0 267.5 -22t172.5 -77t95.5 -144t27.5 -228q0 -138 -28 -229.5t-89.5 -145.5t-149 -76t-217.5 -22q-413 0 -626 16h-13v1081h-428v332h875v-485zM893 291h113q73 0 94.5 34.5t21.5 147.5q0 114 -21.5 150t-94.5 36h-113v-368z" />
    <glyph glyph-name="uni042B" unicode="&#x42b;" horiz-adv-x="1955" 
d="M563 928h115q164 0 268.5 -22t173 -77t96 -144t27.5 -228q0 -138 -28 -229.5t-89.5 -145.5t-149 -76t-218.5 -22q-416 0 -629 16h-12v1413h446v-485zM1839 1413v-1413h-446v1413h446zM563 291h115q75 0 97 34.5t22 147.5q0 114 -22.5 150t-96.5 36h-115v-368z" />
    <glyph glyph-name="uni042C" unicode="&#x42c;" horiz-adv-x="1298" 
d="M561 928h125q166 0 271.5 -22t174.5 -77t97 -144t28 -228q0 -138 -28 -229.5t-90.5 -145.5t-151.5 -76t-221 -22q-422 0 -637 16h-12v1413h444v-485zM561 291h125q79 0 103 34.5t24 147.5q0 114 -24 150t-103 36h-125v-368z" />
    <glyph glyph-name="uni042D" unicode="&#x42d;" horiz-adv-x="1243" 
d="M90 1059l-33 323q111 31 211.5 43.5t259.5 12.5q241 0 381 -71t204.5 -229.5t64.5 -430.5q0 -205 -34.5 -342.5t-113 -225.5t-200 -126t-302.5 -38q-160 0 -268 15.5t-213 52.5l33 324q162 -17 448 -17q100 0 141 49.5t48 186.5h-553v274h551q-10 118 -51.5 160.5
t-135.5 42.5q-148 0 -438 -4z" />
    <glyph glyph-name="uni042E" unicode="&#x42e;" horiz-adv-x="2091" 
d="M563 874h207q12 167 50 276t113 174.5t179 91.5t260 26q124 0 215.5 -14t167 -47.5t125 -87.5t83 -137t48 -192.5t14.5 -256.5t-14.5 -256.5t-48 -192.5t-83 -137.5t-125 -88t-167 -47.5t-215.5 -14q-162 0 -268 28t-181.5 98.5t-111.5 188t-45 298.5h-203v-584h-446
v1413h446v-539zM1372 301q76 0 113.5 34.5t53 118.5t15.5 253t-15.5 253t-53 118t-113.5 34q-74 0 -110 -34.5t-50 -117.5t-14 -253t14 -253.5t50.5 -118t109.5 -34.5z" />
    <glyph glyph-name="uni042F" unicode="&#x42f;" horiz-adv-x="1359" 
d="M358 655v13q-274 30 -274 336q0 124 33 206.5t106.5 132t179 70.5t261.5 21q369 0 581 -21v-1413h-444v516h-111q-55 0 -77.5 -19t-32.5 -77l-88 -420h-465l106 434q38 196 225 221zM801 829v291h-127q-88 0 -116 -28.5t-28 -116.5t28.5 -117t115.5 -29h127z" />
    <glyph glyph-name="uni0430" unicode="&#x430;" horiz-adv-x="1216" 
d="M139 729l-39 272q115 21 290 36.5t294 15.5q228 0 338.5 -94t110.5 -324v-635h-342l-39 143q-137 -172 -355 -172q-97 0 -175.5 31.5t-127.5 99t-49 160.5v103q0 123 90.5 193.5t247.5 70.5h319v8q-2 55 -28 78.5t-92 23.5q-226 0 -443 -10zM463 358v-32
q0 -29 22.5 -46.5t63.5 -17.5q69 0 153 51v109h-161q-37 0 -57.5 -17.5t-20.5 -46.5z" />
    <glyph glyph-name="uni0431" unicode="&#x431;" horiz-adv-x="1259" 
d="M1087 1518l58 -326q-69 -36 -148 -51t-138.5 -13.5t-134 -1.5t-128.5 -18q-121 -34 -160 -84q-18 -21 -28.5 -47.5t-14.5 -46t-10 -62.5h8q68 64 150 91.5t200 27.5q256 0 359.5 -110.5t103.5 -370.5q0 -277 -125 -404t-420 -127q-120 0 -212 19t-154 47t-104.5 81.5
t-65.5 101t-34.5 128.5t-14 140t-2.5 159q0 121 9 214t33.5 184t66 157.5t108.5 121t160 87.5q73 26 163 37t160.5 12t157.5 13.5t157 40.5zM635 741q-54 0 -79 -18t-34.5 -65t-9.5 -148q0 -105 10.5 -155.5t35 -69.5t75.5 -19t75.5 19t35 69.5t10.5 155.5q0 100 -10.5 148
t-34.5 65.5t-74 17.5z" />
    <glyph glyph-name="uni0432" unicode="&#x432;" horiz-adv-x="1214" 
d="M903 532v-10q143 -9 205.5 -75.5t62.5 -192.5q0 -156 -104.5 -214t-345.5 -58q-406 0 -627 12v1030q199 12 565 12q267 0 369 -56.5t102 -215.5q0 -111 -53 -167t-174 -65zM498 631h145q54 0 72 14.5t18 56.5q0 43 -19 57.5t-75 14.5h-141v-143zM498 250h147q58 0 79 18
t21 72q0 50 -21.5 67t-80.5 17h-145v-174z" />
    <glyph glyph-name="uni0433" unicode="&#x433;" horiz-adv-x="1009" 
d="M88 0v770q0 140 72.5 205t226.5 65q148 0 222.5 -1t193.5 -9t196 -24l-20 -299h-395q-38 0 -54 -14t-16 -48v-645h-426z" />
    <glyph glyph-name="uni0434" unicode="&#x434;" horiz-adv-x="1378" 
d="M1354 279v-558h-285l-29 279h-706l-29 -279h-285v558h125q67 197 119 495q21 126 93.5 188t207.5 62h613v-745h176zM774 279v483h-57q-71 0 -82 -72q-44 -252 -109 -411h248z" />
    <glyph glyph-name="uni0435" unicode="&#x435;" 
d="M768 418h-256q12 -63 50 -88t120 -25q191 0 416 23l39 -258q-186 -95 -502 -95q-313 0 -448.5 130t-135.5 399q0 302 131.5 425.5t450.5 123.5q190 0 308.5 -42t170.5 -121t53 -202q2 -145 -86.5 -207.5t-310.5 -62.5zM504 621h143q70 0 88.5 12.5t18.5 64.5
q0 48 -23.5 63t-85.5 15q-81 2 -109 -26t-32 -129z" />
    <glyph glyph-name="uni0436" unicode="&#x436;" horiz-adv-x="1753" 
d="M1343 541v-13q127 -20 158 -30q61 -21 97 -83q38 -65 107 -294q10 -34 36 -121h-434q-97 300 -120 347q-20 43 -44 49q-3 1 -6 1h-82q10 -52 10 -82v-315h-377v315q0 35 12 82h-82q-30 -4 -55 -65t-114 -332h-435v1l1 1v1v1l1 1v1v1v1l1 1v1v1l1 1v1v1v1l1 1v1v1l1 1
q84 285 116 356q38 83 90 111q37 20 147 36h1h1l1 1h1h1h1h1h1q20 3 31 5v13q-124 16 -160 32q-50 22 -82 84q-26 52 -90 261q-20 65 -33 106h422q80 -260 102 -305q21 -45 49 -52q11 -3 42 -3h43q-15 68 -15 133v227h375v-227q0 -54 -14 -133h39q62 0 84.5 38t92.5 267
q11 36 17 55h422q-13 -42 -35 -114q-24 -79 -33.5 -112.5t-30 -83t-24.5 -63.5t-30 -40.5t-32 -30t-44.5 -15.5t-54 -13.5t-73.5 -9.5q-4 -1 -6 -1z" />
    <glyph glyph-name="uni0437" unicode="&#x437;" horiz-adv-x="1095" 
d="M86 723l-27 274q187 56 406 56q104 0 174.5 -3.5t137 -14t106.5 -30t70.5 -51t43.5 -76.5t13 -108q0 -120 -53 -174.5t-173 -63.5v-10q140 -9 203.5 -74t63.5 -192q0 -54 -11.5 -96t-31 -72.5t-54 -51.5t-72 -33.5t-94 -19.5t-111.5 -9.5t-132 -2.5q-296 0 -506 49
l27 275q247 -25 448 -25q63 0 80.5 10.5t17.5 55.5q0 34 -16.5 42t-83.5 11l-344 8v240l342 8q52 3 66 10.5t14 38.5q0 37 -16 45.5t-80 8.5q-188 0 -408 -25z" />
    <glyph glyph-name="uni0438" unicode="&#x438;" horiz-adv-x="1294" 
d="M1200 0l-383 -4v401q0 71 17 193h-11q-30 -100 -86 -184l-262 -406h-381v1024h381v-428q0 -65 -16 -166h10q17 59 73 150q5 6 7 10l270 434h381v-1024z" />
    <glyph glyph-name="uni0439" unicode="&#x439;" horiz-adv-x="1294" 
d="M754 1479h260q17 -88 -22.5 -169.5t-130.5 -133.5t-212 -52q-92 0 -168 31t-122.5 80.5t-67 113.5t-8.5 130h260q-11 -90 15.5 -124t90.5 -34q63 0 89.5 34t15.5 124zM1200 0l-383 -4v401q0 71 17 193h-11q-30 -100 -86 -184l-262 -406h-381v1024h381v-428
q0 -65 -16 -166h10q17 59 73 150q5 6 7 10l270 434h381v-1024z" />
    <glyph glyph-name="uni043A" unicode="&#x43a;" horiz-adv-x="1216" 
d="M821 539v-13q125 -20 147 -27q60 -18 94 -73q37 -60 97 -274q11 -39 43 -152h-446q-70 265 -92 325t-58 66h-94q10 -48 10 -80v-311h-428v1024h428v-223q0 -69 -14 -135h37q30 0 45.5 2t32 11t25 26.5t19.5 49t22 78.5t27 116q11 48 17 75h434q-16 -55 -42 -146
q-27 -94 -37.5 -131t-31.5 -84.5t-31.5 -58.5t-42 -28.5t-57.5 -21t-83 -12.5z" />
    <glyph glyph-name="uni043B" unicode="&#x43b;" horiz-adv-x="1273" 
d="M1180 1024v-1024h-428v745h-54q-80 0 -86 -71q-16 -157 -51 -404q-11 -83 -45.5 -143t-83 -93t-112 -48t-130 -13t-141.5 17l-43 313q14 2 38 3.5t37.5 3t31.5 6t28.5 12t20 22t14.5 35.5q26 103 45 373q18 266 281 266h678z" />
    <glyph glyph-name="uni043C" unicode="&#x43c;" horiz-adv-x="1683" 
d="M1075 1024h361q142 0 145 -145l23 -879h-390l-22 713h-23l-84 -432q-21 -131 -159 -131h-170q-141 0 -162 131l-86 432h-23l-14 -713h-389l20 879q3 145 148 145h352q140 0 158 -133l59 -320q6 -29 15 -155h12q2 17 5 71t9 84l55 320q18 133 160 133z" />
    <glyph glyph-name="uni043D" unicode="&#x43d;" horiz-adv-x="1286" 
d="M1192 1024v-1024h-422v399h-252v-399h-424v1024h424v-348h252v348h422z" />
    <glyph glyph-name="uni043E" unicode="&#x43e;" horiz-adv-x="1251" 
d="M627 1053q314 0 442.5 -122t128.5 -421q0 -294 -128.5 -414.5t-442.5 -120.5q-315 0 -444.5 120.5t-129.5 414.5q0 299 129.5 421t444.5 122zM627 762q-52 0 -77 -20t-35.5 -72t-10.5 -160q0 -105 10.5 -155.5t35.5 -69.5t77 -19q51 0 75.5 19t35 69.5t10.5 155.5
q0 108 -10.5 160.5t-35 72t-75.5 19.5z" />
    <glyph glyph-name="uni043F" unicode="&#x43f;" horiz-adv-x="1271" 
d="M1178 1026v-1026h-418v748h-248v-748h-418v1026h1084z" />
    <glyph glyph-name="uni0440" unicode="&#x440;" horiz-adv-x="1275" 
d="M438 1024l35 -139q49 70 153 117t224 47q194 0 281.5 -139.5t87.5 -409.5q0 -156 -24 -260.5t-75.5 -163t-120 -82t-168.5 -23.5q-197 0 -313 86q8 -146 6 -223v-203h-430v1393h344zM524 702v-423q71 -27 135 -27q35 0 54.5 7.5t35 32.5t21.5 73.5t6 130.5
q0 108 -12.5 161.5t-33.5 67.5t-64 14q-32 0 -59.5 -6t-41 -11.5t-41.5 -19.5z" />
    <glyph glyph-name="uni0441" unicode="&#x441;" horiz-adv-x="1081" 
d="M1006 330l38 -269q-165 -86 -446 -86q-300 0 -422.5 121t-122.5 418q0 296 123.5 417.5t425.5 121.5q270 0 428 -76l-43 -266h-311q-100 0 -136 -40t-36 -157q0 -118 36 -158.5t136 -40.5q192 0 330 15z" />
    <glyph glyph-name="uni0442" unicode="&#x442;" horiz-adv-x="1099" 
d="M1077 705h-313v-705h-428v705h-313v319h1054v-319z" />
    <glyph glyph-name="uni0443" unicode="&#x443;" horiz-adv-x="1232" 
d="M1237 1024l-326 -995q-32 -107 -74.5 -184t-96.5 -124.5t-108.5 -75t-127.5 -48.5q-187 -52 -422 0l33 272q207 -3 303 45q47 23 86 86h-72q-49 0 -85 27t-50 73l-303 924h457l120 -565q12 -78 27 -193h18q18 67 43 193l121 565h457z" />
    <glyph glyph-name="uni0444" unicode="&#x444;" horiz-adv-x="1597" 
d="M989 1434v-387q300 -26 427.5 -150.5t127.5 -386.5q0 -259 -127.5 -381t-427.5 -147v-351h-383v351q-300 26 -427.5 148.5t-127.5 379.5q0 262 127.5 385.5t427.5 148.5v390h383zM969 772v-516q99 17 134.5 72t35.5 182q0 130 -35.5 187t-134.5 75zM627 256v516
q-99 -18 -134.5 -75t-35.5 -187q0 -127 35.5 -182t134.5 -72z" />
    <glyph glyph-name="uni0445" unicode="&#x445;" horiz-adv-x="1241" 
d="M821 0l-200 385l-201 -385h-426l297 522l-275 502h424l181 -358l180 358h424l-275 -502l297 -522h-426z" />
    <glyph glyph-name="uni0446" unicode="&#x446;" horiz-adv-x="1349" 
d="M1323 279v-558h-285l-28 279h-916v1024h424v-745h217v745h424v-745h164z" />
    <glyph glyph-name="uni0447" unicode="&#x447;" horiz-adv-x="1239" 
d="M1145 1024v-1024h-428v340q-145 -51 -301 -51q-183 0 -268 58.5t-85 184.5v492h429v-367q0 -32 16 -46.5t55 -14.5q80 0 154 29v399h428z" />
    <glyph glyph-name="uni0448" unicode="&#x448;" horiz-adv-x="1781" 
d="M1688 1024v-1024h-1594v1024h414v-745h194v745h377v-745h195v745h414z" />
    <glyph glyph-name="uni0449" unicode="&#x449;" horiz-adv-x="1871" 
d="M1845 279v-558h-284l-29 279h-1438v1024h414v-745h192v745h377v-745h193v745h413v-745h162z" />
    <glyph glyph-name="uni044A" unicode="&#x44a;" horiz-adv-x="1398" 
d="M768 702h70q155 0 252.5 -16t161 -57t89 -108.5t25.5 -174.5q0 -104 -26.5 -173.5t-84.5 -110t-139.5 -57.5t-202.5 -17q-354 0 -546 12h-13v717h-331v307h745v-322zM768 262h70q61 0 78.5 18.5t17.5 81.5q0 66 -16.5 84.5t-79.5 18.5h-70v-203z" />
    <glyph glyph-name="uni044B" unicode="&#x44b;" horiz-adv-x="1724" 
d="M508 702h72q155 0 252.5 -16t162 -57t90 -108.5t25.5 -174.5q0 -104 -26.5 -173.5t-84.5 -110t-140 -57.5t-204 -17q-355 0 -549 12h-12v1024h414v-322zM1630 1024v-1024h-432v1024h432zM508 262h72q63 0 80.5 18.5t17.5 81.5q0 67 -17 85t-81 18h-72v-203z" />
    <glyph glyph-name="uni044C" unicode="&#x44c;" horiz-adv-x="1153" 
d="M506 702h80q157 0 255.5 -16t163 -57t90 -108.5t25.5 -174.5q0 -104 -26.5 -173.5t-85.5 -110t-142.5 -57.5t-206.5 -17q-359 0 -553 12h-12v1024h412v-322zM506 262h80q66 0 85 18.5t19 81.5q0 66 -19 84.5t-85 18.5h-80v-203z" />
    <glyph glyph-name="uni044D" unicode="&#x44d;" horiz-adv-x="1155" 
d="M84 731l-33 258q184 64 443 64q171 0 284 -27.5t187 -92.5t105.5 -167.5t31.5 -257.5q0 -297 -136.5 -417t-471.5 -120q-264 0 -451 68l31 264q169 -8 420 -8q96 0 130 18t42 93h-514v225h510q-13 63 -48.5 81.5t-119.5 18.5q-60 0 -144 -0.5t-145 -0.5t-121 1z" />
    <glyph glyph-name="uni044E" unicode="&#x44e;" horiz-adv-x="1781" 
d="M524 662h146q12 118 45.5 194t97.5 119.5t149.5 60.5t215.5 17q104 0 179.5 -9.5t139.5 -33t105 -62.5t70 -100.5t41.5 -144.5t12.5 -195q0 -108 -12.5 -188.5t-41.5 -140t-70 -98t-105 -62t-139.5 -33t-179.5 -9.5q-106 0 -181.5 11t-136.5 38t-99 73.5t-61.5 116
t-31.5 167.5h-144v-383h-430v1024h430v-362zM1171 295q31 0 49 5t31.5 17t19.5 38.5t8.5 62.5t2.5 96q0 77 -3.5 117t-16.5 65.5t-33 32t-58 6.5q-28 0 -45 -2.5t-30.5 -12.5t-20.5 -23t-11.5 -40.5t-5.5 -58.5t-1 -84q0 -62 2 -96.5t8 -62t19.5 -38.5t32.5 -16.5t52 -5.5z
" />
    <glyph glyph-name="uni044F" unicode="&#x44f;" horiz-adv-x="1202" 
d="M297 432v10q-63 13 -108.5 42t-69.5 68t-34.5 79t-10.5 84q0 71 8.5 121t31 89t57.5 62.5t92.5 39t130 21t177.5 5.5q383 0 537 -17v-1036h-418v322h-90q-44 0 -59 -9t-19 -39l-59 -274h-438l75 328q31 93 197 104zM690 573v185h-110q-53 0 -70.5 -14t-17.5 -56
q0 -72 17 -93.5t71 -21.5h110z" />
    <glyph glyph-name="uni0451" unicode="&#x451;" 
d="M512 1178h-141q-80 0 -80 79v129q0 80 80 80h141q80 0 80 -80v-129q0 -79 -80 -79zM899 1178h-141q-80 0 -80 79v129q0 80 80 80h141q80 0 80 -80v-129q0 -79 -80 -79zM768 418h-256q12 -63 50 -88t120 -25q191 0 416 23l39 -258q-186 -95 -502 -95q-313 0 -448.5 130
t-135.5 399q0 302 131.5 425.5t450.5 123.5q190 0 308.5 -42t170.5 -121t53 -202q2 -145 -86.5 -207.5t-310.5 -62.5zM504 621h143q70 0 88.5 12.5t18.5 64.5q0 48 -23.5 63t-85.5 15q-81 2 -109 -26t-32 -129z" />
    <glyph glyph-name="uni0452" unicode="&#x452;" horiz-adv-x="1286" 
d="M567 956v-12q0 -120 -20 -225q186 149 381 149q149 0 225 -72.5t76 -213.5v-582h-432v444q0 34 -17 48t-57 14q-80 0 -156 -25v-481h-432v956h-115v185h115v293h432v-293h340v-185h-340z" />
    <glyph glyph-name="uni0453" unicode="&#x453;" horiz-adv-x="1009" 
d="M946 1300l-522 -210l-117 176l477 307zM88 0v770q0 140 72.5 205t226.5 65q148 0 222.5 -1t193.5 -9t196 -24l-20 -299h-395q-38 0 -54 -14t-16 -48v-645h-426z" />
    <glyph glyph-name="uni0454" unicode="&#x454;" horiz-adv-x="1155" 
d="M1081 303l31 -264q-172 -68 -450 -68q-335 0 -472 120t-137 417q0 155 32 257.5t106 167.5t187 92.5t284 27.5q273 0 442 -64l-33 -258q-135 -2 -409 -2q-83 2 -119 -16.5t-49 -81.5h512v-225h-517q4 -32 13.5 -52.5t21 -32.5t34.5 -17.5t44 -7t60 -1.5q250 0 419 8z" />
    <glyph glyph-name="uni0455" unicode="&#x455;" horiz-adv-x="1132" 
d="M543 356l-226 62q-82 24 -136 57t-82.5 77t-39 90.5t-10.5 111.5q0 72 24 125.5t78 93.5t147 60t226 20q127 0 279 -12.5t246 -32.5l-27 -250h-404h-26q-88 0 -107.5 -3.5t-19.5 -21.5q0 -13 11 -18t54 -16q33 -9 56 -15l235 -59q141 -40 206 -110t65 -200
q0 -192 -112 -265t-384 -73q-285 0 -533 43l27 250h365q153 0 187 4.5t34 26.5q0 4 -1 7.5t-3.5 6t-6 5t-10 5t-13 4t-18 5t-22 6t-27 7t-32.5 9.5z" />
    <glyph glyph-name="uni0456" unicode="&#x456;" horiz-adv-x="632" 
d="M225 1493h183q124 0 124 -127v-104q0 -127 -124 -127h-183q-125 0 -125 127v104q0 127 125 127zM530 0h-428v1024h428v-1024z" />
    <glyph glyph-name="uni0457" unicode="&#x457;" horiz-adv-x="636" 
d="M51 1466h142q79 0 79 -80v-129q0 -79 -79 -79h-142q-80 0 -80 79v129q0 80 80 80zM438 1466h142q79 0 79 -80v-129q0 -79 -79 -79h-142q-80 0 -80 79v129q0 80 80 80zM535 0h-433v1024h433v-1024z" />
    <glyph glyph-name="uni0458" unicode="&#x458;" horiz-adv-x="632" 
d="M219 1513h182q125 0 125 -127v-104q0 -127 -125 -127h-182q-125 0 -125 127v104q0 127 125 127zM530 1024v-905q0 -164 -89.5 -305t-241.5 -203l-238 188q79 79 110 153.5t31 166.5v905h428z" />
    <glyph glyph-name="uni0459" unicode="&#x459;" horiz-adv-x="1726" 
d="M1128 694h56q120 0 202.5 -10.5t144 -33.5t96 -65t51 -101t16.5 -144q0 -199 -102.5 -275.5t-338.5 -76.5q-200 0 -508 12h-12v770h-49q-41 0 -59.5 -18.5t-22.5 -67.5q-9 -94 -29.5 -220.5t-42.5 -203.5q-54 -181 -173 -242t-304 -26l-26 295q35 3 55 6.5t44.5 13
t39.5 29t22 49.5q29 119 58 375q27 264 295 264h587v-330zM1128 254h56q65 0 82.5 19t17.5 83q0 66 -18 84.5t-82 18.5h-56v-205z" />
    <glyph glyph-name="uni045A" unicode="&#x45a;" horiz-adv-x="1705" 
d="M1110 664h76q280 0 384.5 -68t104.5 -256q0 -199 -97.5 -275.5t-322.5 -76.5q-351 0 -538 12h-8v412h-224v-412h-391v1024h391v-358h224v358h401v-360zM1110 254h76q50 0 65 17.5t15 72.5t-14 70.5t-66 15.5h-76v-176z" />
    <glyph glyph-name="uni045B" unicode="&#x45b;" horiz-adv-x="1286" 
d="M567 956v-12q0 -120 -20 -225q186 149 381 149q149 0 225 -72.5t76 -213.5v-463q0 -164 -84.5 -305t-229.5 -203l-239 188q70 77 95.5 151t25.5 169v325q0 34 -17 48t-57 14q-80 0 -156 -25v-481h-432v956h-115v185h115v293h432v-293h340v-185h-340z" />
    <glyph glyph-name="uni045C" unicode="&#x45c;" horiz-adv-x="1216" 
d="M545 1090l-117 176l477 307l162 -273zM821 539v-13q125 -20 147 -27q60 -18 94 -73q37 -60 97 -274q11 -39 43 -152h-446q-70 265 -92 325t-58 66h-94q10 -48 10 -80v-311h-428v1024h428v-223q0 -69 -14 -135h37q30 0 45.5 2t32 11t25 26.5t19.5 49t22 78.5t27 116
q11 48 17 75h434q-16 -55 -42 -146q-27 -94 -37.5 -131t-31.5 -84.5t-31.5 -58.5t-42 -28.5t-57.5 -21t-83 -12.5z" />
    <glyph glyph-name="uni045D" unicode="&#x45d;" horiz-adv-x="1294" 
d="M854 1266l-117 -176l-522 210l162 273zM1200 0l-383 -4v401q0 71 17 193h-11q-30 -100 -86 -184l-262 -406h-381v1024h381v-428q0 -65 -16 -166h10q17 59 73 150q5 6 7 10l270 434h381v-1024z" />
    <glyph glyph-name="uni045E" unicode="&#x45e;" horiz-adv-x="1232" 
d="M719 1479h260q17 -88 -22.5 -169.5t-130.5 -133.5t-212 -52q-92 0 -168 31t-122.5 80.5t-67 113.5t-8.5 130h260q-11 -90 15.5 -124t90.5 -34q63 0 89.5 34t15.5 124zM1237 1024l-326 -995q-32 -107 -74.5 -184t-96.5 -124.5t-108.5 -75t-127.5 -48.5q-187 -52 -422 0
l33 272q207 -3 303 45q47 23 86 86h-72q-49 0 -85 27t-50 73l-303 924h457l120 -565q12 -78 27 -193h18q18 67 43 193l121 565h457z" />
    <glyph glyph-name="uni045F" unicode="&#x45f;" horiz-adv-x="1280" 
d="M1186 0h-377l-25 -332h-288l-27 332h-375v1024h426v-745h244v745h422v-1024z" />
    <glyph glyph-name="uni0490" unicode="&#x490;" horiz-adv-x="1136" 
d="M1128 1726v-333l-20 -312h-467q-39 0 -62.5 -20t-23.5 -53v-1008h-444v1100q0 142 92 231.5t237 89.5q242 0 363 -4l31 309h294z" />
    <glyph glyph-name="uni0491" unicode="&#x491;" horiz-adv-x="1009" 
d="M999 1315v-309l-20 -299h-395q-38 0 -54 -14t-16 -48v-645h-426v770q0 140 72.5 205t226.5 65q201 0 301 -4l31 279h280z" />
    <glyph glyph-name="uni04B0" unicode="&#x4b0;" horiz-adv-x="1347" 
d="M983 618h186v-212h-272v-406h-444v406h-273v212h185l-381 795h456l178 -444q6 -15 11.5 -32.5t9 -31.5t7.5 -35.5t5.5 -32.5t5.5 -35.5t5 -31.5h26q24 150 43 201l176 442h457z" />
    <glyph glyph-name="uni04B1" unicode="&#x4b1;" horiz-adv-x="1339" 
d="M979 240h184v-254h-268v-355h-446v355h-269v254h182l-376 784h456l174 -434q11 -27 18.5 -59.5t14.5 -78.5t10 -61h25q3 15 10 61.5t14.5 79.5t18.5 60l172 432h457z" />
    <glyph glyph-name="uni04B6" unicode="&#x4b6;" horiz-adv-x="1513" 
d="M1489 291v-600h-322l-30 309h-285v535q-96 -43 -199.5 -68t-181.5 -25q-207 0 -303 89t-96 280v602h444v-506q-4 -61 20.5 -81.5t100.5 -20.5q119 0 215 29v579h444v-1122h193z" />
    <glyph glyph-name="uni04B7" unicode="&#x4b7;" horiz-adv-x="1323" 
d="M1296 279v-558h-284l-29 279h-276v340q-142 -51 -295 -51q-180 0 -264.5 58.5t-84.5 184.5v492h429v-367q0 -31 15.5 -46t51.5 -15q71 0 148 27v401h426v-745h163z" />
    <glyph glyph-name="uni04BA" unicode="&#x4ba;" horiz-adv-x="1421" 
d="M561 1413v-534q97 43 202.5 67.5t184.5 24.5q207 0 304.5 -89.5t97.5 -279.5v-602h-445v506q4 61 -21 81.5t-102 20.5q-128 0 -221 -28v-580h-444v1413h444z" />
    <glyph glyph-name="uni04C0" unicode="&#x4c0;" horiz-adv-x="673" 
d="M557 0h-440v1413h440v-1413z" />
    <glyph glyph-name="Wgrave" unicode="&#x1e80;" horiz-adv-x="2054" 
d="M1233 1651l-117 -176l-522 211l162 272zM2013 1413l-176 -1294q-7 -53 -50 -86t-101 -33h-377q-58 0 -102 33t-50 86l-96 780q-10 82 -17 207h-34q-7 -125 -17 -209l-94 -778q-6 -53 -49.5 -86t-101.5 -33h-379q-58 0 -101.5 33t-50.5 86l-176 1294h438l72 -866
q8 -140 8 -236h33q33 236 33 238l94 733q6 58 47.5 94.5t101.5 36.5h318q60 0 100.5 -36t48.5 -95l97 -737q6 -60 30 -234h33q0 57 10 232l70 870h438z" />
    <glyph glyph-name="wgrave" unicode="&#x1e81;" horiz-adv-x="1794" 
d="M1106 1266l-117 -176l-522 210l162 273zM1778 1024l-209 -915q-10 -49 -48 -79t-91 -30h-302q-58 0 -99.5 35.5t-47.5 91.5l-59 465q-4 37 -13 180h-26q-5 -83 -15 -180l-59 -465q-6 -56 -47.5 -91.5t-99.5 -35.5h-297q-53 0 -91.5 30t-48.5 79l-209 915h426l74 -575
q12 -122 16 -183h25q2 27 5 57.5t7 68t6 57.5l58 450q6 55 47 90t98 35h236q57 0 98 -35t47 -92l55 -448q2 -23 10.5 -86t10.5 -97h25l18 183l72 575h428z" />
    <glyph glyph-name="Wacute" unicode="&#x1e82;" horiz-adv-x="2054" 
d="M1458 1686l-522 -211l-117 176l477 307zM2013 1413l-176 -1294q-7 -53 -50 -86t-101 -33h-377q-58 0 -102 33t-50 86l-96 780q-10 82 -17 207h-34q-7 -125 -17 -209l-94 -778q-6 -53 -49.5 -86t-101.5 -33h-379q-58 0 -101.5 33t-50.5 86l-176 1294h438l72 -866
q8 -140 8 -236h33q33 236 33 238l94 733q6 58 47.5 94.5t101.5 36.5h318q60 0 100.5 -36t48.5 -95l97 -737q6 -60 30 -234h33q0 57 10 232l70 870h438z" />
    <glyph glyph-name="wacute" unicode="&#x1e83;" horiz-adv-x="1794" 
d="M1331 1300l-522 -210l-117 176l477 307zM1778 1024l-209 -915q-10 -49 -48 -79t-91 -30h-302q-58 0 -99.5 35.5t-47.5 91.5l-59 465q-4 37 -13 180h-26q-5 -83 -15 -180l-59 -465q-6 -56 -47.5 -91.5t-99.5 -35.5h-297q-53 0 -91.5 30t-48.5 79l-209 915h426l74 -575
q12 -122 16 -183h25q2 27 5 57.5t7 68t6 57.5l58 450q6 55 47 90t98 35h236q57 0 98 -35t47 -92l55 -448q2 -23 10.5 -86t10.5 -97h25l18 183l72 575h428z" />
    <glyph glyph-name="Wdieresis" unicode="&#x1e84;" horiz-adv-x="2054" 
d="M760 1851h141q80 0 80 -79v-130q0 -79 -80 -79h-141q-80 0 -80 79v130q0 79 80 79zM1147 1851h141q80 0 80 -79v-130q0 -79 -80 -79h-141q-80 0 -80 79v130q0 79 80 79zM2013 1413l-176 -1294q-7 -53 -50 -86t-101 -33h-377q-58 0 -102 33t-50 86l-96 780q-10 82 -17 207
h-34q-7 -125 -17 -209l-94 -778q-6 -53 -49.5 -86t-101.5 -33h-379q-58 0 -101.5 33t-50.5 86l-176 1294h438l72 -866q8 -140 8 -236h33q33 236 33 238l94 733q6 58 47.5 94.5t101.5 36.5h318q60 0 100.5 -36t48.5 -95l97 -737q6 -60 30 -234h33q0 57 10 232l70 870h438z
" />
    <glyph glyph-name="wdieresis" unicode="&#x1e85;" horiz-adv-x="1794" 
d="M633 1466h141q80 0 80 -80v-129q0 -79 -80 -79h-141q-80 0 -80 79v129q0 80 80 80zM1020 1466h141q80 0 80 -80v-129q0 -79 -80 -79h-141q-80 0 -80 79v129q0 80 80 80zM1778 1024l-209 -915q-10 -49 -48 -79t-91 -30h-302q-58 0 -99.5 35.5t-47.5 91.5l-59 465
q-4 37 -13 180h-26q-5 -83 -15 -180l-59 -465q-6 -56 -47.5 -91.5t-99.5 -35.5h-297q-53 0 -91.5 30t-48.5 79l-209 915h426l74 -575q12 -122 16 -183h25q2 27 5 57.5t7 68t6 57.5l58 450q6 55 47 90t98 35h236q57 0 98 -35t47 -92l55 -448q2 -23 10.5 -86t10.5 -97h25
l18 183l72 575h428z" />
    <glyph glyph-name="Ygrave" unicode="&#x1ef2;" horiz-adv-x="1339" 
d="M758 1475l-522 211l161 272l477 -307zM893 440v-440h-444v436l-469 977h456l178 -444q7 -17 13 -36.5t10.5 -43t7 -38.5t7 -43.5t5.5 -37.5h27q24 150 43 201l176 442h457z" />
    <glyph glyph-name="ygrave" unicode="&#x1ef3;" horiz-adv-x="1232" 
d="M713 1090l-523 210l162 273l477 -307zM1237 1024l-326 -995q-14 -45 -32.5 -87t-44 -88t-58.5 -84.5t-73 -74.5t-90.5 -60.5t-107.5 -39.5t-128 -14.5t-148 16.5l-28 231q121 26 191 64.5t110 107.5h-70q-49 0 -85 27t-50 73l-303 924h457l120 -565q12 -78 27 -193h18
q16 58 43 193l121 565h457z" />
    <glyph glyph-name="endash" unicode="&#x2013;" horiz-adv-x="1083" 
d="M993 401h-903v250h903v-250z" />
    <glyph glyph-name="emdash" unicode="&#x2014;" horiz-adv-x="1677" 
d="M1587 401h-1497v250h1497v-250z" />
    <glyph glyph-name="quoteleft" unicode="&#x2018;" horiz-adv-x="452" 
d="M268 809h-71q-71 0 -99.5 28.5t-29.5 104.5v119q0 132 28.5 219t89.5 174l140 -45q-31 -97 -35 -256q105 0 108 -119l-4 -92q-1 -76 -28.5 -104.5t-98.5 -28.5z" />
    <glyph glyph-name="quoteright" unicode="&#x2019;" horiz-adv-x="446" 
d="M182 1434h72q71 0 99.5 -29t29.5 -105v-118q0 -132 -29 -219t-90 -175l-139 46q31 97 35 256q-106 0 -109 118l4 92q1 76 28.5 105t98.5 29z" />
    <glyph glyph-name="quotesinglbase" unicode="&#x201a;" horiz-adv-x="475" 
d="M201 379h71q71 0 99.5 -32t29.5 -116v-131q0 -145 -28.5 -239t-89.5 -193l-140 51q31 106 35 281q-105 0 -108 131l4 100q1 85 28.5 116.5t98.5 31.5z" />
    <glyph glyph-name="quotedblleft" unicode="&#x201c;" horiz-adv-x="860" 
d="M268 809h-71q-71 0 -99.5 28.5t-29.5 104.5v119q0 132 28.5 219t89.5 174l140 -45q-31 -97 -35 -256q105 0 108 -119l-4 -92q-1 -76 -28.5 -104.5t-98.5 -28.5zM676 809h-72q-71 0 -99.5 28.5t-29.5 104.5v119q0 132 29 218.5t90 174.5l139 -45q-31 -97 -35 -256
q106 0 109 -119l-4 -92q-1 -76 -28.5 -104.5t-98.5 -28.5z" />
    <glyph glyph-name="quotedblright" unicode="&#x201d;" horiz-adv-x="854" 
d="M182 1434h72q71 0 99.5 -29t29.5 -105v-118q0 -132 -29 -219t-90 -175l-139 46q31 97 35 256q-106 0 -109 118l4 92q1 76 28.5 105t98.5 29zM590 1434h72q71 0 99.5 -29t29.5 -105v-118q0 -132 -29 -219t-90 -175l-140 46q31 97 35 256q-105 0 -108 118l4 92
q1 76 28.5 105t98.5 29z" />
    <glyph glyph-name="quotedblbase" unicode="&#x201e;" horiz-adv-x="878" 
d="M199 313h71q71 0 99.5 -28.5t29.5 -104.5v-119q0 -132 -28.5 -219t-89.5 -174l-140 45q31 97 35 256q-105 0 -108 119l4 92q1 76 28.5 104.5t98.5 28.5zM606 313h72q71 0 99.5 -28.5t29.5 -104.5v-119q0 -132 -29 -218.5t-90 -174.5l-139 45q31 97 35 256
q-106 0 -109 119l4 92q1 76 28.5 104.5t98.5 28.5z" />
    <glyph glyph-name="dagger" unicode="&#x2020;" horiz-adv-x="995" 
d="M666 -225h-336l22 1030v186l-22 424h336l-21 -424v-186zM45 731v293h264v-248zM950 1024v-293l-264 45v248h264z" />
    <glyph glyph-name="daggerdbl" unicode="&#x2021;" horiz-adv-x="1069" 
d="M682 199l20 -424h-335l20 424v825l-20 391h335l-20 -391v-825zM82 731v293h264v-248zM987 1024v-293l-264 45v248h264zM346 166h-264v293l264 -45v-248zM723 414l264 45v-293h-264v248z" />
    <glyph glyph-name="bullet" unicode="&#x2022;" horiz-adv-x="780" 
d="M381 823h35q140 0 195 -55.5t55 -194.5v-34q0 -151 -55 -209t-195 -58h-35q-152 0 -209 57.5t-57 209.5v34q0 140 57.5 195t208.5 55z" />
    <glyph glyph-name="ellipsis" unicode="&#x2026;" horiz-adv-x="1894" 
d="M201 379h96q85 0 116 -31.5t31 -116.5v-84q0 -85 -31 -116t-116 -31h-96q-85 0 -116.5 31t-31.5 116v84q0 85 31.5 116.5t116.5 31.5zM883 379h96q85 0 116 -31.5t31 -116.5v-84q0 -85 -31 -116t-116 -31h-96q-85 0 -116.5 31t-31.5 116v84q0 85 31.5 116.5t116.5 31.5z
M1565 379h96q85 0 116 -31.5t31 -116.5v-84q0 -85 -31 -116t-116 -31h-96q-85 0 -116.5 31t-31.5 116v84q0 85 31.5 116.5t116.5 31.5z" />
    <glyph glyph-name="perthousand" unicode="&#x2030;" horiz-adv-x="2713" 
d="M416 1442q143 0 222.5 -38t116 -128.5t36.5 -255.5t-36.5 -255.5t-116 -128.5t-222.5 -38q-141 0 -219.5 38t-115 129t-36.5 255t36.5 255t115 129t219.5 38zM682 0h-258l778 1413h258zM416 1219q-27 0 -37.5 -11t-15.5 -51.5t-5 -136.5q0 -97 5 -137.5t15.5 -51
t37.5 -10.5q28 0 39 10.5t16.5 51t5.5 137.5q0 96 -5.5 136.5t-16.5 51.5t-39 11zM1468 815q143 0 222.5 -38t116 -128.5t36.5 -255.5t-36.5 -255.5t-116 -128.5t-222.5 -38q-106 0 -174 20t-113 69t-64 129t-19 204t19 204t64 129t113 69t174 20zM2292 815q108 0 177 -20
t114.5 -69.5t64 -129t18.5 -203.5t-18.5 -203.5t-64 -129t-114.5 -69.5t-177 -20q-141 0 -219.5 38t-115 129t-36.5 255t36.5 255t115 129t219.5 38zM1468 592q-27 0 -37.5 -11t-15 -50.5t-4.5 -137.5q0 -97 4.5 -136.5t15 -50.5t37.5 -11q28 0 39.5 10.5t17 51.5t5.5 136
q0 96 -5.5 137t-17 51.5t-39.5 10.5zM2292 592q-27 0 -37.5 -10.5t-15.5 -51t-5 -137.5q0 -96 5 -136t15.5 -51t37.5 -11q28 0 39 11t16.5 51t5.5 136q0 97 -5.5 137.5t-16.5 51t-39 10.5z" />
    <glyph glyph-name="guilsinglleft" unicode="&#x2039;" horiz-adv-x="649" 
d="M592 821l-176 -307l176 -319l-225 -142l-324 416v90l324 404z" />
    <glyph glyph-name="guilsinglright" unicode="&#x203a;" horiz-adv-x="649" 
d="M606 559v-90l-323 -416l-226 142l179 319l-179 307l226 142z" />
    <glyph glyph-name="fraction" unicode="&#x2044;" horiz-adv-x="327" 
d="M-98 0h-258l778 1413h258z" />
    <glyph glyph-name="Euro" unicode="&#x20ac;" horiz-adv-x="1318" 
d="M1049 739h-992v226h138q43 244 198.5 358.5t458.5 114.5q209 0 379 -56l-35 -303q-276 27 -379 4q-55 -12 -89.5 -39.5t-55.5 -78.5h399zM1237 346l33 -303q-174 -68 -418 -68q-304 0 -459 115t-198 363h-140v225h981l-22 -225h-346q20 -56 55.5 -85t93.5 -38
q65 -11 194.5 -6t225.5 22z" />
    <glyph glyph-name="trademark" unicode="&#x2122;" horiz-adv-x="2039" 
d="M819 1425v-219h-217v-559h-293v559h-219v219h729zM1948 647h-265l-24 559h-17l-45 -334q-12 -88 -110 -88h-156q-98 0 -110 88l-47 334h-17l-18 -559h-267l25 678q3 100 98 100h260q45 0 74 -23t35 -67l31 -252q3 -22 6 -63.5t4 -54.5h8q2 19 5 59t5 59l27 252
q6 44 35.5 67t75.5 23h264q94 0 100 -100z" />
    <glyph glyph-name="partialdiff" unicode="&#x2202;" horiz-adv-x="1255" 
d="M213 1163v279q182 7 321 -3t254.5 -42t193.5 -88.5t130 -142t72.5 -202.5t13.5 -270q-8 -172 -39.5 -298t-82 -206.5t-128.5 -128.5t-167.5 -67t-209.5 -19q-127 0 -224.5 34t-154 87t-90.5 125.5t-43.5 142t-3.5 142.5q5 64 22 122.5t53 115.5t87 99t129 67.5t174 25.5
q154 0 248 -66q-3 82 -27 134t-85 89.5t-168 53.5t-275 16zM594 295q30 0 52.5 8t38.5 28.5t27 44t19 65.5t12.5 81.5t10.5 102.5q-56 10 -125 10q-73 0 -107 -40t-39 -99q-9 -104 16.5 -152.5t94.5 -48.5z" />
    <glyph glyph-name="emptyset" unicode="&#x2205;" horiz-adv-x="1402" 
d="M702 1296q122 0 232.5 -47.5t190.5 -127.5t127.5 -190.5t47.5 -232.5t-47.5 -233.5t-127.5 -191.5t-190.5 -127.5t-232.5 -47.5t-233.5 47.5t-191.5 127.5t-127.5 191.5t-47.5 233.5t47.5 232.5t127.5 190.5t191.5 127.5t233.5 47.5zM639 494h111q0 59 20 108.5t48 84
t56 68t48 77t20 94.5q0 190 -240 190q-39 0 -68.5 -1t-56 -3.5t-39.5 -4.5t-42.5 -6.5t-42.5 -6.5l6 -93q130 19 243 19q64 0 100 -25t36 -69q0 -36 -20.5 -72.5t-50 -70.5t-58.5 -72.5t-49.5 -95t-20.5 -121.5zM735 350h-80q-14 0 -14 -16v-76q0 -14 14 -14h80q17 0 17 14
v76q0 16 -17 16z" />
    <glyph glyph-name="product" unicode="&#x220f;" horiz-adv-x="1452" 
d="M1401 1114h-144v-1298h-430v1298h-202v-1298h-430v1298h-144v299h1350v-299z" />
    <glyph glyph-name="summation" unicode="&#x2211;" horiz-adv-x="1224" 
d="M1151 1122h-580l244 -465l-272 -700h628v-291h-1105v291l270 700l-246 465v291h1061v-291z" />
    <glyph glyph-name="minus" unicode="&#x2212;" horiz-adv-x="1169" 
d="M1077 449h-985v299h985v-299z" />
    <glyph glyph-name="radical" unicode="&#x221a;" 
d="M1214 1794l-391 -1778q-3 -16 -26 -16h-510q-24 0 -27 16l-254 1008h340l182 -754h27l315 1524h344z" />
    <glyph glyph-name="infinity" unicode="&#x221e;" horiz-adv-x="1548" 
d="M1171 938q86 0 156.5 -31.5t117 -103.5t46.5 -174q0 -156 -99.5 -243t-248.5 -87q-193 0 -369 150q-188 -150 -377 -150q-142 0 -241 87.5t-99 242.5q0 152 95.5 230.5t242.5 78.5q201 0 381 -162q204 162 395 162zM358 621q0 -72 99 -72q82 0 157 72q-30 35 -63.5 50
t-93.5 15q-99 0 -99 -65zM1094 549q96 0 96 69q0 68 -96 68q-58 0 -92 -18.5t-68 -57.5q68 -61 160 -61z" />
    <glyph glyph-name="integral" unicode="&#x222b;" horiz-adv-x="720" 
d="M223 -80l-104 1270q-9 130 66 201t198 71q211 0 293 -8l-25 -309h-123q-21 0 -28 -8t-6 -35l108 -1284q12 -144 -51.5 -208.5t-237.5 -64.5q-209 0 -268 9l25 309h112q27 0 35.5 12t5.5 45z" />
    <glyph glyph-name="approxequal" unicode="&#x2248;" horiz-adv-x="1179" 
d="M360 627h-258q-44 185 36 279.5t239 80.5q44 -4 194 -41.5t189 -42.5q9 -1 16 -1t12.5 0.5t9.5 3t6.5 5t4 7t2 8.5t1 11t0 12t-0.5 14v16h256q45 -180 -27 -275.5t-243 -87.5q-46 2 -195.5 40.5t-191.5 43.5q-10 -1 -17.5 1t-13 -1.5t-9.5 -4t-6 -6t-3 -8.5t-1.5 -10.5
t-0.5 -12.5t0.5 -14.5t0.5 -16.5zM360 209h-258q-44 185 36 280.5t239 81.5q44 -4 194 -42.5t189 -43.5q9 -1 16 -1t12.5 0.5t9.5 3.5t6.5 5t4 7t2 9t1 11t0 12t-0.5 14v15h256q45 -179 -27 -274.5t-243 -87.5q-46 2 -195.5 41.5t-191.5 44.5q-9 2 -16 0.5t-12.5 -1t-9 -3
t-6 -5t-4 -6.5t-2.5 -8.5t-1 -10.5t0.5 -12t0.5 -14v-16z" />
    <glyph glyph-name="notequal" unicode="&#x2260;" horiz-adv-x="1255" 
d="M1120 989v-299h-985v299h486l90 252l227 -82l-59 -170h241zM135 547h985v-299h-508l-92 -260l-233 84l63 176h-215v299z" />
    <glyph glyph-name="lessequal" unicode="&#x2264;" horiz-adv-x="1134" 
d="M1008 872l-543 -67l543 -72v-334l-906 242v330l906 235v-334zM1001 49h-923v324h923v-324z" />
    <glyph glyph-name="greaterequal" unicode="&#x2265;" horiz-adv-x="1134" 
d="M1032 971v-330l-905 -242v334l543 72l-543 67v334zM1057 49h-924v324h924v-324z" />
    <glyph glyph-name="lozenge" unicode="&#x25ca;" horiz-adv-x="1169" 
d="M608 1409l516 -678q14 -23 0 -45l-516 -682q-22 -29 -45 0l-518 682q-14 22 0 45l518 678q23 29 45 0zM377 709l209 -291l207 291l-207 286z" />
    <glyph glyph-name="c_t" horiz-adv-x="1806" 
d="M1534 766v-393q0 -40 20.5 -57t67.5 -17h109l47 -274q-61 -26 -163.5 -40t-184.5 -14q-150 0 -238 76.5t-88 210.5v508h-428q-100 0 -136 -51.5t-36 -200.5q0 -118 36 -158.5t136 -40.5q157 0 268 15l39 -269q-139 -86 -385 -86q-300 0 -422.5 121t-122.5 418
q0 280 123.5 395t425.5 115h500v268h432v-268h248v-258h-248z" />
    <glyph glyph-name="f_f_y" horiz-adv-x="2752" 
d="M2757 1024l-326 -995q-14 -45 -32.5 -87t-44 -88t-58.5 -84.5t-73 -74.5t-90.5 -60.5t-107.5 -39.5t-128 -14.5t-148 16.5l-29 231q121 26 191 64.5t110 107.5h-69q-49 0 -85 27t-50 73l-197 598q-21 68 -92 68h-150v-766h-417v766h-357v-766h-416v766h-172v248l172 10
v104q10 334 371 334q70 0 171.5 -7.5t162.5 -20.5l-41 -258h-150q-56 0 -77 -23t-21 -84v-45h357v125q0 334 376 334q74 0 182.5 -7.5t178.5 -21.5l-41 -258h-180q-57 0 -78 -23t-21 -83v-66h314q278 0 336 -272l63 -293q12 -79 27 -193h18q16 58 43 193l121 565h457z" />
    <glyph glyph-name="f_t" horiz-adv-x="1658" 
d="M1386 766v-393q0 -40 21 -57t68 -17h108l47 -274q-61 -26 -163.5 -40t-184.5 -14q-150 0 -238 76.5t-88 210.5v508h-335v-766h-433v766h-172v248l172 10v125q0 334 377 334q64 0 160.5 -7.5t153.5 -21.5l-41 -258h-119q-57 0 -77.5 -23t-20.5 -83v-66h333v268h432v-268
h248v-258h-248z" />
    <glyph glyph-name="f_y" horiz-adv-x="1980" 
d="M1985 1024l-326 -995q-14 -45 -32.5 -87t-44 -88t-58.5 -84.5t-73 -74.5t-90.5 -60.5t-107.5 -39.5t-128 -14.5t-148 16.5l-29 231q121 26 191 64.5t110 107.5h-69q-49 0 -85.5 27t-50.5 73l-196 598q-21 68 -92 68h-135v-766h-433v766h-172v248l172 10v125
q0 334 377 334q76 0 191 -7.5t184 -21.5l-41 -258h-180q-57 0 -77.5 -23t-20.5 -83v-66h299q277 0 335 -272l64 -293q12 -78 27 -193h18q16 58 43 193l121 565h457z" />
    <glyph glyph-name="s_t" horiz-adv-x="1894" 
d="M1622 766v-393q0 -40 20.5 -57t67.5 -17h109l47 -274q-61 -26 -163.5 -40t-184.5 -14q-150 0 -238 76.5t-88 210.5v506h-574h-26q-88 0 -107.5 -3.5t-19.5 -21.5q0 -13 11 -18t54 -16q33 -9 56 -15l235 -65q130 -40 190 -110t60 -200q0 -192 -107 -265t-368 -73
q-285 0 -533 43l27 250h365q128 0 164 4.5t36 26.5q0 19 -22 28.5t-90 26.5l-226 62q-82 24 -136 57t-82.5 77t-39 90.5t-10.5 111.5t24 113t78 84t147.5 54.5t225.5 18.5h666v268h432v-268h248v-258h-248z" />
    <glyph glyph-name="t_t" horiz-adv-x="1689" 
d="M1417 766v-393q0 -40 20.5 -57t67.5 -17h109l47 -274q-61 -26 -163.5 -40t-184.5 -14q-150 0 -238 76.5t-88 210.5v508h-362v-393q0 -40 20.5 -57t67.5 -17h108l47 -274q-61 -26 -163.5 -40t-184.5 -14q-150 0 -237.5 76.5t-87.5 210.5v508h-175v248l173 8v270h432v-268
h360v268h432v-268h248v-258h-248z" />
    <glyph glyph-name="t_y" horiz-adv-x="2031" 
d="M2036 1024l-326 -995q-14 -45 -32.5 -87t-44 -88t-58.5 -84.5t-73 -74.5t-90.5 -60.5t-107.5 -39.5t-128 -14.5t-148 16.5l-29 231q121 26 191 64.5t110 107.5h-69q-49 0 -85 27t-50 73l-197 598q-21 68 -92 68h-182v-393q0 -40 20.5 -57t67.5 -17h108l47 -274
q-61 -26 -163.5 -40t-184.5 -14q-150 0 -237.5 76.5t-87.5 210.5v508h-175v248l173 8v270h432v-268h346q278 0 336 -272l63 -293q12 -78 27 -193h18q16 58 43 193l121 565h457z" />
    <glyph glyph-name="brevecy" horiz-adv-x="841" 
d="M526 1448h260q17 -88 -22 -169t-130 -133t-212 -52q-122 0 -213 52t-131 133t-23 169h260q-11 -90 15.5 -124t91.5 -34q63 0 89 34t15 124z" />
    </font>
</defs>
</svg>
